<svg width="49" height="49" viewBox="0 0 49 49" fill="none" xmlns="http://www.w3.org/2000/svg">
<circle cx="24.6812" cy="24.0454" r="24" fill="#95A9C8"/>
<rect x="9.45641" y="15.9614" width="16" height="22" rx="3" transform="rotate(-15 9.45641 15.9614)" fill="white" stroke="#95A9C8" stroke-width="2"/>
<path d="M18.0013 24.3897L18.8203 22.3403L20.8637 23.7024L20.0447 25.7519L18.0013 24.3897Z" stroke="#0A2143" stroke-width="3" stroke-linecap="round"/>
<rect x="23.1498" y="10.8207" width="16" height="22" rx="3" transform="rotate(15 23.1498 10.8207)" fill="white" stroke="#95A9C8" stroke-width="2"/>
<path d="M32.6812 27.5454C35.7187 27.5454 38.1812 30.0078 38.1812 33.0454C38.1812 36.083 35.7187 38.5454 32.6812 38.5454C29.6436 38.5454 27.1812 36.083 27.1812 33.0454C27.1812 30.0078 29.6436 27.5454 32.6812 27.5454Z" fill="#0A2143" stroke="#95A9C8"/>
<path d="M31.4312 34.8742V31.2173M34.0312 34.8742V31.2173" stroke="white" stroke-width="1.5" stroke-miterlimit="10" stroke-linecap="round"/>
<path d="M26.939 20.0454L28.3532 22.4949L30.8027 21.0807" stroke="#0A2143" stroke-width="4" stroke-linecap="round"/>
</svg>
