<svg width="13" height="14" viewBox="0 0 13 14" fill="none" xmlns="http://www.w3.org/2000/svg">
<path d="M9.62516 4.59329C9.78617 4.12172 9.83278 3.61835 9.7611 3.12504C9.68943 2.63173 9.50154 2.16273 9.21308 1.75705C8.92462 1.35136 8.5439 1.02071 8.1026 0.792576C7.66129 0.564447 7.17215 0.445435 6.67584 0.445435C6.17952 0.445435 5.69036 0.564447 5.24905 0.792576C4.80775 1.02071 4.42703 1.35136 4.13857 1.75705C3.85011 2.16273 3.66222 2.63173 3.59055 3.12504C3.51888 3.61835 3.56548 4.12172 3.72649 4.59329C3.20387 4.60533 2.69267 4.74921 2.23991 5.01169C1.78715 5.27418 1.40739 5.64684 1.13558 6.09537C0.863777 6.54391 0.708649 7.05391 0.684485 7.57844C0.66032 8.10297 0.767891 8.62518 0.997296 9.09702C1.2267 9.56885 1.57057 9.97514 1.99726 10.2785C2.42395 10.5819 2.91975 10.7726 3.43903 10.833C3.95831 10.8935 4.48439 10.8218 4.96885 10.6245C5.45332 10.4272 5.88061 10.1107 6.21139 9.70414C5.93451 10.447 5.68364 11.2065 5.30499 12.0813C5.22832 12.2584 5.10703 12.4124 4.95307 12.528C4.79911 12.6437 4.6178 12.7171 4.42701 12.7409C4.38874 12.7461 4.35368 12.7652 4.32841 12.7945C4.30313 12.8238 4.28938 12.8614 4.28973 12.9002V13.485C4.28973 13.5061 4.29391 13.5271 4.30201 13.5467C4.31011 13.5662 4.32199 13.5839 4.33695 13.5989C4.3519 13.6138 4.36964 13.6256 4.38916 13.6336C4.40868 13.6416 4.42958 13.6456 4.45066 13.6454H8.91165C8.95401 13.6454 8.99464 13.6285 9.0246 13.5984C9.05456 13.5683 9.07138 13.5275 9.07138 13.485V12.9002C9.07177 12.8616 9.05819 12.8242 9.03316 12.7949C9.00813 12.7656 8.97336 12.7464 8.93532 12.7409C8.74452 12.7171 8.5632 12.6437 8.40923 12.528C8.25527 12.4124 8.13398 12.2584 8.05731 12.0813C7.67866 11.2077 7.4278 10.4482 7.15091 9.70414C7.48169 10.1107 7.90899 10.4272 8.39345 10.6245C8.87792 10.8218 9.40399 10.8935 9.92328 10.833C10.4426 10.7726 10.9384 10.5819 11.365 10.2785C11.7917 9.97514 12.1356 9.56885 12.365 9.09702C12.5944 8.62518 12.702 8.10297 12.6778 7.57844C12.6537 7.05391 12.4985 6.54391 12.2267 6.09537C11.9549 5.64684 11.5752 5.27418 11.1224 5.01169C10.6697 4.74921 10.1584 4.60533 9.63581 4.59329" fill="#CD7F32"/>
</svg>
