<svg width="33" height="33" viewBox="0 0 33 33" fill="none" xmlns="http://www.w3.org/2000/svg">
<g clip-path="url(#clip0_7_365)">
<path d="M28.927 10.2545C28.6602 10.2545 28.4441 10.0384 28.4441 9.77155V8.96051C28.4441 8.69391 28.6602 8.4776 28.927 8.4776C29.1938 8.4776 29.4099 8.69391 29.4099 8.96051V9.77155C29.4099 10.0384 29.1938 10.2545 28.927 10.2545Z" fill="#3A484A"/>
<path d="M29.4792 11.4466H28.3748C28.1079 11.4466 27.8918 11.2303 27.8918 10.9637C27.8918 10.6971 28.1079 10.4808 28.3748 10.4808H29.4792C29.7461 10.4808 29.9622 10.6971 29.9622 10.9637C29.9622 11.2303 29.7461 11.4466 29.4792 11.4466Z" fill="#F98084"/>
<path d="M20.5845 10.2545C20.3176 10.2545 20.1016 10.0384 20.1016 9.77155V8.96051C20.1016 8.69391 20.3176 8.4776 20.5845 8.4776C20.8513 8.4776 21.0674 8.69391 21.0674 8.96051V9.77155C21.0674 10.0384 20.8513 10.2545 20.5845 10.2545Z" fill="#3A484A"/>
<path d="M21.1367 11.4466H20.0322C19.7654 11.4466 19.5493 11.2303 19.5493 10.9637C19.5493 10.6971 19.7654 10.4808 20.0322 10.4808H21.1367C21.4036 10.4808 21.6196 10.6971 21.6196 10.9637C21.6196 11.2303 21.4036 11.4466 21.1367 11.4466Z" fill="#F98084"/>
<path d="M24.7556 11.4007C24.3254 11.4007 23.9211 11.2203 23.646 10.9056C23.4704 10.7047 23.4912 10.3997 23.6919 10.2242C23.8928 10.0487 24.1977 10.0692 24.3733 10.2701C24.4648 10.3748 24.6042 10.4349 24.7556 10.4349C24.907 10.4349 25.0466 10.3748 25.1382 10.2699C25.3137 10.0692 25.6186 10.0487 25.8196 10.2242C26.0205 10.3997 26.041 10.7049 25.8652 10.9056C25.5903 11.2203 25.1858 11.4007 24.7556 11.4007Z" fill="#3A484A"/>
<path d="M32.2063 6.13605C31.6689 -0.405945 29.031 0.601379 24.7561 0.601379C21.5242 0.601379 19.9722 0.277893 19.311 0.0715939C19.0466 -0.0111698 18.762 0.107971 18.6362 0.354797C18.1084 1.39069 16.9307 4.19293 16.9307 8.58136C16.9307 8.58136 18.8025 3.48572 24.7561 3.48572C27.5259 3.48572 27.2939 6.13605 32.2063 6.13605Z" fill="#3A484A"/>
<path d="M0.874268 23.7564V28.9007C0.874268 30.1822 1.83789 31.2591 3.11182 31.4007L0.874268 23.7564Z" fill="#3A484A"/>
<path d="M16.5129 23.7564V28.9007C16.5129 30.1822 15.5496 31.2591 14.2756 31.4007L16.5129 23.7564Z" fill="#3A484A"/>
<path d="M4.52246 25.7383C4.25586 25.7383 4.03955 25.5223 4.03955 25.2554V24.4444C4.03955 24.1778 4.25586 23.9615 4.52246 23.9615C4.78931 23.9615 5.00537 24.1778 5.00537 24.4444V25.2554C5.00537 25.5223 4.78931 25.7383 4.52246 25.7383Z" fill="#3A484A"/>
<path d="M5.07471 26.9305H3.97021C3.70337 26.9305 3.4873 26.7144 3.4873 26.4476C3.4873 26.181 3.70337 25.9647 3.97021 25.9647H5.07471C5.34155 25.9647 5.55762 26.181 5.55762 26.4476C5.55762 26.7144 5.34155 26.9305 5.07471 26.9305Z" fill="#F98084"/>
<path d="M12.865 25.7383C12.5984 25.7383 12.3821 25.5223 12.3821 25.2554V24.4444C12.3821 24.1778 12.5984 23.9615 12.865 23.9615C13.1318 23.9615 13.3479 24.1778 13.3479 24.4444V25.2554C13.3479 25.5223 13.1318 25.7383 12.865 25.7383Z" fill="#3A484A"/>
<path d="M13.4172 26.9305H12.3127C12.0459 26.9305 11.8298 26.7144 11.8298 26.4476C11.8298 26.181 12.0459 25.9647 12.3127 25.9647H13.4172C13.6841 25.9647 13.9001 26.181 13.9001 26.4476C13.9001 26.7144 13.6841 26.9305 13.4172 26.9305Z" fill="#F98084"/>
<path d="M8.69358 26.8848C8.2634 26.8848 7.85911 26.7044 7.58396 26.3895C7.40842 26.1888 7.42918 25.8836 7.62986 25.7081C7.83054 25.5328 8.13572 25.5533 8.31126 25.754C8.40281 25.8589 8.54221 25.919 8.69358 25.919C8.84495 25.919 8.98459 25.8589 9.07615 25.754C9.25168 25.5533 9.55686 25.5328 9.75754 25.7083C9.95847 25.8838 9.97898 26.1888 9.80344 26.3897C9.5283 26.7044 9.12375 26.8848 8.69358 26.8848Z" fill="#3A484A"/>
<path d="M0.874268 23.7564L0.875 23.7571C5.07471 23.2925 8.6936 17.9857 8.6936 17.9857C8.6936 17.9857 12.3127 23.2925 16.5125 23.7571C16.3535 19.493 12.9143 16.0855 8.6936 16.0855C4.47314 16.0855 1.03345 19.4922 0.874268 23.7564Z" fill="#3A484A"/>
<path d="M13.5398 10.9229V6.09943C13.5398 4.37628 12.1431 2.97931 10.4197 2.97931H3.98877C2.26562 2.97931 0.868652 4.37628 0.868652 6.09943V10.5074C0.868652 12.2305 2.26562 13.6273 3.98877 13.6273H15.0342L13.5398 10.9229Z" fill="#FBD145"/>
<path d="M10.5723 6.58234H3.83618C3.56958 6.58234 3.35327 6.36603 3.35327 6.09943C3.35327 5.83258 3.56958 5.61652 3.83618 5.61652H10.5723C10.8391 5.61652 11.0552 5.83258 11.0552 6.09943C11.0552 6.36603 10.8391 6.58234 10.5723 6.58234Z" fill="#EFEDEE"/>
<path d="M10.5723 8.78619H3.83618C3.56958 8.78619 3.35327 8.57013 3.35327 8.30328C3.35327 8.03668 3.56958 7.82037 3.83618 7.82037H10.5723C10.8391 7.82037 11.0552 8.03668 11.0552 8.30328C11.0552 8.57013 10.8391 8.78619 10.5723 8.78619Z" fill="#EFEDEE"/>
<path d="M8.03711 10.9903H3.83618C3.56958 10.9903 3.35327 10.774 3.35327 10.5074C3.35327 10.2405 3.56958 10.0245 3.83618 10.0245H8.03711C8.30371 10.0245 8.52002 10.2405 8.52002 10.5074C8.52002 10.774 8.30371 10.9903 8.03711 10.9903Z" fill="#EFEDEE"/>
<path d="M19.9097 26.6851V21.8614C19.9097 20.1382 21.3066 18.7415 23.0298 18.7415H29.4607C31.1838 18.7415 32.5808 20.1382 32.5808 21.8614V26.2693C32.5808 27.9925 31.1838 29.3895 29.4607 29.3895H18.4153L19.9097 26.6851Z" fill="#FBD145"/>
<path d="M29.6133 22.3445H22.8772C22.6104 22.3445 22.3943 22.1282 22.3943 21.8616C22.3943 21.5948 22.6104 21.3787 22.8772 21.3787H29.6133C29.8801 21.3787 30.0962 21.5948 30.0962 21.8616C30.0962 22.1282 29.8799 22.3445 29.6133 22.3445Z" fill="#EFEDEE"/>
<path d="M29.6133 24.5484H22.8772C22.6104 24.5484 22.3943 24.3321 22.3943 24.0655C22.3943 23.7989 22.6104 23.5826 22.8772 23.5826H29.6133C29.8801 23.5826 30.0962 23.7989 30.0962 24.0655C30.0962 24.3321 29.8799 24.5484 29.6133 24.5484Z" fill="#EFEDEE"/>
<path d="M29.6133 26.7525H25.4124C25.1458 26.7525 24.9294 26.5362 24.9294 26.2696C24.9294 26.0027 25.1458 25.7867 25.4124 25.7867H29.6133C29.8799 25.7867 30.0962 26.0027 30.0962 26.2696C30.0962 26.5362 29.8799 26.7525 29.6133 26.7525Z" fill="#EFEDEE"/>
</g>
<defs>
<clipPath id="clip0_7_365">
<rect width="32" height="32" fill="white" transform="translate(0.681152 0.0454712)"/>
</clipPath>
</defs>
</svg>
