<svg width="33" height="33" viewBox="0 0 33 33" fill="none" xmlns="http://www.w3.org/2000/svg">
<g clip-path="url(#clip0_7_326)">
<path d="M18.8325 1.07709C20.9899 1.07722 22.7456 2.8337 22.7456 4.99115C22.7455 5.95506 22.6282 6.91942 22.3969 7.8642L22.1059 9.05267L23.145 8.40814C23.972 7.89583 24.8527 7.48572 25.769 7.18842H25.77C27.8265 6.51956 30.0326 7.64305 30.7016 9.70111C30.9051 10.3277 30.936 10.9974 30.7915 11.6679L30.7309 11.9501L30.9448 12.1435C31.7295 12.8545 32.1651 13.8232 32.1801 14.9462C32.1997 16.4356 31.6089 17.4275 30.6577 18.0966C29.6768 18.7865 28.2773 19.1555 26.6753 19.2744L25.4565 19.3642L26.3891 20.1542C28.2639 21.7413 29.3631 23.2786 29.061 25.1865C28.7927 26.879 27.4511 28.2486 25.6538 28.4335L25.3657 28.4638L25.2475 28.7294C24.5625 30.2775 23.0109 31.1236 21.4243 31.0019L21.1069 30.9648L20.9282 30.9326C19.1074 30.5618 18.033 29.0393 17.146 26.8701L16.6841 25.7382L16.2212 26.8701C15.2342 29.2828 13.9181 31.0146 11.6391 31.0146C10.1865 31.0145 8.76989 30.197 8.1196 28.7285L8.00143 28.4638L7.71335 28.4335L7.38132 28.3857C5.75224 28.0764 4.55763 26.7726 4.30612 25.1865C4 23.2526 5.13701 21.7126 6.978 20.1542L7.91061 19.3652L6.69186 19.2744C5.72166 19.2023 4.76783 19.0161 3.85104 18.7187C2.23498 18.1934 1.15853 16.6826 1.18112 14.9462C1.19619 13.8253 1.63334 12.8561 2.42136 12.1435L2.6362 11.9501L2.57565 11.6679C2.43151 10.9961 2.46249 10.3273 2.66647 9.70111V9.70013C3.31358 7.70747 5.40389 6.59045 7.40475 7.1308L7.59811 7.18842C8.51406 7.48574 9.39496 7.89574 10.2221 8.40814L11.2612 9.05267L10.9702 7.8642C10.739 6.91942 10.6216 5.95506 10.6216 4.99115C10.6216 2.83369 12.3772 1.07721 14.5346 1.07709C15.1937 1.07709 15.8393 1.25435 16.4321 1.59857L16.6831 1.74408L16.9341 1.59857C17.5277 1.25415 18.1735 1.07709 18.8325 1.07709Z" stroke="#323E40"/>
<path d="M19.3609 15.6449C19.2008 15.1525 19.4704 14.6236 19.9628 14.4636L25.3124 12.7254C25.8045 12.5654 26.3337 12.8349 26.4936 13.3273C26.6536 13.8197 26.3841 14.3486 25.8917 14.5086L20.5421 16.2468C20.0508 16.4066 19.5212 16.1382 19.3609 15.6449Z" fill="#FBD145"/>
<path d="M21.438 24.6493L18.1318 20.0987C17.8275 19.6799 17.9204 19.0936 18.3393 18.7893C18.7581 18.485 19.3444 18.5778 19.6487 18.9966L22.9549 23.5472C23.2592 23.9661 23.1663 24.5524 22.7475 24.8567C22.3304 25.1598 21.7437 25.0701 21.438 24.6493Z" fill="#FBD145"/>
<path d="M10.6248 24.8567C10.2059 24.5524 10.113 23.9662 10.4174 23.5473L13.7236 18.9967C14.0279 18.5778 14.6142 18.4849 15.033 18.7893C15.4519 19.0936 15.5448 19.6799 15.2404 20.0988L11.9342 24.6494C11.6289 25.0695 11.0423 25.1601 10.6248 24.8567Z" fill="#FBD145"/>
<path d="M12.83 16.2468L7.48052 14.5086C6.9881 14.3486 6.71867 13.8197 6.87866 13.3273C7.03859 12.8349 7.56745 12.5654 8.05994 12.7254L13.4095 14.4636C13.9019 14.6236 14.1713 15.1525 14.0113 15.6449C13.8513 16.1373 13.3223 16.4067 12.83 16.2468Z" fill="#FBD145"/>
<path d="M17.6235 7.13913V12.764C17.6235 13.2821 17.2035 13.7014 16.686 13.7014H16.6835C16.1673 13.7002 15.7486 13.2815 15.7486 12.764V7.13913C15.7486 6.62227 16.1673 6.20291 16.6835 6.20166H16.686C17.2035 6.20166 17.6235 6.62165 17.6235 7.13913Z" fill="#FBD145"/>
<path d="M16.6861 11.8265H16.6835C14.1005 11.8278 11.9987 13.9302 11.9987 16.5139C11.9987 19.0982 14.1005 21.2 16.6835 21.2013H16.6861C19.271 21.2013 21.3734 19.0988 21.3734 16.5139C21.3734 13.9296 19.271 11.8265 16.6861 11.8265Z" fill="#FBD145"/>
</g>
<defs>
<clipPath id="clip0_7_326">
<rect width="32" height="32" fill="white" transform="translate(0.681152 0.0454712)"/>
</clipPath>
</defs>
</svg>
