<svg width="49" height="49" viewBox="0 0 49 49" fill="none" xmlns="http://www.w3.org/2000/svg">
<circle cx="24.6812" cy="24.0454" r="24" fill="#95A9C8"/>
<rect x="14.6812" y="12.0454" width="20" height="24" rx="2" fill="white"/>
<rect x="34.9312" y="28.2367" width="5" height="9" transform="rotate(45 34.9312 28.2367)" fill="#0A2143" stroke="#95A9C8"/>
<path d="M39.5271 28.5905C40.1129 29.1763 40.1129 30.1261 39.5271 30.7118L38.4665 31.7725L34.9309 28.237L35.9916 27.1763C36.5774 26.5905 37.5271 26.5905 38.1129 27.1763L39.5271 28.5905Z" fill="#0A2143" stroke="#95A9C8"/>
<path d="M31.7499 37.783L31.7947 37.8348C31.8904 37.9611 31.9214 38.1266 31.8748 38.2809C31.8214 38.4573 31.6752 38.5906 31.4944 38.6268L27.9588 39.3339C27.7949 39.3667 27.6254 39.3154 27.5072 39.1972C27.389 39.079 27.3377 38.9095 27.3705 38.7456L28.0776 35.21C28.1138 35.0292 28.2471 34.883 28.4235 34.8296C28.5999 34.7764 28.7912 34.8243 28.9214 34.9546L31.7499 37.783Z" fill="#0A2143" stroke="#95A9C8" stroke-linejoin="round"/>
<circle cx="19.1812" cy="17.5454" r="1.5" fill="#0A2143"/>
<circle cx="19.1812" cy="22.5454" r="1.5" fill="#0A2143"/>
<circle cx="19.1812" cy="27.5454" r="1.5" fill="#0A2143"/>
<rect x="22.6812" y="17.0454" width="8" height="1" rx="0.5" fill="#0A2143"/>
<rect x="22.6812" y="22.0454" width="8" height="1" rx="0.5" fill="#0A2143"/>
<rect x="22.6812" y="27.0454" width="6" height="1" rx="0.5" fill="#0A2143"/>
</svg>
