<svg width="49" height="49" viewBox="0 0 49 49" fill="none" xmlns="http://www.w3.org/2000/svg">
<circle cx="24.6812" cy="24.0454" r="24" fill="#95A9C8"/>
<circle cx="24.6812" cy="24.0454" r="12" fill="white"/>
<path d="M29.1812 22.1854H26.8012C26.6212 24.1054 25.4412 25.3054 22.5012 25.4254L27.0012 31.0454H25.0012L20.5812 25.4254V24.5454H21.6012C23.8212 24.5454 24.8212 23.8054 24.9812 22.1854H20.5812V21.2454H24.9812C24.8412 19.5654 23.8812 18.9854 21.6012 18.9854H20.5812V18.0454H29.1812V18.9854H25.6412C26.3412 19.4454 26.7212 20.1854 26.8012 21.2454H29.1812V22.1854Z" fill="black"/>
<path d="M33.4478 28.5454C33.7371 28.5454 34.0283 28.6185 34.2896 28.7651C34.5657 28.9194 34.7889 29.1431 34.9458 29.4019L34.9517 29.4116L39.479 37.2583L39.5356 37.3628C39.6577 37.6069 39.7194 37.8752 39.7144 38.1509H39.7153C39.7152 38.4582 39.6216 38.7487 39.4839 38.9937C39.3355 39.2574 39.1232 39.468 38.8774 39.6187L38.8755 39.6196C38.6025 39.7851 38.2928 39.8647 37.9829 39.8647H28.9126C28.5945 39.8647 28.29 39.7753 28.0298 39.6255L28.0181 39.6187C27.7724 39.468 27.5609 39.2573 27.4126 38.9937C27.2705 38.741 27.1892 38.4603 27.1812 38.1636V38.1509C27.1812 37.8497 27.2518 37.5424 27.4165 37.2612H27.4146L31.9448 29.4116L31.9468 29.4077C32.1019 29.1441 32.3242 28.9173 32.604 28.7661V28.7651C32.6067 28.7636 32.6101 28.7627 32.6128 28.7612C32.6138 28.7607 32.6147 28.7598 32.6157 28.7593V28.7603C32.8746 28.6171 33.1619 28.5455 33.4478 28.5454Z" fill="#0A2143" stroke="#95A9C8"/>
<path d="M34.047 36.9418C34.047 36.608 33.7765 36.372 33.4427 36.372C33.1147 36.372 32.8442 36.608 32.8442 36.9418C32.8442 37.2756 33.1089 37.5116 33.4427 37.5116C33.7765 37.5116 34.047 37.2756 34.047 36.9418Z" fill="#FFFDEA"/>
<path d="M33.4485 31.9116C33.0168 31.9116 32.7118 32.2397 32.7463 32.6253H32.7521L32.9765 35.3361C32.988 35.6008 33.201 35.7965 33.4542 35.7965C33.7075 35.7965 33.9089 35.6066 33.9204 35.3361L34.1564 32.6253C34.1852 32.2397 33.8801 31.9116 33.4485 31.9116Z" fill="#FFFDEA"/>
</svg>
