<svg width="33" height="33" viewBox="0 0 33 33" fill="none" xmlns="http://www.w3.org/2000/svg">
<g clip-path="url(#clip0_7_349)">
<path d="M20.3297 11.724L19.6812 10.4275V8.04547C19.6812 3.90997 16.3167 0.545471 12.1812 0.545471C8.04565 0.545471 4.68115 3.90997 4.68115 8.04547V10.4275L4.03265 11.7245C3.80265 12.1845 3.68115 12.6995 3.68115 13.214C3.68115 15.051 5.17565 16.5455 7.01265 16.5455H10.0057C8.46915 15.801 7.37215 14.295 7.20565 12.5165V12.5455H6.68115C5.85265 12.5455 5.18115 11.874 5.18115 11.0455C5.18115 10.217 5.85265 9.54547 6.68115 9.54547H7.18115V8.68497C7.18115 7.73147 7.85415 6.91097 8.78915 6.72397L8.98415 6.68497C9.57165 7.22897 10.3527 7.54547 11.1812 7.54547H16.1812H17.1812V9.54547H17.6812C18.5097 9.54547 19.1812 10.217 19.1812 11.0455C19.1812 11.874 18.5097 12.5455 17.6812 12.5455H17.1567V12.5245C16.9877 14.3 15.8907 15.8025 14.3562 16.5455H17.3497C19.1867 16.5455 20.6812 15.051 20.6812 13.214C20.6812 12.6995 20.5597 12.1845 20.3297 11.724Z" fill="#FBD145"/>
<path d="M23.6812 6.04547H29.6812V8.04547H23.6812V6.04547Z" fill="#FBD145"/>
<path d="M11.6812 9.54547H10.6812C10.6812 9.82097 10.4567 10.0455 10.1812 10.0455C9.90565 10.0455 9.68115 9.82097 9.68115 9.54547H8.68115C8.68115 10.3725 9.35415 11.0455 10.1812 11.0455C11.0082 11.0455 11.6812 10.3725 11.6812 9.54547Z" fill="black"/>
<path d="M14.1812 11.0455C15.0082 11.0455 15.6812 10.3725 15.6812 9.54547H14.6812C14.6812 9.82097 14.4567 10.0455 14.1812 10.0455C13.9057 10.0455 13.6812 9.82097 13.6812 9.54547H12.6812C12.6812 10.3725 13.3542 11.0455 14.1812 11.0455Z" fill="black"/>
<path d="M15.1527 17.6264L14.1757 17.5719C14.1707 17.4414 14.1547 17.3129 14.1287 17.1879C15.9307 16.5059 17.2382 14.9209 17.5862 13.0454H17.6812C18.7842 13.0454 19.6812 12.1484 19.6812 11.0454C19.6812 9.94245 18.7842 9.04545 17.6812 9.04545V7.04545H16.1812C15.1382 7.04545 14.2007 6.46595 13.7337 5.53345L13.6282 5.32245L12.7337 5.76945L12.8392 5.98095C13.0442 6.39095 13.3212 6.74395 13.6427 7.04345C12.6152 7.02945 11.6947 6.45495 11.2337 5.53395L11.1282 5.32295L10.2337 5.76995L10.3392 5.98145C10.5442 6.39145 10.8212 6.74445 11.1427 7.04395C10.1152 7.02995 9.19465 6.45545 8.73365 5.53445L8.62815 5.32345L7.73365 5.77045L7.83915 5.98195C7.91915 6.14195 8.00965 6.29445 8.10915 6.43845C7.25815 6.84495 6.68115 7.70795 6.68115 8.68495V9.04545C5.57815 9.04545 4.68115 9.94245 4.68115 11.0454C4.68115 12.1484 5.57815 13.0454 6.68115 13.0454H6.77565C7.08365 14.7194 8.14965 16.1674 9.68915 16.9489L9.60715 17.6039L9.20965 17.6259C4.70765 17.8764 1.18115 21.6045 1.18115 26.1134C1.18115 29.1084 3.61815 31.5454 6.61315 31.5454H23.1812V26.1134C23.1812 21.6045 19.6547 17.8764 15.1527 17.6264ZM5.68115 11.0454C5.68115 10.4939 6.12965 10.0454 6.68115 10.0454V12.0454C6.12965 12.0454 5.68115 11.5969 5.68115 11.0454ZM18.6812 11.0454C18.6812 11.5969 18.2327 12.0454 17.6812 12.0454V10.0454C18.2327 10.0454 18.6812 10.4939 18.6812 11.0454ZM7.68115 12.0454V8.68495C7.68115 7.98645 8.16965 7.38145 8.84665 7.22595C9.49565 7.74695 10.3107 8.04545 11.1812 8.04545V7.07945C11.8542 7.68895 12.7337 8.04545 13.6812 8.04545V7.07945C14.3542 7.68895 15.2337 8.04545 16.1812 8.04545H16.6812V12.0454C16.6812 13.9474 15.4792 15.6374 13.7162 16.2764C13.5677 16.0794 13.3897 15.9034 13.1812 15.7604V14.1074C13.1812 13.2464 12.4802 12.5454 11.6187 12.5454C10.8327 12.5454 10.1662 13.1339 10.0687 13.9139L9.82315 15.8789C8.50365 15.0684 7.68115 13.6279 7.68115 12.0454ZM12.4742 19.0454H10.4352L11.0612 14.0379C11.0962 13.7569 11.3362 13.5454 11.6187 13.5454C11.9292 13.5454 12.1812 13.7974 12.1812 14.1079V16.3549L12.4577 16.4929C12.9037 16.7159 13.1812 17.1644 13.1812 17.6634V17.7964C13.1812 18.1409 13.0417 18.4784 12.7977 18.7219L12.4742 19.0454ZM2.18115 26.1134C2.18115 22.1349 5.29315 18.8454 9.26515 18.6249L9.48115 18.6129L9.16215 21.1649C8.91065 23.1774 8.07615 25.0889 6.79215 26.6499L5.62815 24.3219L4.73365 24.7694L6.07265 27.4469L5.32765 28.1919L6.03465 28.8989L6.81365 28.1199C8.64665 26.2869 9.83315 23.8609 10.1547 21.2889L10.3102 20.0454H12.1812V22.5099C12.1812 24.7199 11.5117 26.8444 10.2442 28.6549C9.41565 29.8384 8.05815 30.5454 6.61315 30.5454C4.16965 30.5454 2.18115 28.5569 2.18115 26.1134ZM22.1812 30.5454H19.1812V23.0454H18.1812V30.5454H9.74515C10.2502 30.1889 10.6997 29.7479 11.0632 29.2284C12.4487 27.2494 13.1812 24.9259 13.1812 22.5099V19.7524L13.5047 19.4289C13.7517 19.1819 13.9277 18.8859 14.0407 18.5664L15.0967 18.6249C19.0697 18.8454 22.1812 22.1349 22.1812 26.1134V30.5454Z" fill="black"/>
<path d="M14.1812 23.0455H17.1812V24.0455H14.1812V23.0455Z" fill="black"/>
<path d="M29.8612 3.54547H23.5012C22.2222 3.54547 21.1812 4.58647 21.1812 5.86547C21.1812 6.01847 21.1962 6.17197 21.2262 6.32047L21.8982 9.68047C22.1142 10.761 23.0707 11.5455 24.1727 11.5455H24.6812V12.3385C24.6812 13.004 25.2227 13.5455 25.8882 13.5455C26.2107 13.5455 26.5137 13.42 26.7417 13.192L28.3882 11.5455H29.1892C30.2917 11.5455 31.2482 10.761 31.4637 9.68097L32.1357 6.32097C32.1662 6.17147 32.1812 6.01847 32.1812 5.86547C32.1812 4.58647 31.1402 3.54547 29.8612 3.54547ZM31.1557 6.12397L30.4837 9.48447C30.3607 10.0995 29.8162 10.5455 29.1892 10.5455H27.9742L26.0347 12.485C25.9157 12.604 25.6812 12.5075 25.6812 12.3385V10.5455H24.1732C23.5462 10.5455 23.0017 10.0995 22.8792 9.48447L22.2072 6.12347C22.1897 6.03947 22.1812 5.95247 22.1812 5.86547C22.1812 5.13747 22.7732 4.54547 23.5012 4.54547H29.8612C30.5892 4.54547 31.1812 5.13747 31.1812 5.86547C31.1812 5.95247 31.1727 6.03947 31.1557 6.12397Z" fill="black"/>
<path d="M23.6812 5.54547H29.6812V6.54547H23.6812V5.54547Z" fill="black"/>
<path d="M23.6812 7.54547H29.6812V8.54547H23.6812V7.54547Z" fill="black"/>
</g>
<defs>
<clipPath id="clip0_7_349">
<rect width="32" height="32" fill="white" transform="translate(0.681152 0.0454712)"/>
</clipPath>
</defs>
</svg>
