<svg xmlns="http://www.w3.org/2000/svg" xmlns:xlink="http://www.w3.org/1999/xlink" width="534.036" height="348.115" viewBox="0 0 534.036 348.115">
  <defs>
    <clipPath id="clip-path">
      <rect id="Rectangle_4404" data-name="Rectangle 4404" width="406.072" height="323.33" transform="translate(0 0)" fill="none"/>
    </clipPath>
    <clipPath id="clip-path-2">
      <rect id="Rectangle_4405" data-name="Rectangle 4405" width="271" height="186.45" fill="none"/>
    </clipPath>
  </defs>
  <g id="Group_23929" data-name="Group 23929" transform="translate(-279 -363.842)">
    <g id="Group_23617" data-name="Group 23617" transform="translate(406.964 388.63)">
      <g id="Group_23616" data-name="Group 23616" transform="translate(0 -0.003)" clip-path="url(#clip-path)">
        <path id="Path_14778" data-name="Path 14778" d="M862.45,844.025,715.77,862.763a214.2,214.2,0,0,0,5.041,40.3H863.095c2.374-20.17,2.6-40.369-.645-59.039" transform="translate(-492.697 -580.98)" fill="#eee"/>
        <path id="Path_14779" data-name="Path 14779" d="M720.615,972.8a1.247,1.247,0,0,1-1.223-1.011,221.746,221.746,0,0,1-3.113-22.147,1.247,1.247,0,1,1,2.484-.221,219.123,219.123,0,0,0,3.078,21.9,1.248,1.248,0,0,1-1.226,1.483" transform="translate(-493.044 -652.745)" fill="#5d7183"/>
        <path id="Path_14780" data-name="Path 14780" d="M1187.821,924.019c-.043,0-.085,0-.128-.006a1.247,1.247,0,0,1-1.113-1.367,192.406,192.406,0,0,0-.154-43.883,1.246,1.246,0,0,1,2.472-.318,194.866,194.866,0,0,1,.162,44.455,1.247,1.247,0,0,1-1.239,1.12" transform="translate(-816.663 -603.923)" fill="#5d7183"/>
        <path id="Path_14781" data-name="Path 14781" d="M765.724,348.577c51.879-1.709,83.1-20,87.559-22.553,4.66-2.666,8.145-6.737,7.752-12.749-.529-8.1-3.52-16.451-5.511-24.315-7.84-30.969-25.109-58.324-38.166-87.184-4.371-9.662-10.048-20.693-11.24-31.314a169.043,169.043,0,0,1-.391-37.2c.782-7.229,2.065-14.416,2.283-21.683s-.692-14.741-4.05-21.189c-4.856-9.326-16.034-14.8-26.263-15.136-5.946-.2-11.364,1.389-16.694,3.874-9.234,4.306-14.427,16.6-17.018,25.793-2.8,9.917-3.222,20.282-4.886,30.347-1.786,10.8-3.251,21.646-5.279,32.413-3.077,16.338-7.83,32.195-12.466,48.133a289.259,289.259,0,0,0-9.743,48.932,318.7,318.7,0,0,0-1.377,50.836c.4,8.1,1.533,19.9,2.583,27.943a85.583,85.583,0,0,0,27.366,4.417Z" transform="translate(-488.588 -51.79)" fill="#fff"/>
        <path id="Path_14782" data-name="Path 14782" d="M909.521,19.273a39.205,39.205,0,0,1,5.8,29.208c-3.589,17.426-19.042,21.812-32.615,19.185-5.991-1.16-12.1-3.961-15.811-9.583-2.9-4.394-4.032-10.047-6.81-14.542-3.147-5.094-3.035-8.164-8.4-8.357-8-.286-20.295,7.225-28.45,6.067-7.164-1.018-8.912-10.528-6.77-17,5.027-15.192,18.3-19.1,30.781-21.558,14.182-2.8,29.987-4.711,44.05,1.041a40.472,40.472,0,0,1,18.228,15.542" transform="translate(-561.419 0.003)" fill="#e6bc68"/>
        <path id="Path_14783" data-name="Path 14783" d="M875.295,41.446a1.247,1.247,0,0,1-1.212-.96c-1.788-7.569,5.382-15.11,11.044-18.047,5.633-2.922,12.372-2.276,20.6,1.975A80.49,80.49,0,0,1,917.4,32.177a17.123,17.123,0,0,0,9.7,3.093c3.437.121,6.131-1.469,9.239-3.319q.511-.3,1.033-.611a1.247,1.247,0,0,1,1.261,2.151c-.343.2-.682.4-1.019.6-3.3,1.965-6.422,3.821-10.605,3.668a19.608,19.608,0,0,1-11.125-3.6,78.374,78.374,0,0,0-11.305-7.528c-7.459-3.852-13.448-4.5-18.311-1.977-4.8,2.492-11.229,9.065-9.766,15.26a1.248,1.248,0,0,1-1.214,1.534" transform="translate(-601.478 -14.211)" fill="#2a5082"/>
        <path id="Path_14784" data-name="Path 14784" d="M998.542,100.911a18.151,18.151,0,0,1-1.833-.094,15.954,15.954,0,0,1-7.555-2.6c-.555-.4-1.1-.808-1.621-1.206a28.8,28.8,0,0,0-3.678-2.509c-4.112-2.221-9.879-1.512-13.493,5.075a1.247,1.247,0,1,1-2.186-1.2c3.782-6.892,10.717-9.388,16.864-6.069a31.175,31.175,0,0,1,4,2.716c.51.387,1.038.788,1.565,1.165a13.427,13.427,0,0,0,6.356,2.15c5.772.587,10.958-2.1,14.593-7.556a1.247,1.247,0,1,1,2.075,1.383c-3.79,5.69-9.1,8.748-15.087,8.748" transform="translate(-666.333 -62.105)" fill="#2a5082"/>
        <path id="Path_14785" data-name="Path 14785" d="M1018.381,160.387a15.533,15.533,0,0,1-7.609-2.256,49.9,49.9,0,0,1-4.664-3.265,32.378,32.378,0,0,0-6.306-4.076c-1.721-.758-6.39-1.693-9.838.254a1.247,1.247,0,1,1-1.226-2.171c4.119-2.325,9.589-1.457,12.069-.364a34.732,34.732,0,0,1,6.807,4.371,47.909,47.909,0,0,0,4.428,3.105c5,2.956,8.85,2.018,10.632.317a1.247,1.247,0,1,1,1.721,1.8,8.454,8.454,0,0,1-6.015,2.281" transform="translate(-680.157 -101.463)" fill="#2a5082"/>
        <path id="Path_14786" data-name="Path 14786" d="M931.455,68.965a1.247,1.247,0,0,1-1.208-1.559c1.579-6.108,8.027-11.024,13.8-10.52a1.247,1.247,0,0,1-.217,2.484c-4.487-.394-9.918,3.817-11.17,8.66a1.248,1.248,0,0,1-1.206.935" transform="translate(-640.303 -39.131)" fill="#5d7183"/>
        <path id="Path_14787" data-name="Path 14787" d="M1014.457,25.987a1.247,1.247,0,0,1-.6-2.339,11.8,11.8,0,0,1,10.256-.478,1.247,1.247,0,1,1-.98,2.292,9.286,9.286,0,0,0-8.074.371,1.244,1.244,0,0,1-.6.155" transform="translate(-697.438 -15.296)" fill="#2a5082"/>
        <path id="Path_14788" data-name="Path 14788" d="M1037.889,197.185a12.385,12.385,0,0,1-8.263-3.251,1.247,1.247,0,0,1,1.68-1.843,9.717,9.717,0,0,0,7.847,2.508,1.247,1.247,0,1,1,.363,2.466,11.165,11.165,0,0,1-1.628.118" transform="translate(-708.458 -132)" fill="#2a5082"/>
        <path id="Path_14789" data-name="Path 14789" d="M1060.816,145.027a16.28,16.28,0,0,1-10.766-3.68,1.247,1.247,0,0,1,1.627-1.889c5.266,4.536,13.722,3.593,19,.4a1.247,1.247,0,1,1,1.289,2.134,22.151,22.151,0,0,1-11.155,3.032" transform="translate(-722.498 -95.786)" fill="#2a5082"/>
        <path id="Path_14790" data-name="Path 14790" d="M836.455,70.843a1.247,1.247,0,0,1-1.158-.785,18.691,18.691,0,0,1,.908-15.667,1.247,1.247,0,0,1,2.178,1.213,16.139,16.139,0,0,0-.771,13.53,1.247,1.247,0,0,1-1.157,1.709" transform="translate(-574.078 -36.998)" fill="#2a5082"/>
        <path id="Path_14791" data-name="Path 14791" d="M836.009,263.565a5.334,5.334,0,0,1-3.684-1.42c-2.654-2.455-2.931-7.384-1.665-10.731a1.247,1.247,0,1,1,2.332.882c-1.074,2.839-.6,6.511,1.026,8.018,1.045.966,2.521,1.011,4.388.133a6.547,6.547,0,0,0,3.517-5.714,1.247,1.247,0,0,1,2.493.035,9,9,0,0,1-4.949,7.936,8.131,8.131,0,0,1-3.459.861" transform="translate(-571.279 -172.504)" fill="#2a5082"/>
        <path id="Path_14792" data-name="Path 14792" d="M608.086,202.791c-8.291,0-16.9-3.778-23.767-10.6-7.571-7.521-12.274-17.61-13.977-29.988-1.767-12.84.131-25.178,2.036-33.268,3.146-13.366,9.782-25.208,16.2-36.659C593.83,82.9,599.261,73.21,602.694,62.8a1.247,1.247,0,0,1,2.368.78c-3.508,10.643-9,20.441-14.309,29.916-6.334,11.3-12.882,22.987-15.948,36.012-8.561,36.37,5.031,54.716,11.272,60.916,7.6,7.548,17.412,11.1,26.249,9.5,7.643-1.382,13.638-6.363,17.335-14.4a1.247,1.247,0,1,1,2.265,1.042c-3.994,8.688-10.8,14.3-19.157,15.816a26.292,26.292,0,0,1-4.683.415" transform="translate(-392.108 -42.634)" fill="#2a5082"/>
        <path id="Path_14793" data-name="Path 14793" d="M873.707,434.131a1.249,1.249,0,0,1-1.206-1.567c1.174-4.411,2.85-6.854,8.34-7.129,3.886-.192,8.929.994,12.036,4.794.939-.577,2.124-1.251,3.517-2.044,6.186-3.522,15.536-8.843,20.507-15.359a1.246,1.246,0,1,1,1.982,1.512c-5.278,6.919-14.893,12.392-21.255,16.014-1.831,1.042-3.413,1.943-4.359,2.59a1.247,1.247,0,0,1-1.748-.349c-1.991-3.056-6.143-4.894-10.554-4.667-3.745.187-4.99,1.273-6.055,5.279a1.247,1.247,0,0,1-1.2.927" transform="translate(-600.553 -283.828)" fill="#2a5082"/>
        <path id="Path_14794" data-name="Path 14794" d="M808.868,441.4a1.249,1.249,0,0,1-1.228-1.471c.578-3.161-.829-3.843-1.291-4.067-2.833-1.375-9.14.865-11.445,3.478l0,0a1.246,1.246,0,0,1-2.176-.71,64.967,64.967,0,0,0-5.176-6.076,91.334,91.334,0,0,0-8.783-7.412,1.246,1.246,0,1,1,1.484-2,93.692,93.692,0,0,1,9.024,7.615c.3.29,1.854,1.975,3.18,3.516.774.9,1.387,1.629,1.838,2.237a17.4,17.4,0,0,1,5.407-2.8c1.782-.571,5.158-1.342,7.737-.091,1.334.647,3.454,2.386,2.655,6.759a1.247,1.247,0,0,1-1.224,1.023m-16.076-2.64h0Zm.234-1.06h0m.007-.007-.007.007.007-.007" transform="translate(-535.713 -291.098)" fill="#5d7183"/>
        <path id="Path_14795" data-name="Path 14795" d="M853.085,621.067a1.247,1.247,0,0,1-1.2-.924c-6.539-24.353-8.844-52.914-6.852-84.89a447.386,447.386,0,0,1,8.1-59.981,1.247,1.247,0,0,1,2.445.486,444.925,444.925,0,0,0-8.052,59.649c-1.976,31.706.3,60,6.771,84.089a1.248,1.248,0,0,1-1.2,1.57" transform="translate(-581.195 -326.459)" fill="#2a5082"/>
        <path id="Path_14796" data-name="Path 14796" d="M883.536,391.118a1.247,1.247,0,0,1-.6-2.34q2.071-1.134,4.014-2.193c18.267-9.965,28.33-15.454,34.55-28.419a1.247,1.247,0,1,1,2.248,1.079c-6.568,13.69-16.881,19.316-35.6,29.529q-1.942,1.059-4.01,2.191a1.241,1.241,0,0,1-.6.154" transform="translate(-607.318 -246.053)" fill="#2a5082"/>
        <path id="Path_14797" data-name="Path 14797" d="M811.63,406.139a1.238,1.238,0,0,1-.66-.19c-6.976-4.369-21.488-17.351-25.521-24.492a1.246,1.246,0,1,1,2.171-1.226c3.8,6.719,18.063,19.465,24.674,23.605a1.247,1.247,0,0,1-.663,2.3" transform="translate(-540.549 -261.293)" fill="#5d7183"/>
        <path id="Path_14798" data-name="Path 14798" d="M755.693,347.493q-1.451,0-2.9-.02c-25.831-.357-42.917-5.455-43.087-5.506a1.248,1.248,0,0,1-.875-1.032c-1.121-8.592-2.211-20.386-2.592-28.042a320.889,320.889,0,0,1,1.384-51.035,291.162,291.162,0,0,1,9.785-49.143l1.008-3.463c4.222-14.482,8.587-29.457,11.43-44.553,1.289-6.843,2.369-13.842,3.413-20.611.6-3.86,1.212-7.851,1.86-11.775.569-3.443,1-6.994,1.419-10.43a132.717,132.717,0,0,1,3.5-20.053c4.92-17.448,12.336-24.087,17.692-26.584,6.229-2.9,11.707-4.17,17.262-3.99,9.672.319,21.873,5.33,27.327,15.807,3.082,5.919,4.453,13.051,4.19,21.8-.15,5-.805,10.02-1.439,14.873-.3,2.264-.6,4.607-.851,6.907a167.231,167.231,0,0,0,.391,36.925c1.008,8.981,5.413,18.517,9.3,26.93.627,1.358,1.245,2.7,1.839,4.008,3.99,8.818,8.455,17.656,12.772,26.2,9.83,19.457,19.994,39.576,25.466,61.189.524,2.068,1.1,4.127,1.72,6.307,1.685,5.971,3.428,12.144,3.825,18.232.39,5.98-2.6,10.93-8.423,13.938a206.623,206.623,0,0,1-53.2,18.828,209.839,209.839,0,0,1-42.217,4.286M711.2,339.8c3.57.971,19.286,4.884,41.722,5.184a207.435,207.435,0,0,0,44.547-4.229,204.127,204.127,0,0,0,52.5-18.588c2.831-1.462,7.514-4.909,7.08-11.56-.381-5.826-2.087-11.871-3.737-17.718-.593-2.1-1.206-4.272-1.738-6.373-5.4-21.346-15.505-41.34-25.274-60.676-4.33-8.571-8.807-17.433-12.819-26.3-.591-1.306-1.206-2.638-1.831-3.99-3.966-8.585-8.46-18.316-9.513-27.7a169.692,169.692,0,0,1-.392-37.471c.252-2.328.559-4.683.857-6.961.626-4.792,1.273-9.747,1.419-14.625.25-8.314-1.029-15.044-3.909-20.576-4.99-9.584-16.251-14.172-25.2-14.466-5.138-.173-10.265,1.025-16.126,3.758-9.313,4.343-14.239,17.528-16.346,25a130.914,130.914,0,0,0-3.421,19.678c-.421,3.461-.856,7.04-1.435,10.535-.646,3.911-1.261,7.9-1.856,11.748-1.048,6.788-2.131,13.808-3.428,20.692-2.865,15.215-7.247,30.25-11.486,44.789l-1.008,3.462a288.644,288.644,0,0,0-9.7,48.721,318.4,318.4,0,0,0-1.372,50.636c.366,7.36,1.393,18.576,2.469,27.029" transform="translate(-485.841 -49.037)" fill="#2a5082"/>
        <path id="Path_14799" data-name="Path 14799" d="M893.727,626.8a1.247,1.247,0,0,1-.77-2.228,143.955,143.955,0,0,0,30.706-33.392,154.889,154.889,0,0,0,19.623-41.531c9.317-30.971,7.93-62.474-3.905-88.705a1.247,1.247,0,0,1,2.273-1.026c12.083,26.78,13.51,58.9,4.02,90.449a157.376,157.376,0,0,1-19.939,42.2A146.435,146.435,0,0,1,894.5,626.539a1.242,1.242,0,0,1-.769.266" transform="translate(-614.334 -316.079)" fill="#2a5082"/>
        <path id="Path_14800" data-name="Path 14800" d="M880.01,567.934a3.377,3.377,0,0,1-1.217-.23,3.214,3.214,0,0,1,.383-6.094,1.247,1.247,0,0,1,.591,2.422.722.722,0,1,0,.505,1.351,1.247,1.247,0,0,1,1.141,2.217,3.057,3.057,0,0,1-1.4.333" transform="translate(-603.497 -386.556)" fill="#5d7183"/>
        <path id="Path_14801" data-name="Path 14801" d="M873.253,690.357a3.366,3.366,0,0,1-2.279-.877,3.413,3.413,0,0,1-1.06-2.688,3.1,3.1,0,0,1,1.249-2.345,1.247,1.247,0,0,1,1.466,2.017.627.627,0,0,0-.225.474.924.924,0,0,0,.263.711.9.9,0,0,0,.976.122,1.247,1.247,0,0,1,1.186,2.193,3.311,3.311,0,0,1-1.574.393" transform="translate(-598.796 -470.97)" fill="#5d7183"/>
        <path id="Path_14802" data-name="Path 14802" d="M885.3,837.012a3.469,3.469,0,0,1-2.582-1.147,3.349,3.349,0,0,1-.8-2.716,3.531,3.531,0,0,1,1.653-2.486,1.246,1.246,0,0,1,1.306,2.124,1.058,1.058,0,0,0-.493.732.842.842,0,0,0,.207.7.964.964,0,0,0,.929.273,1.247,1.247,0,0,1,.681,2.4,3.3,3.3,0,0,1-.9.123" transform="translate(-607.034 -571.654)" fill="#5d7183"/>
        <path id="Path_14803" data-name="Path 14803" d="M858.414,1031.953H660.2a1.247,1.247,0,0,1,0-2.493H858.414a1.247,1.247,0,1,1,0,2.493" transform="translate(-453.588 -708.623)" fill="#5d7183"/>
        <path id="Path_14804" data-name="Path 14804" d="M292.762,871.724c-2.945-1.633-6.793-1.725-10.163-1.746-7.789-.048-16.674.009-21.721.036-6.024-16.215-14.028-42.059-17.77-54.052-1.083-3.472-4.289-4.8-7.933-4.853-7.814-.105-82.109-.827-89.083-.479a5.6,5.6,0,0,0-5.163,6.933q1.343,5.4,2.747,10.78c2.971,11.407,6.045,22.809,9.683,34.024,1.4,4.306,2.7,8.928,4.854,12.937,2.466,4.593,8.422,4.154,12.816,4.1,0,0,64.225.045,86.894.255l38.216.355c1.33-3.089-.433-6.655-3.378-8.288m-35.947-1.713.006.006c-.018,0-.021,0-.006-.006" transform="translate(-96.893 -557.928)" fill="#eee"/>
        <path id="Path_14805" data-name="Path 14805" d="M293.389,878.506h-.012l-38.216-.354c-22.405-.208-86.241-.254-86.883-.255l-.875.014c-4.378.08-10.377.187-13.038-4.77a64.934,64.934,0,0,1-4.294-11.118q-.324-1.02-.648-2.024c-3.47-10.7-6.389-21.366-9.7-34.094-.97-3.724-1.9-7.356-2.75-10.794a6.842,6.842,0,0,1,6.31-8.478c7.058-.353,82.356.386,89.161.478,4.74.064,7.974,2.1,9.107,5.728l.614,1.967c4.55,14.6,14.019,44.965,19.8,58.841a1.246,1.246,0,1,1-2.3.958c-5.822-13.981-15.313-44.425-19.875-59.057l-.613-1.966c-1.006-3.226-4.232-3.943-6.76-3.977-6.8-.092-81.994-.832-89-.481a4.349,4.349,0,0,0-4.015,5.387c.853,3.429,1.776,7.051,2.744,10.767,3.3,12.686,6.212,23.314,9.663,33.953q.328,1.01.652,2.04a63.086,63.086,0,0,0,4.114,10.693c1.941,3.616,6.644,3.529,10.8,3.456l.905-.015c.659,0,64.506.047,86.921.255l37.308.346c.535-2.371-1.035-4.806-3.086-5.943-2.578-1.429-6-1.567-9.566-1.589-8.013-.049-13.776.038-16.545.08-.6.009-1.051.016-1.357.019-.448,0-1.626.016-1.717-1.155a1.269,1.269,0,0,1,1.091-1.336,1.253,1.253,0,0,1,.348,0h0c.255,0,.861-.009,1.6-.021,2.778-.042,8.56-.13,16.6-.081,3.906.024,7.668.187,10.76,1.9,3.7,2.05,5.419,6.386,3.918,9.871a1.247,1.247,0,0,1-1.145.754" transform="translate(-94.142 -555.176)" fill="#5d7183"/>
        <path id="Path_14806" data-name="Path 14806" d="M300.845,895.719a10.189,10.189,0,0,0,5.513,8.336,9.057,9.057,0,0,0,8.71-.309c5.87-3.828,3.665-12.971-1.986-15.776-5.96-2.957-12.743.92-12.236,7.749" transform="translate(-207.067 -610.538)" fill="#fff"/>
        <path id="Path_14807" data-name="Path 14807" d="M29.911,784.233a1.242,1.242,0,0,1-.455-.086L.792,772.907a1.246,1.246,0,1,1,.91-2.321l28.664,11.239a1.247,1.247,0,0,1-.455,2.408" transform="translate(0 -530.369)" fill="#5d7183"/>
        <path id="Path_14808" data-name="Path 14808" d="M94.929,728.957a1.24,1.24,0,0,1-.84-.326,46.306,46.306,0,0,1-13.983-24.42,1.247,1.247,0,1,1,2.439-.517,43.8,43.8,0,0,0,13.224,23.1,1.247,1.247,0,0,1-.84,2.167" transform="translate(-55.122 -483.703)" fill="#5d7183"/>
        <path id="Path_14809" data-name="Path 14809" d="M154.137,717.183a1.247,1.247,0,0,1-1.209-.945l-4.986-19.946a1.247,1.247,0,0,1,2.419-.605l4.986,19.946a1.248,1.248,0,0,1-1.21,1.549" transform="translate(-101.81 -478.222)" fill="#5d7183"/>
      </g>
    </g>
    <g id="Group_23619" data-name="Group 23619" transform="translate(279 363.842)">
      <g id="Group_23618" data-name="Group 23618" clip-path="url(#clip-path-2)">
        <path id="Path_14810" data-name="Path 14810" d="M361.33,427.383a45.408,45.408,0,0,1-11.737-7.309c-1.729-1.548-3.435-4.066-2.129-5.985,1.12-1.646,3.578-1.456,5.5-.95a44.347,44.347,0,0,1,14,6.451c-6.736-5.772-13.812-11.677-17.23-20.1-.761-1.876-1.322-4.117-.255-5.837,1.239-2,4.194-2.265,6.308-1.239s3.594,2.981,5.044,4.829a132.214,132.214,0,0,0,19.913,20.4c7.352,6.061,15.1,10.912,21.257,18.443,1.037,1.269,2.189,3.017,1.263,4.663a3.862,3.862,0,0,1-1.815,1.563c-2.154.968-4.94.986-7.258,1.127a56.7,56.7,0,0,1-16.23-.91c-4.236-.98-12.13-3.441-14.533-7.354a2.91,2.91,0,0,1,.327-3.7,3.918,3.918,0,0,1,2.777-.553,23.227,23.227,0,0,1,7.891,2.02c-4.348-1.98-8.813-3.6-13.094-5.557" transform="translate(-243.76 -275.247)" fill="#fff"/>
        <path id="Path_14811" data-name="Path 14811" d="M752.289,389.139a43.079,43.079,0,0,0,9.191-9.357c1.25-1.813,2.26-4.515.628-5.994-1.4-1.268-3.624-.544-5.286.352a42.075,42.075,0,0,0-11.466,9.071c4.923-6.825,10.131-13.847,11.4-22.379.283-1.9.3-4.091-1.067-5.439-1.588-1.564-4.373-1.153-6.092.265s-2.649,3.55-3.573,5.577a125.454,125.454,0,0,1-13.81,23.249c-5.427,7.228-11.488,13.429-15.485,21.746-.673,1.4-1.345,3.27-.124,4.581a3.662,3.662,0,0,0,2.022,1.037c2.2.412,4.774-.193,6.944-.58a53.788,53.788,0,0,0,14.761-4.459c3.687-1.849,10.416-5.878,11.759-10.022a2.761,2.761,0,0,0-1.126-3.336,3.717,3.717,0,0,0-2.684.11,22.037,22.037,0,0,0-6.825,3.622c3.567-2.8,7.322-5.288,10.833-8.044" transform="translate(-502.922 -248.952)" fill="#fff"/>
        <path id="Path_14812" data-name="Path 14812" d="M380.152,441.661c-.041,0-.082,0-.124-.006a41.847,41.847,0,0,1-5.123-.841c-10.977-2.54-14.341-6.364-15.278-7.89a4.089,4.089,0,0,1,.6-5.248,3.559,3.559,0,0,1,1.178-.619c-1.124-.472-2.247-.957-3.351-1.461a45.885,45.885,0,0,1-12.036-7.505c-3.414-3.056-3.436-5.9-2.32-7.541,1.2-1.759,3.608-2.268,6.79-1.432a45.607,45.607,0,0,1,5.325,1.755c-4.1-3.963-7.752-8.354-9.964-13.808-1.184-2.92-1.238-5.181-.163-6.912,1.286-2.073,4.571-3.269,7.839-1.682,2.282,1.109,3.816,3.067,5.3,4.96l.161.205a131.241,131.241,0,0,0,16.936,17.841,1.19,1.19,0,1,1-1.565,1.793A133.591,133.591,0,0,1,357.107,395.1l-.162-.207c-1.317-1.68-2.678-3.418-4.466-4.287-1.589-.771-3.888-.636-4.777.8-.645,1.039-.532,2.6.346,4.762,3.215,7.927,9.89,13.643,16.346,19.171l.556.476A1.19,1.19,0,0,1,363.5,417.7a42.914,42.914,0,0,0-13.62-6.277c-.995-.261-3.4-.739-4.218.468-.9,1.321.8,3.406,1.939,4.429a43.654,43.654,0,0,0,11.437,7.113c2.123.969,4.343,1.876,6.49,2.755,2.163.885,4.4,1.8,6.585,2.794l.017.008a1.19,1.19,0,0,1-.986,2.167,21.918,21.918,0,0,0-7.486-1.916,3.032,3.032,0,0,0-1.943.294,1.779,1.779,0,0,0-.059,2.148c1.913,3.117,8.376,5.565,13.787,6.817a39.448,39.448,0,0,0,4.831.793,1.19,1.19,0,0,1-.121,2.374" transform="translate(-240.973 -272.376)" fill="#5d7183"/>
        <path id="Path_14813" data-name="Path 14813" d="M772.11,406.84a1.19,1.19,0,0,1-.412-2.307,37,37,0,0,0,3.747-1.616c4.7-2.356,10.1-6.042,11.16-9.325.22-.679.052-1.633-.5-1.893a2.838,2.838,0,0,0-1.813.166,20.722,20.722,0,0,0-6.456,3.426,1.19,1.19,0,1,1-1.468-1.874c1.8-1.409,3.661-2.755,5.463-4.056,1.784-1.289,3.629-2.621,5.369-3.987a41.352,41.352,0,0,0,8.946-9.1c.814-1.182,1.9-3.447.809-4.436-1-.9-3.076.061-3.923.518a40.652,40.652,0,0,0-11.141,8.813,1.19,1.19,0,0,1-1.855-1.487l.407-.564c4.715-6.53,9.59-13.283,10.784-21.294.323-2.172.086-3.616-.726-4.416-1.115-1.1-3.227-.714-4.5.335-1.443,1.19-2.308,3.089-3.144,4.925l-.1.229a126.712,126.712,0,0,1-13.941,23.47,1.19,1.19,0,1,1-1.9-1.429,124.312,124.312,0,0,0,13.679-23.028l.1-.227c.948-2.082,1.928-4.235,3.8-5.775,2.686-2.215,6.016-1.838,7.684-.194,1.392,1.371,1.852,3.485,1.409,6.462a38.266,38.266,0,0,1-5.952,14.718,43.276,43.276,0,0,1,4.274-2.633c2.773-1.494,5.135-1.56,6.651-.186,1.415,1.282,2.041,3.939-.447,7.55a43.593,43.593,0,0,1-9.437,9.619c-.863.678-1.747,1.344-2.635,2a3.4,3.4,0,0,1,1.083.3,3.941,3.941,0,0,1,1.752,4.78c-1.579,4.873-9.168,9.12-12.357,10.719a39.273,39.273,0,0,1-3.99,1.721,1.186,1.186,0,0,1-.412.074" transform="translate(-538.567 -246.124)" fill="#5d7183"/>
        <path id="Path_14814" data-name="Path 14814" d="M552.751,479.572l-85.65,7.717L454.359,429.95l88.009,1.549Z" transform="translate(-319.176 -302.029)" fill="#ffe07b"/>
        <path id="Path_14815" data-name="Path 14815" d="M509.554,457.6a14.788,14.788,0,0,1-6.967-1.752L457.5,431.82a1.19,1.19,0,0,1,1.119-2.1l45.085,24.028a12.328,12.328,0,0,0,13.856-1.493l25.8-21.922a1.19,1.19,0,1,1,1.541,1.813l-25.8,21.923a14.721,14.721,0,0,1-9.55,3.532" transform="translate(-320.941 -301.769)" fill="#5d7183"/>
        <path id="Path_14816" data-name="Path 14816" d="M710.8,540.446a1.185,1.185,0,0,1-.722-.245l-30.262-23.154a1.19,1.19,0,1,1,1.447-1.89l30.262,23.154a1.19,1.19,0,0,1-.724,2.135" transform="translate(-477.225 -361.713)" fill="#5d7183"/>
        <path id="Path_14817" data-name="Path 14817" d="M508.724,547.805a1.19,1.19,0,0,1-.847-2.026l24.567-24.87a1.19,1.19,0,1,1,1.693,1.672l-24.566,24.87a1.186,1.186,0,0,1-.847.354" transform="translate(-356.53 -365.677)" fill="#5d7183"/>
        <path id="Path_14818" data-name="Path 14818" d="M464.29,485.669a1.19,1.19,0,0,1-1.161-.932L450.388,427.4a1.19,1.19,0,0,1,1.183-1.448L539.58,427.5a1.19,1.19,0,0,1,1.143.938L551.1,476.511a1.19,1.19,0,0,1-1.056,1.436l-85.65,7.717c-.036,0-.072.005-.108.005m-11.251-57.312L465.226,483.2l83.268-7.5-9.9-45.835Z" transform="translate(-316.367 -299.219)" fill="#5d7183"/>
        <path id="Path_14819" data-name="Path 14819" d="M868.052,302.253a1.191,1.191,0,0,1-1.113-1.61c1.01-2.681.209-5.917-2.091-8.444s-5.447-3.629-8.21-2.875a1.19,1.19,0,0,1-.627-2.3c3.632-.99,7.693.378,10.6,3.569s3.885,7.363,2.557,10.885a1.19,1.19,0,0,1-1.114.771" transform="translate(-600.711 -201.407)" fill="#5d7183"/>
        <path id="Path_14820" data-name="Path 14820" d="M856.361,238.223a1.191,1.191,0,0,1-1.138-.844,18.2,18.2,0,0,0-18.91-12.305,1.19,1.19,0,0,1-.289-2.363A20.538,20.538,0,0,1,857.5,236.686a1.19,1.19,0,0,1-1.139,1.537" transform="translate(-586.552 -156.356)" fill="#5d7183"/>
        <path id="Path_14821" data-name="Path 14821" d="M290.433,467.2a1.185,1.185,0,0,1-.538-.129,15.965,15.965,0,0,1-5-23.263,1.19,1.19,0,0,1,1.855,1.492,13.595,13.595,0,0,0,4.225,19.649,1.19,1.19,0,0,1-.54,2.251" transform="translate(-197.961 -311.453)" fill="#5d7183"/>
        <path id="Path_14822" data-name="Path 14822" d="M22.381,101.554a39.707,39.707,0,0,1-10.026-6.761c-1.463-1.408-2.873-3.663-1.671-5.3,1.031-1.4,3.174-1.159,4.841-.656a38.787,38.787,0,0,1,12.028,6.083c-5.7-5.258-11.7-10.644-14.422-18.117-.605-1.664-1.025-3.641-.037-5.11,1.146-1.705,3.738-1.847,5.552-.883s3.046,2.719,4.255,4.381a115.633,115.633,0,0,0,16.757,18.46c6.233,5.53,12.851,10.016,17.994,16.794.866,1.142,1.817,2.707.956,4.116a3.377,3.377,0,0,1-1.636,1.309c-1.913.778-4.349.7-6.38.755a49.592,49.592,0,0,1-14.156-1.31c-3.671-.991-10.493-3.392-12.468-6.889a2.545,2.545,0,0,1,.4-3.221,3.424,3.424,0,0,1,2.445-.4,20.32,20.32,0,0,1,6.833,2.015c-3.738-1.868-7.588-3.429-11.268-5.272" transform="translate(-7.187 -49.324)" fill="#fff"/>
        <path id="Path_14823" data-name="Path 14823" d="M348.67,89.431a37.68,37.68,0,0,0,8.65-7.536c1.212-1.5,2.277-3.784.954-5.184-1.134-1.2-3.123-.721-4.634-.052a36.8,36.8,0,0,0-10.614,7.131c5.885-5.669,12.8-13.51,16.81-20.64.828-1.473,1.533-3.36.607-4.774-6.022-9.194-41.8,39.854-43.942,43.547-.682,1.176-1.395,2.76-.419,3.986a3.2,3.2,0,0,0,1.693,1.041c1.892.509,4.176.156,6.095-.035a47.041,47.041,0,0,0,13.175-2.887c3.34-1.362,9.482-4.419,10.934-7.942a2.415,2.415,0,0,0-.756-2.986,3.251,3.251,0,0,0-2.348-.086,19.279,19.279,0,0,0-6.2,2.7c3.3-2.2,6.744-4.114,9.993-6.28" transform="translate(-221.705 -40.203)" fill="#fff"/>
        <path id="Path_14824" data-name="Path 14824" d="M39.147,114.666a1.194,1.194,0,0,1-.134-.007,37.624,37.624,0,0,1-5.682-1.054c-9.568-2.583-12.414-6.072-13.194-7.452a3.727,3.727,0,0,1,.727-4.761,3.158,3.158,0,0,1,.734-.408c-.854-.4-1.707-.806-2.545-1.227A40.28,40.28,0,0,1,8.735,92.79c-2.956-2.846-2.87-5.41-1.8-6.861,1.142-1.555,3.324-1.941,6.144-1.091a39.912,39.912,0,0,1,3.943,1.419,34.874,34.874,0,0,1-7.8-11.907c-.353-.969-1.427-3.92.093-6.181a5.454,5.454,0,0,1,7.1-1.27,14.227,14.227,0,0,1,4.525,4.547l.134.185A114.628,114.628,0,0,0,34.233,86.74a1.19,1.19,0,1,1-1.651,1.714A117.04,117.04,0,0,1,19.145,73.032l-.135-.186A12.278,12.278,0,0,0,15.294,69c-1.307-.694-3.229-.661-4.006.5-.568.846-.514,2.167.168,4.039,2.546,7,8.185,12.191,13.639,17.215l.472.435a1.19,1.19,0,0,1-1.521,1.827,37.4,37.4,0,0,0-11.659-5.9c-.831-.25-2.838-.731-3.538.221-.667.908.329,2.574,1.537,3.737A38.045,38.045,0,0,0,20.12,97.63c1.822.913,3.733,1.776,5.58,2.611,1.868.844,3.8,1.718,5.686,2.66h0a1.19,1.19,0,1,1-1.064,2.129,19.015,19.015,0,0,0-6.431-1.9,2.549,2.549,0,0,0-1.6.166,1.414,1.414,0,0,0-.079,1.682c1.551,2.745,7.083,5.067,11.742,6.325a35.281,35.281,0,0,0,5.325.986,1.19,1.19,0,0,1-.131,2.373" transform="translate(-4.393 -46.464)" fill="#5d7183"/>
        <path id="Path_14825" data-name="Path 14825" d="M383.151,101.091a1.19,1.19,0,0,1-.532-2.255c4.041-2.016,6.688-4.151,7.455-6.012a1.3,1.3,0,0,0-.245-1.5,2.428,2.428,0,0,0-1.483.037,17.979,17.979,0,0,0-5.814,2.529,1.19,1.19,0,1,1-1.318-1.982c1.666-1.108,3.384-2.156,5.045-3.17,1.641-1,3.339-2.038,4.947-3.109a36.03,36.03,0,0,0,8.385-7.295c.985-1.216,1.723-2.867,1.014-3.618-.743-.786-2.546-.109-3.287.219a35.412,35.412,0,0,0-10.27,6.9,1.19,1.19,0,1,1-1.651-1.714h0c3.379-3.255,11.758-11.753,16.6-20.365.625-1.112,1.245-2.629.649-3.539a1.214,1.214,0,0,0-1.034-.6c-.047,0-.095,0-.143,0-3.5,0-11.591,7.238-22.27,19.929a1.19,1.19,0,0,1-1.821-1.533c11.981-14.24,19.953-21.044,24.377-20.768a3.589,3.589,0,0,1,2.884,1.676c1,1.534.813,3.556-.566,6.009a79.516,79.516,0,0,1-8.992,12.43q.632-.307,1.276-.593c2.581-1.142,4.7-1.027,5.981.323,1.815,1.922.728,4.747-.895,6.751a38.271,38.271,0,0,1-8.914,7.777c-.7.469-1.419.928-2.138,1.38a3.034,3.034,0,0,1,.619.267,3.6,3.6,0,0,1,1.267,4.473c-1.264,3.066-5.37,5.626-8.593,7.235a1.187,1.187,0,0,1-.53.126" transform="translate(-264.9 -37.393)" fill="#5d7183"/>
        <path id="Path_14826" data-name="Path 14826" d="M190.588,156.735,115.8,161.918l-10.072-50.2,76.675,2.936Z" transform="translate(-74.273 -78.477)" fill="#ffe07b"/>
        <path id="Path_14827" data-name="Path 14827" d="M153.586,137.432a9.211,9.211,0,0,1-4.505-1.183l-41.13-23.025a1.19,1.19,0,1,1,1.163-2.077l41.13,23.024a6.788,6.788,0,0,0,7.644-.664l24.9-20.285a1.19,1.19,0,1,1,1.5,1.845l-24.9,20.285a9.177,9.177,0,0,1-5.805,2.079" transform="translate(-75.405 -77.972)" fill="#5d7183"/>
        <path id="Path_14828" data-name="Path 14828" d="M324.886,210.786a1.185,1.185,0,0,1-.739-.258l-20.109-15.948a1.19,1.19,0,1,1,1.479-1.865l20.109,15.948a1.19,1.19,0,0,1-.74,2.123" transform="translate(-213.263 -135.197)" fill="#5d7183"/>
        <path id="Path_14829" data-name="Path 14829" d="M136.772,222.54a1.19,1.19,0,0,1-.83-2.044l24.544-23.841a1.19,1.19,0,1,1,1.659,1.707L137.6,222.2a1.186,1.186,0,0,1-.829.337" transform="translate(-95.243 -137.91)" fill="#5d7183"/>
        <path id="Path_14830" data-name="Path 14830" d="M112.992,160.3a1.19,1.19,0,0,1-1.166-.956l-10.072-50.2a1.19,1.19,0,0,1,1.212-1.423l76.675,2.936a1.19,1.19,0,0,1,1.123.962l8.183,42.084a1.19,1.19,0,0,1-1.086,1.414l-74.786,5.182c-.028,0-.055,0-.083,0m-8.607-50.146,9.569,47.7,72.4-5.017-7.746-39.837Z" transform="translate(-71.463 -75.667)" fill="#5d7183"/>
        <path id="Path_14831" data-name="Path 14831" d="M469.409,15.52a1.19,1.19,0,0,1-1.163-.943A15.974,15.974,0,0,0,451.585,2.451,1.19,1.19,0,1,1,451.34.084c8.626-.893,17.433,5.517,19.234,14a1.19,1.19,0,0,1-.917,1.411,1.205,1.205,0,0,1-.248.026" transform="translate(-316.305 0)" fill="#5d7183"/>
        <path id="Path_14832" data-name="Path 14832" d="M10.287,221.59a1.2,1.2,0,0,1-.363-.057A14.818,14.818,0,0,1,.289,204.869a1.19,1.19,0,0,1,2.326.5,12.355,12.355,0,0,0,8.033,13.894,1.19,1.19,0,0,1-.362,2.324" transform="translate(0 -143.256)" fill="#5d7183"/>
      </g>
    </g>
  </g>
</svg>
