<svg xmlns="http://www.w3.org/2000/svg" xmlns:xlink="http://www.w3.org/1999/xlink" width="158" height="158" viewBox="0 0 158 158">
  <defs>
    <clipPath id="clip-path">
      <rect id="Rectangle_4392" data-name="Rectangle 4392" width="118" height="118" transform="translate(0.066)" fill="none"/>
    </clipPath>
    <clipPath id="clip-path-2">
      <rect id="Rectangle_4395" data-name="Rectangle 4395" width="34.056" height="34.662" fill="#2a5082"/>
    </clipPath>
  </defs>
  <g id="Group_23931" data-name="Group 23931" transform="translate(-105 -914)">
    <g id="Group_23930" data-name="Group 23930">
      <g id="Group_23611" data-name="Group 23611" transform="translate(0 259)">
        <g id="Group_23609" data-name="Group 23609" transform="translate(10 -602)">
          <g id="Ellipse_2558" data-name="Ellipse 2558" transform="translate(95 1257)" fill="#fff" stroke="#e8e8e8" stroke-width="3">
            <circle cx="79" cy="79" r="79" stroke="none"/>
            <circle cx="79" cy="79" r="77.5" fill="none"/>
          </g>
          <g id="Group_23598" data-name="Group 23598" transform="translate(114.934 1277.112)">
            <g id="Group_23597" data-name="Group 23597" transform="translate(0 -0.112)" clip-path="url(#clip-path)">
              <path id="Path_14757" data-name="Path 14757" d="M117.916,58.958A58.958,58.958,0,1,1,58.958,0a58.957,58.957,0,0,1,58.958,58.958" transform="translate(0 0.151)" fill="#e9eaeb"/>
              <path id="Path_14758" data-name="Path 14758" d="M98.786,82.3V46.11a7.624,7.624,0,0,0-2.809-5.762L59.971,7.933a11.326,11.326,0,0,0-15.155,0L8.809,40.348A7.624,7.624,0,0,0,6,46.11V82.3Z" transform="translate(5.598 4.839)" fill="#e9eaeb"/>
              <path id="Path_14759" data-name="Path 14759" d="M98.786,82.3V46.11a7.624,7.624,0,0,0-2.809-5.762L59.971,7.933a11.326,11.326,0,0,0-15.155,0L8.809,40.348A7.624,7.624,0,0,0,6,46.11V82.3Z" transform="translate(5.598 4.839)" fill="none" stroke="#2a5082" stroke-width="2"/>
              <rect id="Rectangle_4390" data-name="Rectangle 4390" width="66" height="63" transform="translate(25.066 23)" fill="#fff"/>
              <rect id="Rectangle_4391" data-name="Rectangle 4391" width="66" height="63" transform="translate(25.066 23)" fill="none" stroke="#2a5082" stroke-width="2"/>
              <path id="Path_14760" data-name="Path 14760" d="M96.853,28c-4.2,3.389-27.374,22.545-29.821,23.96-2.675,1.546-8.258,3.1-14.639,3.1s-11.964-1.556-14.639-3.1C35.307,50.545,12.137,31.389,7.933,28H6V74.393a5.8,5.8,0,0,0,5.8,5.8H92.987a5.8,5.8,0,0,0,5.8-5.8V28Z" transform="translate(5.598 26.276)" fill="#dfbd74"/>
              <path id="Path_14761" data-name="Path 14761" d="M96.853,28c-4.2,3.389-27.374,22.545-29.821,23.96-2.675,1.546-8.258,3.1-14.639,3.1s-11.964-1.556-14.639-3.1C35.307,50.545,12.137,31.389,7.933,28H6V74.393a5.8,5.8,0,0,0,5.8,5.8H92.987a5.8,5.8,0,0,0,5.8-5.8V28Z" transform="translate(5.598 26.276)" fill="none" stroke="#2a5082" stroke-width="2"/>
              <line id="Line_3029" data-name="Line 3029" x1="21.155" y2="22.609" transform="translate(19.331 76.127)" fill="none" stroke="#2a5082" stroke-width="2"/>
              <line id="Line_3030" data-name="Line 3030" x2="21.155" y2="22.609" transform="translate(75.443 76.127)" fill="none" stroke="#2a5082" stroke-width="2"/>
            </g>
          </g>
          <g id="Group_23604" data-name="Group 23604" transform="translate(154.651 1310.852)">
            <g id="Group_23603" data-name="Group 23603" clip-path="url(#clip-path-2)">
              <path id="Path_14771" data-name="Path 14771" d="M19.148,12.79a3.326,3.326,0,0,0-1.854-2.538h0a3.328,3.328,0,0,0-3.048.78,9.323,9.323,0,0,0-2.973,4.288l0,.006a9.33,9.33,0,0,0-.437,5.2,3.326,3.326,0,0,0,1.854,2.538h0a3.328,3.328,0,0,0,3.048-.78,9.321,9.321,0,0,0,2.973-4.288v0a9.332,9.332,0,0,0,.439-5.2m6.139-4.784L22.415,23.248a.83.83,0,0,0-.017.329c.008.031.007-.037.035-.026a2.622,2.622,0,0,0,1.01.074,6.307,6.307,0,0,0,2.171-.545,7.427,7.427,0,0,0,3.08-2.54,10.487,10.487,0,0,0,1.193-4.04,27.776,27.776,0,0,0,.269-3.494,13.127,13.127,0,0,0-.173-2.585,9.177,9.177,0,0,0-.259-.989,9.06,9.06,0,0,0-6.149-5.706,18.856,18.856,0,0,0-9.419-.439,16.649,16.649,0,0,0-1.785.466A13.082,13.082,0,0,0,5.393,8.887a15.978,15.978,0,0,0-2.488,9.057A12.744,12.744,0,0,0,4.83,24.917a14.054,14.054,0,0,0,6.112,5.121,19.665,19.665,0,0,0,8.087,1.725v-.006a14.869,14.869,0,0,0,7.878-2,26.556,26.556,0,0,0,2.856-2.436c.2-.191.393-.378.572-.555h3.721a12.444,12.444,0,0,1-2.3,2.654,28.9,28.9,0,0,1-3.3,2.777,17.756,17.756,0,0,1-9.433,2.463v-.006a22.59,22.59,0,0,1-9.29-1.986,16.924,16.924,0,0,1-7.349-6.2A15.594,15.594,0,0,1,0,17.944,18.812,18.812,0,0,1,2.988,7.275,15.951,15.951,0,0,1,11.485,1,19.5,19.5,0,0,1,13.577.45,21.838,21.838,0,0,1,24.494.98a11.842,11.842,0,0,1,7.988,7.567,12.072,12.072,0,0,1,.339,1.3,15.924,15.924,0,0,1,.23,3.2,30.873,30.873,0,0,1-.292,3.879,12.978,12.978,0,0,1-1.6,5.152,10.1,10.1,0,0,1-4.2,3.573,9.553,9.553,0,0,1-3.306.874,5.362,5.362,0,0,1-2.225-.256,2.766,2.766,0,0,1-1.828-1.948,3.593,3.593,0,0,1-.028-1.6l.061-.323A10.667,10.667,0,0,1,17.484,24.6a6.182,6.182,0,0,1-5.494,1.28h-.025l-.253-.091a6.1,6.1,0,0,1-3.695-4.592,12.244,12.244,0,0,1,.53-6.849l.029-.081,0,0A12.224,12.224,0,0,1,12.5,8.717a6.182,6.182,0,0,1,5.494-1.28h.025l.253.091a5.82,5.82,0,0,1,3.452,3.76l.619-3.282Z" transform="translate(0 0)" fill="#2a5082"/>
            </g>
          </g>
        </g>
      </g>
    </g>
  </g>
</svg>
