<svg xmlns="http://www.w3.org/2000/svg" xmlns:xlink="http://www.w3.org/1999/xlink" width="158" height="158" viewBox="0 0 158 158">
  <defs>
    <clipPath id="clip-path">
      <rect id="Rectangle_4392" data-name="Rectangle 4392" width="118" height="118" transform="translate(0.066)" fill="none"/>
    </clipPath>
  </defs>
  <g id="Group_23932" data-name="Group 23932" transform="translate(-105 -1159)">
    <g id="Group_23610" data-name="Group 23610" transform="translate(10 -366)">
      <g id="Ellipse_2568" data-name="Ellipse 2568" transform="translate(95 1525)" fill="#fff" stroke="#e8e8e8" stroke-width="3">
        <circle cx="79" cy="79" r="79" stroke="none"/>
        <circle cx="79" cy="79" r="77.5" fill="none"/>
      </g>
      <g id="Group_23599" data-name="Group 23599" transform="translate(114.934 1545.112)">
        <g id="Group_23597" data-name="Group 23597" transform="translate(0 -0.112)" clip-path="url(#clip-path)">
          <path id="Path_14757" data-name="Path 14757" d="M117.916,58.958A58.958,58.958,0,1,1,58.958,0a58.957,58.957,0,0,1,58.958,58.958" transform="translate(0 0.151)" fill="#e9eaeb"/>
          <path id="Path_14758" data-name="Path 14758" d="M98.786,82.3V46.11a7.624,7.624,0,0,0-2.809-5.762L59.971,7.933a11.326,11.326,0,0,0-15.155,0L8.809,40.348A7.624,7.624,0,0,0,6,46.11V82.3Z" transform="translate(5.598 4.839)" fill="#e9eaeb"/>
          <path id="Path_14759" data-name="Path 14759" d="M98.786,82.3V46.11a7.624,7.624,0,0,0-2.809-5.762L59.971,7.933a11.326,11.326,0,0,0-15.155,0L8.809,40.348A7.624,7.624,0,0,0,6,46.11V82.3Z" transform="translate(5.598 4.839)" fill="none" stroke="#2a5082" stroke-width="2"/>
          <rect id="Rectangle_4390" data-name="Rectangle 4390" width="66" height="63" transform="translate(25.066 23)" fill="#fff"/>
          <rect id="Rectangle_4391" data-name="Rectangle 4391" width="66" height="63" transform="translate(25.066 23)" fill="none" stroke="#2a5082" stroke-width="2"/>
          <path id="Path_14760" data-name="Path 14760" d="M96.853,28c-4.2,3.389-27.374,22.545-29.821,23.96-2.675,1.546-8.258,3.1-14.639,3.1s-11.964-1.556-14.639-3.1C35.307,50.545,12.137,31.389,7.933,28H6V74.393a5.8,5.8,0,0,0,5.8,5.8H92.987a5.8,5.8,0,0,0,5.8-5.8V28Z" transform="translate(5.598 26.276)" fill="#dfbd74"/>
          <path id="Path_14761" data-name="Path 14761" d="M96.853,28c-4.2,3.389-27.374,22.545-29.821,23.96-2.675,1.546-8.258,3.1-14.639,3.1s-11.964-1.556-14.639-3.1C35.307,50.545,12.137,31.389,7.933,28H6V74.393a5.8,5.8,0,0,0,5.8,5.8H92.987a5.8,5.8,0,0,0,5.8-5.8V28Z" transform="translate(5.598 26.276)" fill="none" stroke="#2a5082" stroke-width="2"/>
          <line id="Line_3029" data-name="Line 3029" x1="21.155" y2="22.609" transform="translate(19.331 76.127)" fill="none" stroke="#2a5082" stroke-width="2"/>
          <line id="Line_3030" data-name="Line 3030" x2="21.155" y2="22.609" transform="translate(75.443 76.127)" fill="none" stroke="#2a5082" stroke-width="2"/>
          <line id="Line_3031" data-name="Line 3031" x2="36" transform="translate(39.066 43)" fill="none" stroke="#2a5082" stroke-width="2"/>
          <line id="Line_3032" data-name="Line 3032" x2="36" transform="translate(39.066 51)" fill="none" stroke="#2a5082" stroke-width="2"/>
          <line id="Line_3033" data-name="Line 3033" x2="25" transform="translate(39.066 58)" fill="none" stroke="#2a5082" stroke-width="2"/>
        </g>
      </g>
    </g>
  </g>
</svg>
