<svg xmlns="http://www.w3.org/2000/svg" width="56" height="56" viewBox="0 0 56 56">
  <g id="Group_23613" data-name="Group 23613" transform="translate(0.074 0.309)">
    <circle id="Ellipse_2580" data-name="Ellipse 2580" cx="28" cy="28" r="28" transform="translate(-0.074 -0.309)" fill="#2a5082"/>
    <g id="Group_10676" data-name="Group 10676" transform="translate(9.881 9.881)">
      <path id="Path_8685" data-name="Path 8685" d="M1391.3,915.533c-1.847,0-3.693.024-5.539-.008a20.711,20.711,0,0,1-4.567-.436,9.054,9.054,0,0,1-5.971-4.367,10.285,10.285,0,0,1-1.266-4.019,53.723,53.723,0,0,1-.224-6.068c-.007-2.484-.005-4.967.019-7.451a28.141,28.141,0,0,1,.3-4.536,9.238,9.238,0,0,1,4.1-6.477,9.333,9.333,0,0,1,4.428-1.5c1.855-.143,3.72-.2,5.582-.227,2.71-.033,5.421-.016,8.132.012a24.84,24.84,0,0,1,4.628.35,9.1,9.1,0,0,1,6.46,4.522,10.622,10.622,0,0,1,1.286,4.4c.2,2.35.177,4.707.178,7.063,0,2.212,0,4.425-.037,6.637a20.837,20.837,0,0,1-.415,4.546,9.022,9.022,0,0,1-6.79,7.054,16.005,16.005,0,0,1-3.975.468c-2.108.039-4.217.065-6.325.1,0-.02,0-.041,0-.061m-.053-3.1c0-.023,0-.046,0-.068,1.838,0,3.676.018,5.514-.006a17.751,17.751,0,0,0,3.762-.322,5.916,5.916,0,0,0,4.763-4.684,19.3,19.3,0,0,0,.363-4.32c.034-2.882.027-5.764.018-8.646a35.58,35.58,0,0,0-.254-5.121,6.04,6.04,0,0,0-4.988-5.328,20.883,20.883,0,0,0-4.121-.316c-2.456-.033-4.913-.027-7.369-.025a52.912,52.912,0,0,0-6.039.213,6.86,6.86,0,0,0-3.115,1.078,6.082,6.082,0,0,0-2.568,4.051,20.28,20.28,0,0,0-.289,3.872c-.016,3.721,0,7.441.026,11.162a15.153,15.153,0,0,0,.3,3.259,5.887,5.887,0,0,0,4.229,4.659,11.257,11.257,0,0,0,3.084.429c2.227.05,4.454.079,6.681.116" transform="translate(-1373.727 -880.423)" fill="#fff"/>
      <path id="Path_8686" data-name="Path 8686" d="M1402.743,918.491a9.019,9.019,0,1,1,9.024-8.839,9.008,9.008,0,0,1-9.024,8.839m5.851-9a5.85,5.85,0,1,0-5.958,5.834,5.845,5.845,0,0,0,5.958-5.834" transform="translate(-1385.192 -891.901)" fill="#fff"/>
      <path id="Path_8687" data-name="Path 8687" d="M1436.076,896.793a2.106,2.106,0,1,1-4.209-.112,2.106,2.106,0,0,1,4.209.112" transform="translate(-1407.043 -888.583)" fill="#fff"/>
    </g>
  </g>
</svg>
