<svg id="Group_23321" data-name="Group 23321" xmlns="http://www.w3.org/2000/svg" xmlns:xlink="http://www.w3.org/1999/xlink" width="120" height="120" viewBox="0 0 120 120">
  <defs>
    <clipPath id="clip-path">
      <rect id="Rectangle_4305" data-name="Rectangle 4305" width="120" height="120" fill="#fafafa"/>
    </clipPath>
  </defs>
  <g id="Group_23320" data-name="Group 23320" clip-path="url(#clip-path)">
    <path id="Path_14746" data-name="Path 14746" d="M39.079,49.39V85.331H30.111V66.063a33.767,33.767,0,0,0-.2-5.017,1.864,1.864,0,0,0-1.1-1.275,11.312,11.312,0,0,0-4.008-.435h-.888V55.146A16.29,16.29,0,0,0,33.8,49.39Z" transform="translate(5.979 12.347)" fill="#fafafa"/>
    <path id="Path_14747" data-name="Path 14747" d="M59.991,61.693V73.682a28.346,28.346,0,0,1-.444,5.949,8.238,8.238,0,0,1-1.842,3.486,7.925,7.925,0,0,1-3.375,2.33,13.011,13.011,0,0,1-4.418.711,16.356,16.356,0,0,1-5.35-.746,7.32,7.32,0,0,1-3.4-2.318,9.9,9.9,0,0,1-1.8-3.321,20.693,20.693,0,0,1-.533-5.536V61.693a24.076,24.076,0,0,1,.855-7.414,7.311,7.311,0,0,1,3.4-3.953,11.994,11.994,0,0,1,6.16-1.487,12.854,12.854,0,0,1,5.284,1.035,8.77,8.77,0,0,1,3.485,2.518,8.312,8.312,0,0,1,1.565,3.353,30.5,30.5,0,0,1,.411,5.949m-8.969-3.019a13.443,13.443,0,0,0-.277-3.586,1.229,1.229,0,0,0-1.3-.72,1.288,1.288,0,0,0-1.321.764,11.756,11.756,0,0,0-.321,3.543V76.212a12.99,12.99,0,0,0,.3,3.774,1.281,1.281,0,0,0,1.3.644,1.263,1.263,0,0,0,1.309-.754,11.225,11.225,0,0,0,.311-3.4Z" transform="translate(9.709 12.21)" fill="#fafafa"/>
    <path id="Path_14748" data-name="Path 14748" d="M72.431,49.39V85.331H63.463V66.063a33.767,33.767,0,0,0-.2-5.017,1.864,1.864,0,0,0-1.1-1.275,11.312,11.312,0,0,0-4.008-.435h-.887V55.146a16.3,16.3,0,0,0,9.88-5.756Z" transform="translate(14.317 12.347)" fill="#fafafa"/>
    <path id="Path_14749" data-name="Path 14749" d="M23.494,43.045V17.306L38.807,36.791l14.8-19.485L69.411,36.791,84.758,17.306V43.045Z" transform="translate(5.874 4.327)" fill="#fafafa"/>
    <path id="Path_14750" data-name="Path 14750" d="M36.835,17.871,31.251,25l5.584,7.131L42.232,25Z" transform="translate(7.813 4.468)" fill="#fafafa"/>
    <path id="Path_14751" data-name="Path 14751" d="M61.338,17.871,55.754,25l5.584,7.131L66.736,25Z" transform="translate(13.939 4.468)" fill="#fafafa"/>
    <path id="Path_14752" data-name="Path 14752" d="M23.494,46.869V41.176H84.758v5.693Z" transform="translate(5.874 10.294)" fill="#fafafa"/>
    <path id="Path_14753" data-name="Path 14753" d="M60,120a60,60,0,1,1,60-60,60.068,60.068,0,0,1-60,60M60,5.685A54.315,54.315,0,1,0,114.315,60,54.377,54.377,0,0,0,60,5.685" fill="#fafafa"/>
  </g>
</svg>
