<svg id="Group_23316" data-name="Group 23316" xmlns="http://www.w3.org/2000/svg" xmlns:xlink="http://www.w3.org/1999/xlink" width="120" height="120" viewBox="0 0 120 120">
  <defs>
    <clipPath id="clip-path">
      <rect id="Rectangle_4300" data-name="Rectangle 4300" width="120" height="120" fill="#fafafa"/>
    </clipPath>
  </defs>
  <path id="Path_14735" data-name="Path 14735" d="M57.22,17.307l42.752,8.16L57.22,34.7,14.773,25.467Zm32.4,28.423H26.891V33.152L58.12,38.491l31.5-5.637Zm12.6-6.049-3.007-3.892,3.007-9.128,3.007,9.128Z" transform="translate(0 6.147)" fill="#fafafa"/>
  <g id="Group_23315" data-name="Group 23315">
    <g id="Group_23314" data-name="Group 23314" clip-path="url(#clip-path)">
      <path id="Path_14736" data-name="Path 14736" d="M39.238,49.39V85.331H30.27V66.063a33.767,33.767,0,0,0-.2-5.017,1.864,1.864,0,0,0-1.1-1.275,11.312,11.312,0,0,0-4.008-.435h-.887V55.146a16.29,16.29,0,0,0,9.879-5.756Z" transform="translate(6.019 12.347)" fill="#fafafa"/>
      <path id="Path_14737" data-name="Path 14737" d="M60.15,61.693V73.682a28.346,28.346,0,0,1-.444,5.949,8.238,8.238,0,0,1-1.842,3.486,7.925,7.925,0,0,1-3.375,2.33,13.011,13.011,0,0,1-4.418.711,16.356,16.356,0,0,1-5.35-.746,7.32,7.32,0,0,1-3.4-2.318,9.9,9.9,0,0,1-1.8-3.321,20.693,20.693,0,0,1-.532-5.536V61.693a24.076,24.076,0,0,1,.855-7.414,7.311,7.311,0,0,1,3.4-3.953,11.994,11.994,0,0,1,6.16-1.487,12.85,12.85,0,0,1,5.284,1.035,8.77,8.77,0,0,1,3.485,2.518,8.312,8.312,0,0,1,1.565,3.353,30.5,30.5,0,0,1,.411,5.949m-8.969-3.019a13.442,13.442,0,0,0-.278-3.586,1.229,1.229,0,0,0-1.3-.72,1.288,1.288,0,0,0-1.321.764,11.756,11.756,0,0,0-.321,3.543V76.212a12.99,12.99,0,0,0,.3,3.774,1.281,1.281,0,0,0,1.3.644,1.263,1.263,0,0,0,1.309-.754,11.224,11.224,0,0,0,.311-3.4Z" transform="translate(9.748 12.21)" fill="#fafafa"/>
      <path id="Path_14738" data-name="Path 14738" d="M72.591,49.39V85.331H63.623V66.063a33.767,33.767,0,0,0-.2-5.017,1.864,1.864,0,0,0-1.1-1.275,11.312,11.312,0,0,0-4.007-.435h-.887V55.146a16.29,16.29,0,0,0,9.879-5.756Z" transform="translate(14.357 12.347)" fill="#fafafa"/>
      <path id="Path_14739" data-name="Path 14739" d="M60,120a60,60,0,1,1,60-60,60.068,60.068,0,0,1-60,60M60,5.685A54.315,54.315,0,1,0,114.315,60,54.377,54.377,0,0,0,60,5.685" fill="#fafafa"/>
    </g>
  </g>
</svg>
