<svg xmlns="http://www.w3.org/2000/svg" xmlns:xlink="http://www.w3.org/1999/xlink" width="120" height="120" viewBox="0 0 120 120">
  <defs>
    <clipPath id="clip-path">
      <rect id="Rectangle_4308" data-name="Rectangle 4308" width="120" height="120" fill="#fafafa"/>
    </clipPath>
  </defs>
  <g id="Group_23326" data-name="Group 23326" clip-path="url(#clip-path)">
    <path id="Path_14764" data-name="Path 14764" d="M75.82,26.907l-5.029,4.9c13.189,1.784,20.238,5.709,20.238,8s-7.135,6.258-20.467,8.026c-1.433.19-2.951.347-4.526.483-3.054.26-6.341.421-9.917.421s-6.862-.161-9.916-.421c-1.575-.135-3.094-.293-4.526-.483-13.333-1.769-20.468-5.722-20.468-8.026s7.049-6.216,20.238-8l-5.029-4.9c-11.913,2.211-20.892,6.546-20.892,12.9,0,9.593,20.421,14.614,40.594,14.614s40.6-5.021,40.6-14.614c0-6.355-8.98-10.69-20.893-12.9" transform="translate(3.881 6.727)" fill="#fafafa"/>
    <path id="Path_14765" data-name="Path 14765" d="M51.453,15.144l5.335,10.81,11.93,1.734L60.085,36.1l2.038,11.881-10.67-5.61-10.67,5.61L42.82,36.1l-8.633-8.415,11.93-1.734Z" transform="translate(8.547 3.786)" fill="#fafafa"/>
    <path id="Path_14766" data-name="Path 14766" d="M43.066,81.5v6.127H23.331l.006-5.129Q32.1,68.16,33.759,64.752a13.417,13.417,0,0,0,1.655-5.315,3.88,3.88,0,0,0-.5-2.189,1.729,1.729,0,0,0-1.523-.72,1.676,1.676,0,0,0-1.524.8,6.732,6.732,0,0,0-.5,3.174v3.419H23.331v-1.31a28.448,28.448,0,0,1,.31-4.76,8.367,8.367,0,0,1,1.532-3.431,7.661,7.661,0,0,1,3.174-2.552A11.505,11.505,0,0,1,33.032,51q5.349,0,8.091,2.651a8.949,8.949,0,0,1,2.741,6.717A15.963,15.963,0,0,1,42.322,66.9Q40.779,70.335,33.231,81.5Z" transform="translate(5.833 12.75)" fill="#fafafa"/>
    <path id="Path_14767" data-name="Path 14767" d="M63.064,63.855V75.843a28.346,28.346,0,0,1-.444,5.949,8.238,8.238,0,0,1-1.842,3.486,7.932,7.932,0,0,1-3.375,2.33,13.011,13.011,0,0,1-4.418.711,16.357,16.357,0,0,1-5.35-.746,7.33,7.33,0,0,1-3.4-2.318,9.921,9.921,0,0,1-1.8-3.321,20.7,20.7,0,0,1-.531-5.536V63.855a24.122,24.122,0,0,1,.854-7.414,7.314,7.314,0,0,1,3.4-3.952A11.992,11.992,0,0,1,52.318,51,12.856,12.856,0,0,1,57.6,52.036a8.77,8.77,0,0,1,3.485,2.518,8.312,8.312,0,0,1,1.565,3.353,30.5,30.5,0,0,1,.411,5.949M54.1,60.836a13.5,13.5,0,0,0-.278-3.586,1.229,1.229,0,0,0-1.3-.72,1.287,1.287,0,0,0-1.32.764,11.756,11.756,0,0,0-.321,3.543V78.373a12.99,12.99,0,0,0,.3,3.774,1.28,1.28,0,0,0,1.3.644,1.264,1.264,0,0,0,1.31-.754,11.225,11.225,0,0,0,.311-3.4Z" transform="translate(10.477 12.75)" fill="#fafafa"/>
    <path id="Path_14768" data-name="Path 14768" d="M75.5,51.552V87.493H66.536V68.225a33.766,33.766,0,0,0-.2-5.018,1.864,1.864,0,0,0-1.1-1.275,11.312,11.312,0,0,0-4.008-.435h-.887V57.308a16.29,16.29,0,0,0,9.879-5.756Z" transform="translate(15.085 12.888)" fill="#fafafa"/>
    <path id="Path_14769" data-name="Path 14769" d="M60,120a60,60,0,1,1,60-60,60.068,60.068,0,0,1-60,60M60,5.685A54.315,54.315,0,1,0,114.315,60,54.377,54.377,0,0,0,60,5.685" fill="#fafafa"/>
  </g>
</svg>
