<svg id="Group_23323" data-name="Group 23323" xmlns="http://www.w3.org/2000/svg" xmlns:xlink="http://www.w3.org/1999/xlink" width="120" height="120" viewBox="0 0 120 120">
  <defs>
    <clipPath id="clip-path">
      <rect id="Rectangle_4306" data-name="Rectangle 4306" width="120" height="120" fill="#fafafa"/>
    </clipPath>
  </defs>
  <g id="Group_23322" data-name="Group 23322" clip-path="url(#clip-path)">
    <path id="Path_14754" data-name="Path 14754" d="M87.915,35.7a5.79,5.79,0,1,0,4.232,9.739c-1.93,2.7-6.685,6.688-17.062,3.635A29.532,29.532,0,0,1,58.174,35.647a5.791,5.791,0,1,0-5.114,0A29.513,29.513,0,0,1,36.151,49.071c-10.347,3.044-15.1-.912-17.042-3.612a5.788,5.788,0,1,0-1.579-3.971,4.856,4.856,0,0,0,.692,2.506L30.043,82.62H49.884c1.983-2.43,2.894-6.94,3.311-10.135a8.6,8.6,0,0,1-6.744,3.259,6.791,6.791,0,0,1-7.164-7.133C39.323,60.2,51.923,54.122,55.62,47.463c3.7,6.66,16.3,12.779,16.334,21.194a6.853,6.853,0,0,1-7.162,7.2,8.474,8.474,0,0,1-6.849-3.276,35.479,35.479,0,0,0,.889,4.478c.544,2.1,1.329,4.346,2.456,5.561H81.2L93.028,43.964a5.284,5.284,0,0,0,.677-2.6,5.688,5.688,0,0,0-5.79-5.669" transform="translate(4.383 6.165)" fill="#fafafa"/>
    <path id="Path_14755" data-name="Path 14755" d="M60,120a60,60,0,1,1,60-60,60.068,60.068,0,0,1-60,60M60,5.685A54.315,54.315,0,1,0,114.315,60,54.377,54.377,0,0,0,60,5.685" fill="#fafafa"/>
  </g>
</svg>
