<svg id="Group_23313" data-name="Group 23313" xmlns="http://www.w3.org/2000/svg" xmlns:xlink="http://www.w3.org/1999/xlink" width="120" height="120" viewBox="0 0 120 120">
  <defs>
    <clipPath id="clip-path">
      <rect id="Rectangle_4299" data-name="Rectangle 4299" width="120" height="120" fill="#fafafa"/>
    </clipPath>
  </defs>
  <g id="Group_23312" data-name="Group 23312" clip-path="url(#clip-path)">
    <path id="Path_14729" data-name="Path 14729" d="M75.82,26.906l-5.029,4.9c13.189,1.784,20.238,5.709,20.238,8s-7.135,6.257-20.467,8.026c-1.433.19-2.951.347-4.526.483-3.054.26-6.341.421-9.917.421s-6.862-.161-9.916-.421c-1.575-.135-3.094-.292-4.526-.483-13.333-1.769-20.468-5.722-20.468-8.026s7.049-6.216,20.238-8l-5.029-4.9c-11.913,2.211-20.892,6.546-20.892,12.9,0,9.592,20.421,14.614,40.594,14.614s40.6-5.021,40.6-14.614c0-6.355-8.98-10.69-20.893-12.9" transform="translate(3.881 6.727)" fill="#fafafa"/>
    <path id="Path_14730" data-name="Path 14730" d="M51.453,15.144l5.335,10.81,11.93,1.734L60.085,36.1l2.038,11.881-10.67-5.61-10.67,5.61L42.82,36.1l-8.633-8.415,11.93-1.734Z" transform="translate(8.547 3.786)" fill="#fafafa"/>
    <path id="Path_14731" data-name="Path 14731" d="M38.986,51.553V87.494H30.017V68.225a33.767,33.767,0,0,0-.2-5.017,1.864,1.864,0,0,0-1.1-1.275,11.312,11.312,0,0,0-4.007-.435h-.888V57.309A16.29,16.29,0,0,0,33.7,51.553Z" transform="translate(5.956 12.888)" fill="#fafafa"/>
    <path id="Path_14732" data-name="Path 14732" d="M59.9,63.856V75.843a28.338,28.338,0,0,1-.444,5.949,8.25,8.25,0,0,1-1.842,3.488,7.922,7.922,0,0,1-3.375,2.329,13.011,13.011,0,0,1-4.417.711,16.357,16.357,0,0,1-5.35-.746,7.311,7.311,0,0,1-3.4-2.318,9.887,9.887,0,0,1-1.8-3.321,20.693,20.693,0,0,1-.532-5.536V63.856a24.065,24.065,0,0,1,.855-7.414,7.314,7.314,0,0,1,3.4-3.954A11.994,11.994,0,0,1,49.152,51a12.854,12.854,0,0,1,5.284,1.035,8.77,8.77,0,0,1,3.485,2.518,8.319,8.319,0,0,1,1.565,3.353,30.51,30.51,0,0,1,.411,5.95m-8.969-3.02a13.442,13.442,0,0,0-.278-3.586,1.23,1.23,0,0,0-1.3-.72,1.288,1.288,0,0,0-1.321.764,11.756,11.756,0,0,0-.321,3.543V78.373a12.99,12.99,0,0,0,.3,3.774,1.281,1.281,0,0,0,1.3.644,1.263,1.263,0,0,0,1.309-.754,11.219,11.219,0,0,0,.311-3.4Z" transform="translate(9.685 12.75)" fill="#fafafa"/>
    <path id="Path_14733" data-name="Path 14733" d="M72.339,51.553V87.494H63.37V68.225a33.768,33.768,0,0,0-.2-5.017,1.864,1.864,0,0,0-1.1-1.275,11.312,11.312,0,0,0-4.007-.435h-.887V57.309a16.29,16.29,0,0,0,9.879-5.756Z" transform="translate(14.294 12.888)" fill="#fafafa"/>
    <path id="Path_14734" data-name="Path 14734" d="M60,120a60,60,0,1,1,60-60,60.068,60.068,0,0,1-60,60M60,5.685A54.315,54.315,0,1,0,114.315,60,54.377,54.377,0,0,0,60,5.685" fill="#fafafa"/>
  </g>
</svg>
