<svg id="Group_23334" data-name="Group 23334" xmlns="http://www.w3.org/2000/svg" xmlns:xlink="http://www.w3.org/1999/xlink" width="120" height="120" viewBox="0 0 120 120">
  <defs>
    <clipPath id="clip-path">
      <rect id="Rectangle_4314" data-name="Rectangle 4314" width="120" height="120" fill="#fafafa"/>
    </clipPath>
  </defs>
  <g id="Group_23333" data-name="Group 23333" clip-path="url(#clip-path)">
    <path id="Path_14784" data-name="Path 14784" d="M60,120a60,60,0,1,1,60-60,60.068,60.068,0,0,1-60,60M60,5.685A54.315,54.315,0,1,0,114.315,60,54.377,54.377,0,0,0,60,5.685" fill="#fafafa"/>
    <path id="Path_14785" data-name="Path 14785" d="M42.782,79.341v6.128H23.047l.006-5.129Q31.821,66,33.475,62.59a13.417,13.417,0,0,0,1.655-5.315,3.891,3.891,0,0,0-.5-2.189,1.733,1.733,0,0,0-1.524-.72,1.676,1.676,0,0,0-1.524.8,6.732,6.732,0,0,0-.5,3.174v3.419H23.047v-1.31a28.448,28.448,0,0,1,.31-4.76,8.367,8.367,0,0,1,1.533-3.431,7.661,7.661,0,0,1,3.174-2.552,11.505,11.505,0,0,1,4.685-.866q5.349,0,8.091,2.651a8.949,8.949,0,0,1,2.741,6.717,15.963,15.963,0,0,1-1.542,6.526Q40.5,68.173,32.947,79.341Z" transform="translate(5.762 12.21)" fill="#fafafa"/>
    <path id="Path_14786" data-name="Path 14786" d="M62.78,61.692V73.68a28.346,28.346,0,0,1-.444,5.949,8.238,8.238,0,0,1-1.842,3.486,7.925,7.925,0,0,1-3.375,2.33,13.011,13.011,0,0,1-4.418.711,16.357,16.357,0,0,1-5.35-.746,7.32,7.32,0,0,1-3.4-2.318,9.9,9.9,0,0,1-1.8-3.321,20.693,20.693,0,0,1-.533-5.536V61.692a24.076,24.076,0,0,1,.855-7.414,7.311,7.311,0,0,1,3.4-3.952,11.994,11.994,0,0,1,6.16-1.487,12.854,12.854,0,0,1,5.284,1.035A8.77,8.77,0,0,1,60.8,52.39a8.312,8.312,0,0,1,1.565,3.353,30.5,30.5,0,0,1,.411,5.949m-8.969-3.019a13.443,13.443,0,0,0-.277-3.586,1.229,1.229,0,0,0-1.3-.72,1.288,1.288,0,0,0-1.321.764,11.756,11.756,0,0,0-.321,3.542V76.21a12.99,12.99,0,0,0,.3,3.774,1.281,1.281,0,0,0,1.3.644,1.263,1.263,0,0,0,1.309-.754,11.225,11.225,0,0,0,.311-3.4Z" transform="translate(10.406 12.21)" fill="#fafafa"/>
    <path id="Path_14787" data-name="Path 14787" d="M75.221,49.389V85.33H66.252V66.062a33.765,33.765,0,0,0-.2-5.018,1.864,1.864,0,0,0-1.1-1.275,11.312,11.312,0,0,0-4.008-.435h-.888V55.145a16.29,16.29,0,0,0,9.879-5.756Z" transform="translate(15.015 12.347)" fill="#fafafa"/>
    <path id="Path_14788" data-name="Path 14788" d="M23.941,43.046V17.307L39.254,36.792l14.8-19.485L69.858,36.792,85.205,17.307V43.046Z" transform="translate(5.985 4.327)" fill="#fafafa"/>
    <path id="Path_14789" data-name="Path 14789" d="M37.282,17.871,31.7,25l5.584,7.131L42.68,25Z" transform="translate(7.925 4.468)" fill="#fafafa"/>
    <path id="Path_14790" data-name="Path 14790" d="M61.785,17.871,56.2,25l5.584,7.131L67.183,25Z" transform="translate(14.05 4.468)" fill="#fafafa"/>
    <path id="Path_14791" data-name="Path 14791" d="M23.941,46.869V41.177H85.205v5.693Z" transform="translate(5.985 10.294)" fill="#fafafa"/>
  </g>
</svg>
