<svg xmlns="http://www.w3.org/2000/svg" xmlns:xlink="http://www.w3.org/1999/xlink" width="120" height="120" viewBox="0 0 120 120">
  <defs>
    <clipPath id="clip-path">
      <rect id="Rectangle_4287" data-name="Rectangle 4287" width="120" height="120" fill="#fff" stroke="rgba(0,0,0,0)" stroke-width="1"/>
    </clipPath>
  </defs>
  <g id="Group_23645" data-name="Group 23645" transform="translate(13947.5 -13659.819)">
    <path id="Path_14649" data-name="Path 14649" d="M44.089,27.322H12.745l2.584-11.052H46.673Z" transform="translate(-13933.038 13677.725)" fill="#fff" stroke="rgba(0,0,0,0)" stroke-width="1"/>
    <path id="Path_14650" data-name="Path 14650" d="M63.437,27.322H32.093l2.584-11.052H66.021Z" transform="translate(-13909.821 13677.725)" fill="#fff" stroke="rgba(0,0,0,0)" stroke-width="1"/>
    <path id="Path_14651" data-name="Path 14651" d="M41.853,36.886H10.508l2.584-11.052H44.437Z" transform="translate(-13935.575 13688.253)" fill="#fff" stroke="rgba(0,0,0,0)" stroke-width="1"/>
    <g id="Group_23292" data-name="Group 23292" transform="translate(-13947.5 13659.819)" clip-path="url(#clip-path)">
      <path id="Path_14652" data-name="Path 14652" d="M62.9,37.487H29.856L32.58,25.834H58.948c3.689,0,5.879,3.428,4.891,7.654Z" transform="translate(32.515 28.134)" fill="#fff" stroke="rgba(0,0,0,0)" stroke-width="1"/>
      <path id="Path_14653" data-name="Path 14653" d="M53.942,47.248H27.574L30.3,35.6H63.345l-.934,4c-.99,4.226-4.78,7.652-8.469,7.652" transform="translate(30.03 38.765)" fill="#fff" stroke="rgba(0,0,0,0)" stroke-width="1"/>
      <path id="Path_14654" data-name="Path 14654" d="M25.887,25.834,18.394,57.878H8.226L15.72,25.834Z" transform="translate(8.959 28.134)" fill="#fff" stroke="rgba(0,0,0,0)" stroke-width="1"/>
      <path id="Path_14655" data-name="Path 14655" d="M54.4,33.487,50.484,50.225c-.988,4.226-4.78,7.652-8.469,7.652H38.526l7.491-32.042h3.491c3.687,0,5.877,3.426,4.888,7.652" transform="translate(41.957 28.135)" fill="#fff" stroke="rgba(0,0,0,0)" stroke-width="1"/>
      <path id="Path_14656" data-name="Path 14656" d="M60,120a60,60,0,1,1,60-60,60.067,60.067,0,0,1-60,60M60,5.684A54.316,54.316,0,1,0,114.316,60,54.377,54.377,0,0,0,60,5.684" transform="translate(0 -0.001)" fill="#fff" stroke="rgba(0,0,0,0)" stroke-width="1"/>
      <path id="Path_14657" data-name="Path 14657" d="M60,120a60,60,0,1,1,60-60,60.067,60.067,0,0,1-60,60M60,5.684A54.316,54.316,0,1,0,114.316,60,54.377,54.377,0,0,0,60,5.684" transform="translate(0 -0.001)" fill="#fff" stroke="rgba(0,0,0,0)" stroke-width="1"/>
    </g>
  </g>
</svg>
