<svg xmlns="http://www.w3.org/2000/svg" width="119.019" height="119.02" viewBox="0 0 119.019 119.02">
  <g id="Group_23649" data-name="Group 23649" transform="translate(13936.936 -14445.325)">
    <path id="Path_14673" data-name="Path 14673" d="M65.256,17.332l-3.182,3.1c8.344,1.127,12.8,3.611,12.8,5.06s-4.514,3.96-12.949,5.078c-.906.119-1.867.22-2.864.3-1.931.165-4.011.267-6.273.267s-4.342-.1-6.273-.267c-1-.085-1.958-.186-2.864-.3C35.219,29.453,30.7,26.952,30.7,25.494s4.46-3.933,12.8-5.06l-3.182-3.1c-7.537,1.4-13.218,4.142-13.218,8.162,0,6.069,12.919,9.246,25.683,9.246s25.681-3.177,25.681-9.246c0-4.02-5.68-6.763-13.217-8.162" transform="translate(-13928.207 14449.801)" fill="#fafafa" stroke="rgba(0,0,0,0)" stroke-width="1"/>
    <path id="Path_14674" data-name="Path 14674" d="M50.038,9.766,53.413,16.6l7.547,1.1L55.5,23.026l1.29,7.516-6.75-3.549-6.75,3.549,1.29-7.516L39.115,17.7l7.547-1.1Z" transform="translate(-13925.462 14448.065)" fill="#fafafa" stroke="rgba(0,0,0,0)" stroke-width="1"/>
    <path id="Path_14675" data-name="Path 14675" d="M71.531,32.833H33.882a6.362,6.362,0,0,0-6.4,6.319V88.743a6.362,6.362,0,0,0,6.4,6.319H71.531a6.364,6.364,0,0,0,6.406-6.319V39.152a6.363,6.363,0,0,0-6.406-6.319m.8,56.7H33.083V38.417H72.33Z" transform="translate(-13928.124 14453.355)" fill="#fafafa" stroke="rgba(0,0,0,0)" stroke-width="1"/>
    <path id="Path_14676" data-name="Path 14676" d="M61.856,73.937l-.05.293v0c-.5,1.486-4.82,2.647-10.076,2.647-.418,0-.827-.01-1.233-.025a11.536,11.536,0,0,0,5.6-5.44c3.4-.473,5.755-1.479,5.755-2.646l-.05,5.463a.9.9,0,0,0,.05-.289m0-6.261-.05.293v0c-.334.987-2.355,1.832-5.22,2.287a11.05,11.05,0,0,0,.644-3.7,11.221,11.221,0,0,0-.124-1.57c2.85-.519,4.75-1.436,4.75-2.485l-.05,5.463a.912.912,0,0,0,.05-.29m0-6.26-.05.293v0c-.321.95-2.209,1.765-4.9,2.231a11.24,11.24,0,0,0-2.573-4.86c4.329-.333,7.524-1.474,7.524-2.834l-.05,5.462a.9.9,0,0,0,.05-.289m0-6.26-.05.291v0c-.451,1.335-3.991,2.4-8.518,2.607A11.709,11.709,0,0,0,41.876,55.82a1.068,1.068,0,0,1-.272-.664V49.982c0,1.622,4.534,2.936,10.126,2.936S61.856,51.6,61.856,49.982l-.05,5.463a.91.91,0,0,0,.05-.289M51.73,51.925c-5.592,0-10.126-1.314-10.126-2.936a.958.958,0,0,1,.132-.471,1.739,1.739,0,0,1,.4-.47c1.35-1.161,5.138-2,9.594-2s8.24.835,9.594,2a1.739,1.739,0,0,1,.4.47.958.958,0,0,1,.132.471c0,1.622-4.534,2.936-10.126,2.936" transform="translate(-13924.8 14456.388)" fill="#eab744" stroke="rgba(0,0,0,0)" stroke-width="1"/>
    <path id="Path_14677" data-name="Path 14677" d="M61.324,48.048c-1.354-1.161-5.136-2-9.594-2s-8.243.835-9.593,2a1.7,1.7,0,0,0-.4.471.94.94,0,0,0-.132.47c0,1.622,4.534,2.936,10.125,2.936s10.126-1.314,10.126-2.936a.953.953,0,0,0-.132-.47,1.724,1.724,0,0,0-.4-.471" transform="translate(-13924.8 14456.388)" fill="#fafafa" stroke="rgba(0,0,0,0)" stroke-width="1"/>
    <path id="Path_14678" data-name="Path 14678" d="M51.73,52.185c-5.592,0-10.126-1.314-10.126-2.936v5.173a1.069,1.069,0,0,0,.272.665A11.709,11.709,0,0,1,53.288,57.32c4.528-.2,8.067-1.272,8.518-2.607l.05-5.463c0,1.622-4.534,2.936-10.126,2.936" transform="translate(-13924.8 14457.121)" fill="#fafafa" stroke="rgba(0,0,0,0)" stroke-width="1"/>
    <path id="Path_14679" data-name="Path 14679" d="M58.087,53.457a.9.9,0,0,1-.05.289v0Z" transform="translate(-13920.707 14458.086)" fill="#eab744" stroke="rgba(0,0,0,0)" stroke-width="1"/>
    <path id="Path_14680" data-name="Path 14680" d="M58.087,58.55a.9.9,0,0,1-.05.289v0Z" transform="translate(-13920.707 14459.254)" fill="#eab744" stroke="rgba(0,0,0,0)" stroke-width="1"/>
    <path id="Path_14681" data-name="Path 14681" d="M51.958,57.176a11.24,11.24,0,0,1,2.573,4.86c2.691-.466,4.579-1.281,4.9-2.231l.05-5.462c0,1.36-3.2,2.5-7.524,2.834" transform="translate(-13922.207 14458.289)" fill="#fafafa" stroke="rgba(0,0,0,0)" stroke-width="1"/>
    <path id="Path_14682" data-name="Path 14682" d="M58.087,63.642a.9.9,0,0,1-.05.289v0Z" transform="translate(-13920.707 14460.422)" fill="#eab744" stroke="rgba(0,0,0,0)" stroke-width="1"/>
    <path id="Path_14683" data-name="Path 14683" d="M54.311,61.919a10.643,10.643,0,0,1-.519,5.265c2.863-.455,4.884-1.3,5.219-2.287l.05-5.463c0,1.047-1.9,1.965-4.75,2.485" transform="translate(-13921.753 14459.457)" fill="#fafafa" stroke="rgba(0,0,0,0)" stroke-width="1"/>
    <path id="Path_14684" data-name="Path 14684" d="M58.087,68.734a.9.9,0,0,1-.05.289v0Z" transform="translate(-13920.707 14461.59)" fill="#eab744" stroke="rgba(0,0,0,0)" stroke-width="1"/>
    <path id="Path_14685" data-name="Path 14685" d="M54.444,67.17a11.543,11.543,0,0,1-5.6,5.441c.4.014.815.023,1.233.023,5.254,0,9.573-1.161,10.075-2.647l.05-5.462c0,1.167-2.353,2.171-5.753,2.644" transform="translate(-13922.983 14460.625)" fill="#fafafa" stroke="rgba(0,0,0,0)" stroke-width="1"/>
    <path id="Path_14686" data-name="Path 14686" d="M46.826,54.4A10.249,10.249,0,1,0,57.3,64.644,10.362,10.362,0,0,0,46.826,54.4m5.844,13.359a3.212,3.212,0,0,1-3.85-1.065,15.868,15.868,0,0,0-1.372-1.341c-.516,2.13.133,3.887,2.04,6.185H44.027c1.8-1.381,2.529-3.473,2.312-6.1A6.361,6.361,0,0,0,44.9,66.648a2.862,2.862,0,0,1-3.6,1.133,2.783,2.783,0,0,1-1.837-3.249A2.945,2.945,0,0,1,42.7,62.281,3.488,3.488,0,0,1,45.018,63.8a11.791,11.791,0,0,0,1.124.982l.27-.28a1.94,1.94,0,0,0-.987-1.735,2.7,2.7,0,0,1-1.4-3.352,3.222,3.222,0,0,1,2.753-2.038,3.276,3.276,0,0,1,2.9,2.228,2.718,2.718,0,0,1-1.3,3.132c-.82.418-.96,1.044-1.159,1.824a1.373,1.373,0,0,0,1.528-.713,2.835,2.835,0,0,1,3.017-1.564,3.019,3.019,0,0,1,2.47,2.343,3.16,3.16,0,0,1-1.563,3.13" transform="translate(-13926.256 14458.302)" fill="#fafafa" stroke="rgba(0,0,0,0)" stroke-width="1"/>
    <path id="Path_14687" data-name="Path 14687" d="M59.009,118.019a59.009,59.009,0,1,1,59.009-59.009,59.077,59.077,0,0,1-59.009,59.009m0-112.428a53.418,53.418,0,1,0,53.418,53.418A53.479,53.479,0,0,0,59.009,5.591" transform="translate(-13936.436 14445.825)" fill="#fafafa" stroke="rgba(0,0,0,0)" stroke-width="1"/>
    <rect id="Rectangle_4292" data-name="Rectangle 4292" width="118.019" height="118.019" transform="translate(-13936.436 14445.825)" fill="none" stroke="rgba(0,0,0,0)" stroke-width="1"/>
  </g>
</svg>
