<svg xmlns="http://www.w3.org/2000/svg" xmlns:xlink="http://www.w3.org/1999/xlink" width="120" height="120" viewBox="0 0 120 120">
  <defs>
    <clipPath id="clip-path">
      <rect id="Rectangle_4298" data-name="Rectangle 4298" width="120" height="120" fill="#fafafa"/>
    </clipPath>
  </defs>
  <g id="Group_23310" data-name="Group 23310" clip-path="url(#clip-path)">
    <path id="Path_14713" data-name="Path 14713" d="M51.9,52.024c5.686,0,10.3-1.336,10.3-2.985a.974.974,0,0,0-.134-.479,1.768,1.768,0,0,0-.408-.477c-1.376-1.18-5.224-2.029-9.755-2.029s-8.383.849-9.755,2.029a1.768,1.768,0,0,0-.408.477.974.974,0,0,0-.134.479c0,1.649,4.61,2.985,10.3,2.985" transform="translate(10.401 11.514)" fill="#fafafa"/>
    <path id="Path_14714" data-name="Path 14714" d="M51.9,52.234c-5.686,0-10.3-1.336-10.3-2.985v5.26a1.087,1.087,0,0,0,.276.676,11.906,11.906,0,0,1,11.6,2.27c4.6-.206,8.2-1.294,8.661-2.651l.051-5.555c0,1.649-4.61,2.985-10.3,2.985" transform="translate(10.401 12.312)" fill="#fafafa"/>
    <path id="Path_14715" data-name="Path 14715" d="M58.088,53.457a.92.92,0,0,1-.051.294v0Z" transform="translate(14.509 13.364)" fill="#fafafa"/>
    <path id="Path_14716" data-name="Path 14716" d="M58.088,58.55a.919.919,0,0,1-.051.294v0Z" transform="translate(14.509 14.637)" fill="#fafafa"/>
    <path id="Path_14717" data-name="Path 14717" d="M59.557,59.9l.051-5.555c0,1.384-3.249,2.544-7.65,2.882a11.418,11.418,0,0,1,2.616,4.94c2.736-.472,4.656-1.3,4.982-2.268" transform="translate(12.99 13.585)" fill="#fafafa"/>
    <path id="Path_14718" data-name="Path 14718" d="M58.088,63.642a.919.919,0,0,1-.051.294v0Z" transform="translate(14.509 15.91)" fill="#fafafa"/>
    <path id="Path_14719" data-name="Path 14719" d="M53.792,67.313c2.911-.463,4.967-1.32,5.306-2.325l.051-5.555c0,1.066-1.932,2-4.83,2.526a10.822,10.822,0,0,1-.528,5.354" transform="translate(13.448 14.858)" fill="#fafafa"/>
    <path id="Path_14720" data-name="Path 14720" d="M58.088,68.734a.919.919,0,0,1-.051.294v0Z" transform="translate(14.509 17.184)" fill="#fafafa"/>
    <path id="Path_14721" data-name="Path 14721" d="M48.839,72.747c.411.015.827.024,1.252.024,5.344,0,9.735-1.18,10.245-2.69l.051-5.555c0,1.186-2.394,2.207-5.85,2.689a11.737,11.737,0,0,1-5.7,5.532" transform="translate(12.21 16.132)" fill="#fafafa"/>
    <path id="Path_14722" data-name="Path 14722" d="M47,54.4A10.422,10.422,0,1,0,57.654,64.815,10.537,10.537,0,0,0,47,54.4m3.622,14.747a3.255,3.255,0,0,1-3.119-1.32c-.364,1.41,1.909,4.577,1.909,4.577H44.422s2.461-3.168,2.1-4.577a3.3,3.3,0,0,1-3.13,1.353c-3.205-.661-4.225-3.486-2.084-5.927,1.838-2.1,3.844-4.08,5.681-6.019,1.837,1.939,3.875,3.909,5.712,6.006,2.14,2.443,1.132,5.246-2.073,5.908" transform="translate(9.088 13.599)" fill="#fafafa"/>
    <path id="Path_14723" data-name="Path 14723" d="M32.236,29.105V12.548l9.85,12.535,9.52-12.535L61.773,25.083l9.873-12.535V29.105Z" transform="translate(8.059 3.137)" fill="#fafafa"/>
    <path id="Path_14724" data-name="Path 14724" d="M40.818,12.911,37.225,17.5l3.592,4.586L44.289,17.5Z" transform="translate(9.306 3.228)" fill="#fafafa"/>
    <path id="Path_14725" data-name="Path 14725" d="M56.58,12.911,52.988,17.5l3.592,4.586L60.051,17.5Z" transform="translate(13.247 3.228)" fill="#fafafa"/>
    <path id="Path_14726" data-name="Path 14726" d="M32.236,31.565V27.9h39.41v3.662Z" transform="translate(8.059 6.976)" fill="#fafafa"/>
    <path id="Path_14727" data-name="Path 14727" d="M72.271,32.833H33.989a6.469,6.469,0,0,0-6.512,6.425V89.682a6.469,6.469,0,0,0,6.512,6.425H72.271a6.47,6.47,0,0,0,6.514-6.425V39.258a6.47,6.47,0,0,0-6.514-6.425m.813,57.656H33.177V38.51H73.083Z" transform="translate(6.869 8.208)" fill="#fafafa"/>
    <path id="Path_14728" data-name="Path 14728" d="M60,120a60,60,0,1,1,60-60,60.068,60.068,0,0,1-60,60M60,5.685A54.315,54.315,0,1,0,114.315,60,54.377,54.377,0,0,0,60,5.685" fill="#fafafa"/>
  </g>
</svg>
