<svg id="Group_23659" data-name="Group 23659" xmlns="http://www.w3.org/2000/svg" xmlns:xlink="http://www.w3.org/1999/xlink" width="120" height="120" viewBox="0 0 120 120">
  <defs>
    <clipPath id="clip-path">
      <rect id="Rectangle_4293" data-name="Rectangle 4293" width="120" height="120" fill="#fafafa"/>
    </clipPath>
  </defs>
  <g id="Group_23306" data-name="Group 23306" clip-path="url(#clip-path)">
    <path id="Path_14688" data-name="Path 14688" d="M62.2,74.405l-.051.3v0c-.51,1.511-4.9,2.691-10.245,2.691-.425,0-.841-.01-1.254-.025a11.729,11.729,0,0,0,5.7-5.531c3.457-.481,5.851-1.5,5.851-2.69L62.145,74.7a.92.92,0,0,0,.051-.294m0-6.366-.051.3v0c-.34,1-2.4,1.863-5.307,2.325a11.236,11.236,0,0,0,.655-3.757,11.411,11.411,0,0,0-.126-1.6c2.9-.527,4.83-1.46,4.83-2.526l-.051,5.555a.927.927,0,0,0,.051-.3m0-6.365-.051.3v0c-.326.966-2.246,1.8-4.983,2.269A11.428,11.428,0,0,0,54.547,59.3c4.4-.339,7.65-1.5,7.65-2.881l-.051,5.554a.919.919,0,0,0,.051-.294m0-6.365-.051.3v0c-.459,1.357-4.058,2.445-8.661,2.651a11.906,11.906,0,0,0-11.6-2.27,1.086,1.086,0,0,1-.276-.675V50.048c0,1.649,4.61,2.985,10.3,2.985S62.2,51.7,62.2,50.048L62.145,55.6a.925.925,0,0,0,.051-.294M51.9,52.024c-5.686,0-10.3-1.336-10.3-2.985a.974.974,0,0,1,.134-.479,1.768,1.768,0,0,1,.407-.478c1.373-1.18,5.224-2.029,9.755-2.029s8.379.849,9.755,2.029a1.767,1.767,0,0,1,.408.478.974.974,0,0,1,.134.479c0,1.649-4.61,2.985-10.3,2.985" transform="translate(10.401 11.513)" fill="#fafafa"/>
    <path id="Path_14689" data-name="Path 14689" d="M61.655,48.082c-1.376-1.18-5.222-2.029-9.755-2.029s-8.381.849-9.754,2.029a1.732,1.732,0,0,0-.407.479.956.956,0,0,0-.134.478c0,1.649,4.61,2.985,10.3,2.985s10.3-1.336,10.3-2.985a.969.969,0,0,0-.134-.478,1.753,1.753,0,0,0-.408-.479" transform="translate(10.401 11.513)" fill="#fafafa"/>
    <path id="Path_14690" data-name="Path 14690" d="M51.9,52.234c-5.686,0-10.3-1.336-10.3-2.985v5.26a1.087,1.087,0,0,0,.276.676,11.906,11.906,0,0,1,11.6,2.27c4.6-.206,8.2-1.294,8.661-2.651l.051-5.555c0,1.649-4.61,2.985-10.3,2.985" transform="translate(10.401 12.312)" fill="#fafafa"/>
    <path id="Path_14691" data-name="Path 14691" d="M51.958,57.223a11.428,11.428,0,0,1,2.616,4.941c2.736-.474,4.656-1.3,4.983-2.269l.051-5.554c0,1.383-3.249,2.543-7.65,2.881" transform="translate(12.989 13.585)" fill="#fafafa"/>
    <path id="Path_14692" data-name="Path 14692" d="M54.32,61.96a10.822,10.822,0,0,1-.528,5.354c2.911-.462,4.966-1.321,5.306-2.325l.051-5.555c0,1.065-1.932,2-4.83,2.526" transform="translate(13.448 14.858)" fill="#fafafa"/>
    <path id="Path_14693" data-name="Path 14693" d="M54.538,67.215a11.737,11.737,0,0,1-5.7,5.533c.411.014.829.024,1.254.024,5.343,0,9.734-1.18,10.244-2.691l.051-5.554c0,1.186-2.393,2.208-5.85,2.689" transform="translate(12.21 16.132)" fill="#fafafa"/>
    <path id="Path_14694" data-name="Path 14694" d="M57.655,64.816A10.654,10.654,0,1,0,47,75.235,10.536,10.536,0,0,0,57.655,64.816m-3.221,0A22.7,22.7,0,0,0,47,72.09a22.714,22.714,0,0,0-7.43-7.272c0,.01-.011.048,0,0-.009-.049,0-.011,0,0A22.722,22.722,0,0,0,47,57.542a22.71,22.71,0,0,0,7.43,7.271c0-.009.01-.046,0,0s0,.011,0,0" transform="translate(9.088 13.599)" fill="#fafafa"/>
    <path id="Path_14695" data-name="Path 14695" d="M51.7,12.548l25.256,6.561L51.7,26.537,26.626,19.109ZM70.84,35.4H33.785V25.289l18.449,4.292L70.84,25.049Zm7.446-4.864-1.776-3.13,1.776-7.34,1.776,7.34Z" transform="translate(6.656 3.137)" fill="#fafafa"/>
    <path id="Path_14696" data-name="Path 14696" d="M71.794,32.833H33.513A6.469,6.469,0,0,0,27,39.258V89.682a6.469,6.469,0,0,0,6.513,6.425H71.794a6.47,6.47,0,0,0,6.514-6.425V39.258a6.47,6.47,0,0,0-6.514-6.425m.813,57.656H32.7V38.51H72.606Z" transform="translate(6.75 8.208)" fill="#fafafa"/>
    <path id="Path_14697" data-name="Path 14697" d="M60,120a60,60,0,1,1,60-60,60.068,60.068,0,0,1-60,60M60,5.685A54.315,54.315,0,1,0,114.315,60,54.377,54.377,0,0,0,60,5.685" fill="#fafafa"/>
  </g>
</svg>
