<svg xmlns="http://www.w3.org/2000/svg" xmlns:xlink="http://www.w3.org/1999/xlink" width="120" height="120" viewBox="0 0 120 120">
  <defs>
    <clipPath id="clip-path">
      <rect id="Rectangle_4288" data-name="Rectangle 4288" width="120" height="120" fill="#fafafa" stroke="rgba(0,0,0,0)" stroke-width="1"/>
    </clipPath>
  </defs>
  <g id="Group_23646" data-name="Group 23646" transform="translate(13947.5 -13818.408)">
    <path id="Path_14658" data-name="Path 14658" d="M79.626,15.39H25.6L6.063,34.811l46.545,48.48,46.553-48.46ZM52.318,73.62l-37.2-39.057,13.239-13.2H76.867l12.661,13.2Z" transform="translate(-13941.104 13835.875)" fill="#fafafa" stroke="rgba(0,0,0,0)" stroke-width="1"/>
    <g id="Group_23295" data-name="Group 23295" transform="translate(-13947.5 13818.408)" clip-path="url(#clip-path)">
      <path id="Path_14659" data-name="Path 14659" d="M20.6,35.207h7.291V29.132H45.511c-.432,1.214-1.065,1.477-1.893,2.76-1.406,2.183-2.854,4.456-4.3,6.942a64.218,64.218,0,0,0-3.737,8.158,35.419,35.419,0,0,0-2.434,8.941l-.326,2.361h9.794s1.644-8.567,2.839-11.44,2.2-6.3,4.527-10.381l4.642-7.625V20.625H20.6Z" transform="translate(22.436 22.461)" fill="#fafafa" stroke="rgba(0,0,0,0)" stroke-width="1"/>
      <path id="Path_14660" data-name="Path 14660" d="M60,120a60,60,0,1,1,60-60,60.067,60.067,0,0,1-60,60M60,5.684A54.316,54.316,0,1,0,114.316,60,54.377,54.377,0,0,0,60,5.684" transform="translate(0 -0.001)" fill="#fafafa" stroke="rgba(0,0,0,0)" stroke-width="1"/>
    </g>
  </g>
</svg>
