<svg xmlns="http://www.w3.org/2000/svg" width="121" height="121" viewBox="0 0 121 121">
  <g id="Group_23648" data-name="Group 23648" transform="translate(13936.936 -14291.655)">
    <path id="Path_14669" data-name="Path 14669" d="M55,21.47S25.983,52.965,22.509,61.285C20.015,67.258,20.8,80.358,36.239,82.507c12.889,1.8,13.823-7.171,13.89-9.16,0-.1.005-.2.005-.3,0,.066-.005.082-.005.215,0,14.208-12.168,15.894-12.168,15.894H72.337S60.154,86.574,60.154,73.712l0-.2c0,.065,0,.2.005.268.186,2.5,1.947,10.381,13.855,8.724,15.442-2.149,16.1-15.239,13.641-21.229C84.363,53.251,55,21.47,55,21.47M46.743,71.921H39.356V49.761H36.813l3.12-7.386h6.81ZM72.594,49.175V67.887a4.055,4.055,0,0,1-4.112,4.034H51.667V65.765H66.44V59.61H51.667V53.455H66.44V48.53H51.667V42.375H68.482c2.264,0,4.112,2.571,4.112,4.834Z" transform="translate(-13931.521 14297.079)" fill="#fafafa" stroke="rgba(0,0,0,0)" stroke-width="1"/>
    <path id="Path_14670" data-name="Path 14670" d="M88.194,37.977H66.981l11.956,14.34h9l-7.264-7.042Z" transform="translate(-13919.092 14301.758)" fill="#fafafa" stroke="rgba(0,0,0,0)" stroke-width="1"/>
    <path id="Path_14671" data-name="Path 14671" d="M11.763,37.977l7.521,7.3L12.02,52.318h9l11.956-14.34Z" transform="translate(-13933.737 14301.758)" fill="#fafafa" stroke="rgba(0,0,0,0)" stroke-width="1"/>
    <path id="Path_14672" data-name="Path 14672" d="M60,120a60,60,0,1,1,60-60,60.068,60.068,0,0,1-60,60M60,5.685A54.315,54.315,0,1,0,114.315,60,54.377,54.377,0,0,0,60,5.685" transform="translate(-13936.436 14292.155)" fill="#fafafa" stroke="rgba(0,0,0,0)" stroke-width="1"/>
    <rect id="Rectangle_4291" data-name="Rectangle 4291" width="120" height="120" transform="translate(-13936.436 14292.155)" fill="none" stroke="rgba(0,0,0,0)" stroke-width="1"/>
  </g>
</svg>
