<svg id="Group_23318" data-name="Group 23318" xmlns="http://www.w3.org/2000/svg" xmlns:xlink="http://www.w3.org/1999/xlink" width="120" height="120" viewBox="0 0 120 120">
  <defs>
    <clipPath id="clip-path">
      <rect id="Rectangle_4304" data-name="Rectangle 4304" width="120" height="120" fill="#fafafa"/>
    </clipPath>
  </defs>
  <g id="Group_23317" data-name="Group 23317" clip-path="url(#clip-path)">
    <path id="Path_14740" data-name="Path 14740" d="M58.125,33.681l-13.8-.052c-5.99-1.739-9.213-5.946-9.578-12.5a2.608,2.608,0,0,1,.706-1.929,2.531,2.531,0,0,1,1.855-.8H65.322a2.535,2.535,0,0,1,1.855.8,2.612,2.612,0,0,1,.705,1.929c-.364,6.555-3.588,10.762-9.578,12.5ZM44.888,31.015H57.741c4.738-1.438,7.184-4.722,7.481-10.033l-7.287.082H37.307c.4,5.23,2.844,8.512,7.581,9.95" transform="translate(8.685 4.6)" fill="#fafafa"/>
    <path id="Path_14741" data-name="Path 14741" d="M60.875,16.528c.046,12.495-3.116,20.4-10.729,23.092-7.612-2.7-10.775-10.6-10.729-23.092Z" transform="translate(9.854 4.132)" fill="#fafafa"/>
    <rect id="Rectangle_4303" data-name="Rectangle 4303" width="4.701" height="12.341" transform="translate(57.649 34.668)" fill="#fafafa"/>
    <path id="Path_14742" data-name="Path 14742" d="M40.382,50.168V86.109H31.414V66.84a33.767,33.767,0,0,0-.2-5.018,1.864,1.864,0,0,0-1.1-1.275,11.312,11.312,0,0,0-4.007-.435H25.22V55.924A16.29,16.29,0,0,0,35.1,50.168Z" transform="translate(6.305 12.542)" fill="#fafafa"/>
    <path id="Path_14743" data-name="Path 14743" d="M61.294,62.471V74.459a28.346,28.346,0,0,1-.444,5.949,8.235,8.235,0,0,1-1.841,3.486,7.932,7.932,0,0,1-3.375,2.33,13.019,13.019,0,0,1-4.419.711,16.348,16.348,0,0,1-5.349-.746,7.313,7.313,0,0,1-3.4-2.317,9.88,9.88,0,0,1-1.8-3.321,20.757,20.757,0,0,1-.531-5.536V62.471a24.076,24.076,0,0,1,.855-7.414,7.311,7.311,0,0,1,3.4-3.952,11.992,11.992,0,0,1,6.159-1.487,12.849,12.849,0,0,1,5.284,1.035,8.752,8.752,0,0,1,3.485,2.517,8.33,8.33,0,0,1,1.566,3.353,30.62,30.62,0,0,1,.41,5.949m-8.967-3.019a13.5,13.5,0,0,0-.278-3.586,1.229,1.229,0,0,0-1.3-.72,1.29,1.29,0,0,0-1.321.764,11.8,11.8,0,0,0-.321,3.542V76.99a12.97,12.97,0,0,0,.3,3.774,1.28,1.28,0,0,0,1.3.644,1.262,1.262,0,0,0,1.309-.754,11.21,11.21,0,0,0,.313-3.4Z" transform="translate(10.035 12.404)" fill="#fafafa"/>
    <path id="Path_14744" data-name="Path 14744" d="M73.736,50.168V86.109H64.767V66.84a33.767,33.767,0,0,0-.2-5.018,1.864,1.864,0,0,0-1.1-1.275,11.312,11.312,0,0,0-4.007-.435h-.887V55.924a16.29,16.29,0,0,0,9.879-5.756Z" transform="translate(14.643 12.542)" fill="#fafafa"/>
    <path id="Path_14745" data-name="Path 14745" d="M60,120a60,60,0,1,1,60-60,60.068,60.068,0,0,1-60,60M60,5.685A54.315,54.315,0,1,0,114.315,60,54.377,54.377,0,0,0,60,5.685" fill="#fafafa"/>
  </g>
</svg>
