<svg id="Group_23325" data-name="Group 23325" xmlns="http://www.w3.org/2000/svg" xmlns:xlink="http://www.w3.org/1999/xlink" width="120" height="120" viewBox="0 0 120 120">
  <defs>
    <clipPath id="clip-path">
      <rect id="Rectangle_4307" data-name="Rectangle 4307" width="120" height="120" fill="#fafafa"/>
    </clipPath>
  </defs>
  <g id="Group_23324" data-name="Group 23324" clip-path="url(#clip-path)">
    <path id="Path_14756" data-name="Path 14756" d="M59.322,43.474V60.348a3.656,3.656,0,0,1-3.707,3.637H40.451V58.434H53.772v-5.55H40.451v-5.55H53.772V42.893H40.451v-5.55H55.615c2.041,0,3.707,2.317,3.707,4.359Z" transform="translate(10.113 9.336)" fill="#fafafa"/>
    <path id="Path_14757" data-name="Path 14757" d="M52.859,85.539l-12.476-7.2V68.361l-11.2-7.469a2.749,2.749,0,0,1,3.049-4.575l13.654,9.1v9.743l6.979,4.029,8.354-4.824a2.749,2.749,0,0,1,2.749,4.762Z" transform="translate(6.988 13.964)" fill="#fafafa"/>
    <path id="Path_14758" data-name="Path 14758" d="M48.43,76.061a2.749,2.749,0,0,1-1.3-5.17L60.95,63.466,70.6,69.039l6.652-3.985V55.379a2.749,2.749,0,1,1,5.5,0V68.17l-12.1,7.247-9.8-5.659L49.728,75.734a2.731,2.731,0,0,1-1.3.327" transform="translate(11.42 13.158)" fill="#fafafa"/>
    <path id="Path_14759" data-name="Path 14759" d="M60,120a60,60,0,1,1,60-60,60.068,60.068,0,0,1-60,60M60,5.685A54.315,54.315,0,1,0,114.315,60,54.377,54.377,0,0,0,60,5.685" fill="#fafafa"/>
    <path id="Path_14760" data-name="Path 14760" d="M49.511,17.545l12.476,7.2v9.972l11.2,7.469a2.749,2.749,0,0,1-3.049,4.575l-13.654-9.1V27.923l-6.979-4.029-8.354,4.824a2.749,2.749,0,0,1-2.749-4.762Z" transform="translate(9.259 4.386)" fill="#fafafa"/>
    <path id="Path_14761" data-name="Path 14761" d="M54.74,26.02a2.749,2.749,0,0,1,1.3,5.17L42.22,38.615l-9.654-5.573-6.653,3.985V46.7a2.749,2.749,0,0,1-5.5,0V33.911l12.1-7.248,9.8,5.659,11.126-5.975a2.731,2.731,0,0,1,1.3-.327" transform="translate(5.104 6.505)" fill="#fafafa"/>
    <path id="Path_14762" data-name="Path 14762" d="M33.695,35.392a2.75,2.75,0,0,1,2.749,2.749V52.808l-10.08,5.616v8l8.67,4.83a2.749,2.749,0,0,1-2.677,4.8l-11.49-6.4V55.195l10.08-5.615V38.141a2.75,2.75,0,0,1,2.749-2.749" transform="translate(5.216 8.848)" fill="#fafafa"/>
    <path id="Path_14763" data-name="Path 14763" d="M65.626,68.923a2.75,2.75,0,0,1-2.749-2.749V51.507l10.08-5.616v-8l-8.67-4.83a2.749,2.749,0,0,1,2.678-4.8l11.49,6.4V49.121l-10.08,5.615V66.175a2.75,2.75,0,0,1-2.749,2.749" transform="translate(15.719 6.977)" fill="#fafafa"/>
  </g>
</svg>
