<svg id="Group_23332" data-name="Group 23332" xmlns="http://www.w3.org/2000/svg" xmlns:xlink="http://www.w3.org/1999/xlink" width="120" height="120" viewBox="0 0 120 120">
  <defs>
    <clipPath id="clip-path">
      <rect id="Rectangle_4313" data-name="Rectangle 4313" width="120" height="120" fill="#fafafa"/>
    </clipPath>
  </defs>
  <rect id="Rectangle_4310" data-name="Rectangle 4310" width="18.916" height="4.452" transform="translate(51.544 47.125)" fill="#fafafa"/>
  <rect id="Rectangle_4311" data-name="Rectangle 4311" width="46.03" height="4.452" transform="translate(38.116 52.556)" fill="#fafafa"/>
  <g id="Group_23331" data-name="Group 23331">
    <g id="Group_23330" data-name="Group 23330" clip-path="url(#clip-path)">
      <path id="Path_14778" data-name="Path 14778" d="M58.889,33.681l-13.8-.052c-5.99-1.739-9.213-5.946-9.578-12.5a2.608,2.608,0,0,1,.706-1.929,2.531,2.531,0,0,1,1.855-.8H66.086a2.535,2.535,0,0,1,1.855.8,2.612,2.612,0,0,1,.705,1.929c-.364,6.555-3.588,10.762-9.578,12.5ZM45.652,31.015H58.5c4.738-1.438,7.184-4.722,7.481-10.033l-7.288.082H38.071c.4,5.23,2.844,8.512,7.581,9.95" transform="translate(8.876 4.6)" fill="#fafafa"/>
      <path id="Path_14779" data-name="Path 14779" d="M61.639,16.529c.046,12.5-3.117,20.4-10.73,23.092-7.611-2.7-10.775-10.6-10.729-23.092Z" transform="translate(10.045 4.132)" fill="#fafafa"/>
      <rect id="Rectangle_4312" data-name="Rectangle 4312" width="4.701" height="12.341" transform="translate(58.604 34.669)" fill="#fafafa"/>
      <path id="Path_14780" data-name="Path 14780" d="M43.165,80.119v6.128H23.43l.006-5.129Q32.2,66.776,33.857,63.368a13.417,13.417,0,0,0,1.655-5.315,3.88,3.88,0,0,0-.5-2.189,1.729,1.729,0,0,0-1.523-.72,1.676,1.676,0,0,0-1.524.8,6.732,6.732,0,0,0-.5,3.174v3.419H23.43v-1.31a28.448,28.448,0,0,1,.31-4.76,8.367,8.367,0,0,1,1.532-3.431,7.661,7.661,0,0,1,3.174-2.553,11.505,11.505,0,0,1,4.685-.866q5.349,0,8.091,2.651a8.949,8.949,0,0,1,2.741,6.717,15.963,15.963,0,0,1-1.542,6.526q-1.543,3.439-9.091,14.607Z" transform="translate(5.858 12.404)" fill="#fafafa"/>
      <path id="Path_14781" data-name="Path 14781" d="M63.162,62.471V74.459a28.346,28.346,0,0,1-.444,5.949,8.238,8.238,0,0,1-1.842,3.486,7.925,7.925,0,0,1-3.375,2.33,13.011,13.011,0,0,1-4.418.711,16.357,16.357,0,0,1-5.35-.746,7.32,7.32,0,0,1-3.4-2.317,9.9,9.9,0,0,1-1.8-3.321,20.693,20.693,0,0,1-.533-5.536V62.471a24.076,24.076,0,0,1,.855-7.414,7.311,7.311,0,0,1,3.4-3.952,11.994,11.994,0,0,1,6.16-1.487A12.849,12.849,0,0,1,57.7,50.652a8.77,8.77,0,0,1,3.485,2.517,8.312,8.312,0,0,1,1.565,3.353,30.5,30.5,0,0,1,.411,5.949m-8.969-3.019a13.443,13.443,0,0,0-.277-3.586,1.229,1.229,0,0,0-1.3-.72,1.288,1.288,0,0,0-1.321.764,11.756,11.756,0,0,0-.321,3.542V76.99a12.99,12.99,0,0,0,.3,3.774,1.281,1.281,0,0,0,1.3.644,1.263,1.263,0,0,0,1.309-.754,11.225,11.225,0,0,0,.311-3.4Z" transform="translate(10.502 12.404)" fill="#fafafa"/>
      <path id="Path_14782" data-name="Path 14782" d="M75.6,50.167V86.108H66.635V66.841a33.741,33.741,0,0,0-.2-5.018,1.862,1.862,0,0,0-1.1-1.275,11.282,11.282,0,0,0-4.007-.435h-.887v-4.19a16.278,16.278,0,0,0,9.879-5.756Z" transform="translate(15.11 12.542)" fill="#fafafa"/>
      <path id="Path_14783" data-name="Path 14783" d="M60,120a60,60,0,1,1,60-60,60.068,60.068,0,0,1-60,60M60,5.685A54.315,54.315,0,1,0,114.315,60,54.377,54.377,0,0,0,60,5.685" fill="#fafafa"/>
    </g>
  </g>
</svg>
