<svg xmlns="http://www.w3.org/2000/svg" width="121" height="121" viewBox="0 0 121 121">
  <g id="Group_23647" data-name="Group 23647" transform="translate(13948 -14150.278)">
    <path id="Path_14665" data-name="Path 14665" d="M74.41,35.4c-6.141-4.267-15.6-4.5-21.473,6.057C47.068,30.9,37.613,31.135,31.472,35.4c-6.421,4.461-9.4,14.149-2.223,22.49,8.083,9.394,16.641,18.427,23.687,26.3,7.045-7.878,15.615-16.911,23.7-26.3,7.176-8.341,4.2-18.029-2.225-22.49M49.275,68.348H43.3V50.423H40.273l2.99-5.975h6.012Zm14.34,0H57.641V50.423H53.575l2.991-5.975h7.049Z" transform="translate(-13940.767 14159.464)" fill="#fafafa" stroke="rgba(0,0,0,0)" stroke-width="1"/>
    <path id="Path_14666" data-name="Path 14666" d="M84.068,43.526s5.516-3.936,4.439-7.805c-1.138-4.095-7.931.773-15.575,5.241a15.539,15.539,0,0,1,1.281,4.546,16.439,16.439,0,0,1-4.152,12.748c-2.278,2.648-4.579,5.23-6.868,7.76,9.555,3.409,16.82-1.974,18.74-6.162,1.238-2.7-4.1-3.21-8.051-3.234A24.493,24.493,0,0,0,84.83,52.532c7.293-5.012-.762-9.006-.762-9.006" transform="translate(-13931.024 14159.597)" fill="#fafafa" stroke="rgba(0,0,0,0)" stroke-width="1"/>
    <path id="Path_14667" data-name="Path 14667" d="M25.888,45.506a15.577,15.577,0,0,1,1.417-4.844c-7.568-4.38-13.951-8.946-15.063-4.942-1.077,3.868,4.439,7.805,4.439,7.805s-8.055,3.993-.762,9.006A24.522,24.522,0,0,0,26.866,56.62c-3.954.023-9.289.537-8.051,3.234C20.7,63.969,27.64,69.23,37.054,66.18c-2.336-2.583-4.688-5.22-7.015-7.924a16.443,16.443,0,0,1-4.152-12.75" transform="translate(-13944.725 14159.597)" fill="#fafafa" stroke="rgba(0,0,0,0)" stroke-width="1"/>
    <path id="Path_14668" data-name="Path 14668" d="M60,120a60,60,0,1,1,60-60,60.068,60.068,0,0,1-60,60M60,5.685A54.315,54.315,0,1,0,114.315,60,54.377,54.377,0,0,0,60,5.685" transform="translate(-13947.5 14150.778)" fill="#fafafa" stroke="rgba(0,0,0,0)" stroke-width="1"/>
    <rect id="Rectangle_4290" data-name="Rectangle 4290" width="120" height="120" transform="translate(-13947.5 14150.778)" fill="none" stroke="rgba(0,0,0,0)" stroke-width="1"/>
  </g>
</svg>
