<?xml version="1.0" encoding="UTF-8"?>
<svg id="Layer_2" data-name="Layer 2" xmlns="http://www.w3.org/2000/svg" viewBox="0 0 90.24 90.24">
  <defs>
    <style>
      .cls-1 {
        fill: #ba271a;
      }

      .cls-1, .cls-2 {
        stroke-width: 0px;
      }

      .cls-2 {
        fill: #fff;
      }
    </style>
  </defs>
  <g id="Layer_1-2" data-name="Layer 1">
    <g>
      <path id="Path_8578" data-name="Path 8578" class="cls-1" d="M90.24,45.12c0,24.92-20.2,45.12-45.12,45.12C20.2,90.24,0,70.04,0,45.12,0,20.2,20.2,0,45.12,0c24.92,0,45.12,20.2,45.12,45.12h0"/>
      <path id="Path_8579" data-name="Path 8579" class="cls-2" d="M24.98,42.7v-3.7c1.2-.02,2.41-.14,3.59-.34,1.01-.2,1.94-.71,2.66-1.45.51-.57.87-1.24,1.07-1.98.11-.36.19-.73.21-1.11h4.54v27.64h-5.57v-19.07h-6.5Z"/>
      <path id="Path_8580" data-name="Path 8580" class="cls-2" d="M41.25,49.89c.7-1.25,1.77-2.25,3.08-2.84-1.15-.67-2.06-1.68-2.61-2.89-.38-.92-.58-1.9-.6-2.9-.02-1.96.81-3.84,2.27-5.14,3.81-2.83,9.03-2.83,12.84,0,1.47,1.3,2.29,3.18,2.27,5.14-.02,1-.22,1.98-.6,2.9-.53,1.17-1.45,2.13-2.6,2.7,1.3.7,2.37,1.75,3.08,3.03.7,1.29,1.05,2.74,1.03,4.21.03,2.26-.91,4.42-2.59,5.94-1.99,1.73-4.59,2.61-7.22,2.45-3.09,0-5.43-.82-7.02-2.45-1.57-1.57-2.43-3.72-2.39-5.94-.02-1.47.34-2.92,1.05-4.21M46.9,56.91c1.66,1.5,4.19,1.5,5.85,0,1.42-1.89,1.41-4.49-.02-6.37-1.66-1.46-4.15-1.46-5.81,0-1.43,1.88-1.44,4.48-.02,6.37M47.25,44.33c.69.66,1.62,1.01,2.57.95,1.77.15,3.32-1.16,3.47-2.92.01-.16.02-.33,0-.49.05-.94-.27-1.87-.91-2.57-.69-.65-1.62-.98-2.57-.92-1.76-.17-3.33,1.12-3.5,2.88-.02.2-.02.41,0,.61-.04.91.3,1.8.93,2.46"/>
      <g id="Group_22586" data-name="Group 22586">
        <path class="cls-2" d="M71.8,32.59h-12.12c-.83,0-1.5-.67-1.5-1.5s.67-1.5,1.5-1.5h12.12c.83,0,1.5.67,1.5,1.5s-.67,1.5-1.5,1.5Z"/>
        <path class="cls-2" d="M65.74,38.65c-.83,0-1.5-.67-1.5-1.5v-12.12c0-.83.67-1.5,1.5-1.5s1.5.67,1.5,1.5v12.12c0,.83-.67,1.5-1.5,1.5Z"/>
      </g>
    </g>
  </g>
</svg>