<svg width="86" height="100" viewBox="0 0 86 100" fill="none" xmlns="http://www.w3.org/2000/svg">
<g clip-path="url(#clip0_3463_2197)">
<path d="M52.0671 58.0064H31.0203C30.6628 52.0939 32.6153 47.8864 38.9862 43.7247C39.2612 43.5413 39.5362 43.3671 39.8295 43.1838C41.5254 42.1388 42.7721 41.1946 43.6887 40.2871C45.2654 38.7196 45.8154 37.2896 45.8979 35.6946C45.8979 32.8437 43.7529 31.047 41.0671 31.0562C40.4987 31.0562 39.9579 31.1387 39.4445 31.3037C37.382 31.9362 35.8512 33.7604 35.4112 36.1438L32.9178 30.882C33.917 29.3237 35.4845 27.9029 37.437 27.0778C38.5645 26.6012 39.8112 26.3262 41.1679 26.3262C47.3829 26.3262 51.4346 30.4237 51.4255 35.6671C51.4255 39.2513 49.7388 42.0013 45.8704 44.9163C45.2929 45.3472 44.6696 45.7872 43.9912 46.2363C42.9187 46.9422 41.9471 47.5839 41.0946 48.1889C38.9312 49.738 37.547 51.0489 37.1162 52.5981C37.0887 52.6897 36.9329 53.1206 36.9145 53.2122L38.3537 53.1756H49.7755L52.0671 58.0156V58.0064Z" fill="#E2C076"/>
<path d="M34.6778 37.8579L34.6411 37.7937H26.4736L30.5619 29.1587L32.4411 25.1803L29.9111 19.8453L29.8928 19.8086H29.0953L27.6194 22.9345L14.2726 51.1314H20.1577L24.3744 42.2213H36.7403L34.6778 37.8579Z" fill="#E2C076"/>
<path d="M67.9256 40.3516C67.9256 44.5042 65.7072 48.1525 62.1414 50.1051C62.0314 50.1692 61.9122 50.2242 61.793 50.2884C60.0605 51.1592 58.0255 51.6451 55.7796 51.5992C52.3146 51.5351 49.0696 50.2426 46.7779 47.905L50.3529 44.4675C51.7279 45.98 53.6438 46.9334 55.7521 46.9334C57.2371 46.9334 58.5663 46.4934 59.6572 45.7509C59.7672 45.6775 59.8772 45.595 59.978 45.5217C61.6005 44.2842 62.5905 42.3683 62.5905 40.3333C62.5905 36.8683 59.7855 33.9991 55.9538 33.9533C55.3671 33.9533 54.8721 34.0541 54.588 34.1274L52.9288 30.6257L57.8147 25.0982L58.5938 24.4015H52.8829V24.3832H49.5554L49.4821 24.2548L47.3737 19.7998H64.818V24.0165L59.2355 30.2682C65.3314 31.5241 67.9256 36.0341 67.9256 40.3516Z" fill="#E2C076"/>
<path d="M81.3182 8.87341C75.0115 5.94922 68.3656 3.70336 61.573 2.21835C54.863 0.742506 47.9696 0 41.0945 0C34.2195 0 27.3261 0.742506 20.616 2.21835C13.8326 3.70336 7.18673 5.94005 0.880007 8.87341L0 9.27674V42.5062C0 53.0663 3.36419 62.8747 9.66175 71.0239C10.3584 70.7214 11.7518 70.6389 12.5951 69.9881C6.76506 62.3797 3.02503 52.3329 3.02503 42.5062V11.2109C27.2802 0.265836 54.918 0.265836 79.1732 11.2109V42.497C79.1732 50.1513 77.184 57.5488 73.5539 64.0389C75.5981 64.8455 75.6531 65.2489 76.5973 65.4322C79.5948 59.1713 82.189 49.6379 82.189 42.497V9.27674L81.309 8.87341H81.3182Z" fill="#E2C076"/>
<path d="M16.2434 69.4291C15.9501 69.0716 14.6668 67.4125 14.3734 67.0366C13.2918 65.6158 12.2742 64.0574 11.3576 62.4166L11.1559 62.0407C11.0001 61.7566 10.8534 61.4724 10.6976 61.1882L10.2209 60.2441C10.1751 60.1616 10.1292 60.0607 10.0926 59.9691L10.0009 59.7674C9.82673 59.3916 9.67089 59.0432 9.51506 58.6857L9.24006 58.0257L8.98339 57.3657C8.27755 55.5507 7.70921 53.7448 7.29671 52.0215L7.13171 51.3248C7.0767 51.1048 7.03087 50.894 6.9942 50.674L6.9117 50.2523C6.84754 49.9131 6.78337 49.5923 6.72837 49.2806L6.6092 48.5565C6.5817 48.4006 6.56337 48.254 6.54503 48.1073L6.4717 47.5848C6.45337 47.4473 6.43503 47.3098 6.4167 47.1723L6.34337 46.4664C6.2517 45.6231 6.18753 44.7248 6.1417 43.6431C6.13253 43.4781 6.13253 43.3406 6.13253 43.1939C6.13253 43.1114 6.1142 42.2131 6.1142 42.2131V40.8381V35.283C6.12336 31.5155 6.16003 27.7846 6.20586 24.1821L6.28836 18.6271L6.39837 12.7145L6.61837 12.6228C9.31339 11.5503 11.9992 10.6428 14.5843 9.91864L14.8043 9.86364C15.4001 9.69864 16.0143 9.53364 16.6101 9.38697C16.9585 9.30447 17.2976 9.22197 17.6368 9.13947C17.976 9.05697 18.3151 8.98364 18.6543 8.9103C19.1585 8.8003 19.6535 8.69947 20.1301 8.59863C19.571 8.75447 19.0851 8.90113 18.6268 9.03864C18.2968 9.13947 17.9576 9.2403 17.6276 9.35031C17.2885 9.45114 16.9585 9.57031 16.6193 9.68031C15.9226 9.90948 15.2809 10.1295 14.6393 10.3495C13.2551 10.8353 11.8801 11.3762 10.7251 11.8345C9.75339 12.2287 8.79089 12.6412 7.85588 13.0537L7.15921 13.3653L7.26004 18.6271L7.34254 24.1821C7.38837 27.7755 7.41587 31.5155 7.43421 35.283V40.8381V42.2222C7.43421 42.4148 7.43421 42.5797 7.43421 42.7356C7.43421 43.0198 7.43421 43.3039 7.45254 43.5789C7.48921 44.6698 7.54421 45.5039 7.61754 46.3014L7.68171 46.9615C7.70004 47.1173 7.71838 47.2548 7.73671 47.4015L7.79171 47.869C7.81004 48.0248 7.82838 48.1806 7.85588 48.3365L7.95671 48.9873C8.10338 49.9681 8.30505 50.9307 8.45172 51.6548C8.84589 53.424 9.35006 55.1749 9.95506 56.8799L10.1934 57.5307L10.4317 58.1449C10.5601 58.4932 10.7159 58.8416 10.8626 59.1807L11.0917 59.7216L11.2292 60.0241L11.4951 60.6199C11.6417 60.9224 11.7792 61.2157 11.9167 61.4999L12.0817 61.8299C12.8793 63.3883 13.8051 64.9558 14.8409 66.4866C15.1343 66.9175 16.0693 68.76 16.4176 69.2366C16.2251 69.3375 16.7751 69.2733 16.2159 69.4383L16.2434 69.4291Z" fill="#E2C076"/>
<path d="M48.7121 100C48.0704 100 47.4287 99.8996 46.8054 99.6887L18.2051 90.2012C17.2243 89.8803 16.1335 89.9537 15.2076 90.4212L6.08671 94.8945C5.46338 95.2062 4.7117 94.9404 4.40003 94.317C4.09753 93.6937 4.3542 92.9328 4.97754 92.6303L14.0893 88.1661C15.5926 87.4053 17.3893 87.277 18.9935 87.8178L47.5937 97.3054C48.2629 97.5254 48.9779 97.5437 49.6562 97.3512L51.0221 96.9754C51.8471 96.7462 52.6079 96.3795 53.2863 95.8662L82.1432 74.4344C82.9132 73.8568 83.2707 72.8852 83.0324 71.941L82.7574 70.841C82.574 70.1077 81.9232 69.6035 81.1715 69.6035C81.034 69.6035 80.9057 69.6402 80.7865 69.7135L53.4788 86.6078C53.0938 86.8461 52.6079 86.8553 52.2046 86.6445L42.3504 81.2269C41.7362 80.8877 41.5162 80.1269 41.8553 79.5127C42.1945 78.8986 42.9554 78.6786 43.5695 79.0177L52.7821 84.0778L79.4573 67.5776C79.9707 67.2568 80.5665 67.0918 81.1715 67.0918C83.0782 67.0918 84.7374 68.3843 85.1957 70.236L85.4707 71.336C85.9474 73.2702 85.2324 75.2777 83.6374 76.4602L54.7805 97.8921C53.8454 98.5887 52.8004 99.0929 51.6821 99.4046L50.3163 99.7804C49.7846 99.9271 49.2346 100.01 48.6846 100.01L48.7121 100Z" fill="#032146"/>
<path d="M42.992 81.3739L36.3003 81.1356C35.6036 81.1081 35.0628 80.5306 35.0811 79.8339C35.0995 79.1373 35.6953 78.5781 36.3828 78.6148L43.0104 78.8439L59.373 78.5598C60.2714 78.5414 61.0047 77.8539 61.0872 76.9556L61.2339 75.2414C61.298 74.4806 60.7572 73.8206 60.0055 73.7197L28.4536 69.723C27.8394 69.6405 27.1978 69.7047 26.6111 69.8972L8.24092 76.1581C7.58092 76.3872 6.86591 76.0297 6.63674 75.3697C6.40758 74.7097 6.76508 73.9947 7.42508 73.7656L25.7952 67.5047C26.7394 67.1838 27.7661 67.083 28.7561 67.2113L60.308 71.208C62.4072 71.4739 63.9106 73.3347 63.7272 75.4431L63.5806 77.1572C63.3881 79.3389 61.5914 81.0164 59.4005 81.0623L42.9737 81.3373L42.992 81.3739Z" fill="#032146"/>
<path d="M58.8597 73.5818C58.3555 73.5818 57.888 73.2793 57.6863 72.7843C57.4297 72.1335 57.7505 71.4093 58.3922 71.1434L70.6481 66.2851C71.6198 65.9367 72.6373 65.9367 73.5631 66.2667C75.5706 66.9726 76.9182 68.8701 76.9182 70.9968V71.3909C76.9182 72.0876 76.3498 72.656 75.6531 72.656C74.9565 72.656 74.3881 72.0876 74.3881 71.3909V70.9968C74.3881 69.9426 73.719 68.9984 72.7198 68.6409C72.3348 68.5034 71.9039 68.5034 71.5189 68.6409L59.3088 73.4901C59.153 73.5543 58.9972 73.5818 58.8413 73.5818H58.8597Z" fill="#032146"/>
</g>
<defs>
<clipPath id="clip0_3463_2197">
<rect width="85.6357" height="100" fill="white"/>
</clipPath>
</defs>
</svg>
