<?xml version="1.0" encoding="UTF-8"?>
<svg id="Layer_2" data-name="Layer 2" xmlns="http://www.w3.org/2000/svg" viewBox="0 0 216.48 59.99">
  <defs>
    <style>
      .cls-1 {
        fill: #3872b5;
        stroke-width: 0px;
      }
    </style>
  </defs>
  <g id="Layer_1-2" data-name="Layer 1">
    <g>
      <path class="cls-1" d="M188.01,34.01v-15.32h-4.3v-5.05h4.49V4.11h6.17v9.53h8.04v5.05h-8.04v14.58c0,1.31.19,2.43.56,3.36s.75,1.68,1.31,2.24,1.12.93,1.68,1.31c.75.37,1.31.56,1.87.56s1.12.19,1.68.19l1.5-.19v5.61c-.56,0-1.31.19-2.24.19-1.12,0-2.06,0-2.99-.19s-2.06-.37-3.18-.93c-1.31-.56-2.24-1.12-3.18-2.06s-1.68-2.06-2.24-3.55c-.75-1.87-1.12-3.55-1.12-5.79h0ZM161.66,46.16V13.08h6.17v5.79l-.19,2.43h.19c.75-2.43,2.06-4.67,3.92-6.17,1.87-1.68,3.92-2.43,6.54-2.43l1.68.19v6.17c-.56-.19-1.12-.19-1.87-.19-2.06,0-3.92.75-5.61,2.06s-2.99,3.36-3.74,5.61c-.56,1.68-.75,3.74-.75,5.98v13.46l-6.35.19h0ZM126.33,29.71c0-5.23,1.5-9.34,4.67-12.52s7.1-4.67,11.77-4.67,8.04,1.5,10.47,4.3c2.43,2.99,3.74,6.54,3.74,11.03l-.19,2.8h-24.11c.19,3.55,1.31,6.17,3.55,8.04s4.86,2.8,7.85,2.8c1.68,0,3.36-.37,5.05-.93s2.8-1.31,3.55-1.87l1.12-.93,2.62,4.67c-.37.37-.93.75-1.5,1.31-.75.56-2.24,1.31-4.3,2.06-2.24.93-4.49,1.31-6.91,1.31-5.05,0-9.34-1.68-12.52-4.86-3.18-3.55-4.86-7.66-4.86-12.52h0ZM133.06,25.79h17.57c0-2.8-.93-4.86-2.43-6.17-1.5-1.5-3.36-2.24-5.61-2.24-2.43,0-4.67.75-6.35,2.24s-2.62,3.55-3.18,6.17ZM94.75,29.71c0-4.86,1.68-8.97,5.05-12.33s7.48-5.05,12.71-5.05c2.43,0,4.67.37,6.73,1.12s3.55,1.68,4.49,2.43l1.31,1.12-2.99,4.49-1.12-1.12c-.56-.37-1.5-.93-3.18-1.68-1.5-.75-3.18-1.12-4.86-1.12-3.36,0-5.98,1.12-8.22,3.36s-3.18,5.05-3.18,8.41,1.12,6.17,3.36,8.41,5.05,3.36,8.41,3.36c1.87,0,3.55-.37,5.23-1.12s2.99-1.5,3.74-2.24l1.12-1.12,2.62,4.67-.56.56c-.19.19-.75.75-1.68,1.31-.75.56-1.68,1.12-2.62,1.68-.93.37-2.24.93-3.74,1.31s-2.99.56-4.67.56c-5.23,0-9.34-1.68-12.71-4.86-3.55-3.18-5.23-7.29-5.23-12.15h0ZM83.72,6.54V0h6.35v6.54h-6.35ZM83.91,46.16V13.08h6.35v33.08h-6.35ZM52.7,52.14c2.8,1.5,5.79,2.24,8.97,2.24s5.61-.75,7.48-2.24,2.8-3.92,2.8-7.1v-4.49h-.19c-2.06,3.36-5.23,5.23-9.72,5.23s-8.04-1.68-10.65-4.86-3.92-7.29-3.92-12.15,1.31-8.78,3.92-11.96c2.62-2.99,6.17-4.67,10.65-4.67,1.5,0,2.8.19,4.11.56s2.24.75,2.99,1.31,1.31.93,1.87,1.5.93.93,1.12,1.31l.37.37h.19v-4.11h5.98v31.58c0,2.62-.56,4.86-1.31,6.91-.93,2.06-2.24,3.55-3.74,4.67-1.87,1.31-3.74,2.24-5.61,2.8s-3.92.93-6.17.93c-3.92,0-7.66-.93-11.21-2.8l2.06-5.05h0ZM63.54,40.18c2.62,0,4.67-.93,6.35-2.62,1.68-1.87,2.43-4.67,2.43-8.6,0-7.48-3.18-11.03-9.34-11.03-2.8,0-5.05.93-6.54,2.99-1.5,1.87-2.43,4.67-2.43,8.04,0,3.55.93,6.35,2.62,8.41,1.68,1.87,4.11,2.8,6.91,2.8ZM36.63,6.54V0h6.35v6.54h-6.35ZM36.82,46.16V13.08h6.35v33.08h-6.35ZM0,29.71C0,24.48,1.31,20.37,4.11,17.19s6.35-4.67,10.84-4.67c1.5,0,2.8.19,3.92.56,1.31.37,2.24.75,2.99,1.31.75.56,1.31,1.12,1.87,1.5.56.56.93.93,1.12,1.31l.19.56h.19c0-.56-.19-1.31-.19-2.24V.19h6.35v45.97h-5.98v-5.42h-.19c0,.19-.19.37-.37.56s-.56.75-1.12,1.5-1.31,1.31-2.06,1.87-1.87,1.12-3.18,1.5-2.8.56-4.3.56c-4.49,0-8.04-1.5-10.65-4.67-2.24-2.99-3.55-7.29-3.55-12.33h0ZM6.35,29.71c0,3.55.93,6.35,2.62,8.6s3.92,3.18,6.73,3.18c2.62,0,5.05-.93,6.73-2.99,1.87-2.06,2.8-4.86,2.8-8.97,0-3.18-.75-5.98-2.43-8.22s-3.92-3.55-6.91-3.55c-2.62,0-5.05,1.12-6.73,3.18-1.87,2.24-2.8,5.05-2.8,8.78Z"/>
      <path class="cls-1" d="M210.18,1.09c2.87,0,5.2,2.33,5.2,5.2s-2.33,5.2-5.2,5.2-5.2-2.33-5.2-5.2,2.33-5.2,5.2-5.2M210.18,0c-3.48,0-6.3,2.82-6.3,6.3s2.82,6.3,6.3,6.3,6.3-2.82,6.3-6.3S213.66,0,210.18,0h0Z"/>
      <path class="cls-1" d="M212.25,9.71l-2.16-3.14h-.89v3.14h-1.16V2.42h2.34c1.48,0,2.79.6,2.79,2.05,0,1.28-1.01,1.85-1.88,2l2.36,3.24h-1.4ZM211.44,3.52c-.37-.24-.82-.26-1.39-.26h-.85v2.47h.85c.58,0,1.02-.02,1.39-.25.37-.24.53-.54.53-.98s-.16-.74-.53-.97Z"/>
    </g>
  </g>
</svg>