<svg width="400" height="76" viewBox="0 0 400 76" fill="none" xmlns="http://www.w3.org/2000/svg">
<g clip-path="url(#clip0_3463_2211)">
<path d="M69.5059 5.4781V41.3045C69.5059 45.9797 67.7803 50.2938 65.0815 54.1663H35.2345V41.3447H56.8648V31.0111H35.2345V19.7144H58.139V9.38079H22.3326V64.6604H54.5974C45.1668 71.7936 34.7529 75.8669 34.7529 75.8669C34.7529 75.8669 0 62.2727 0 41.3045V5.4781C11.076 2.44826 22.7339 0.833008 34.763 0.833008C46.7921 0.833008 58.4399 2.44826 69.5059 5.4781Z" fill="black"/>
<path d="M100.507 65.9046C85.2069 65.9046 71.7432 55.8118 71.7432 37.3819C71.7432 18.952 85.2069 8.93945 100.667 8.93945C115.325 8.93945 121.655 16.6345 123.421 18.5507L114.853 26.0049C112.526 23.4466 108.202 19.6743 100.677 19.6743C91.7883 19.6743 84.8959 26.1654 84.8959 37.3819C84.8959 48.5983 91.9488 55.0894 100.918 55.0894C109.887 55.0894 112.455 51.568 112.455 51.568V43.4015H100.838V33.5494H125.107V56.4639C122.307 58.952 115.736 65.9146 100.517 65.9146L100.507 65.9046Z" fill="#377DBD"/>
<path d="M146.245 20.0855V33.6296H166.591V43.9631H146.245V65.0316H133.343V9.75195H167.876V20.0855H146.245Z" fill="#377DBD"/>
<path d="M183.065 0H179.212V75.8666H183.065V0Z" fill="black"/>
<path d="M214.216 14.0061H204.384L203.592 18.9622H212.892L212.139 23.6675H202.839L201.946 29.3359H212.109L211.357 34.0713H195.596L199.508 9.30078H214.979L214.226 14.0061H214.216Z" fill="black"/>
<path d="M224.62 26.677H214.929L215.641 22.1924H225.332L224.62 26.677Z" fill="black"/>
<path d="M241.174 13.7952C236.037 13.7952 233.027 18.7112 233.027 23.4466C233.027 26.9981 235.074 29.5464 238.776 29.5464C240.281 29.5464 242.869 29.2254 243.983 28.0014L244.555 24.4097H239.528L240.251 19.9252H250.735L249.12 30.1885C245.638 33.1281 242.438 34.4624 237.843 34.4624C231.593 34.4624 227.249 30.5096 227.249 24.199C227.249 15.7315 233.248 8.93945 241.926 8.93945C245.839 8.93945 248.779 10.0832 251.116 13.2836L246.882 16.5542C245.558 14.648 243.511 13.7952 241.174 13.7952Z" fill="black"/>
<path d="M267.55 34.0714L266.657 29.1153H258.219L255.741 34.0714H249.852L262.814 9.26074H268.633L273.7 34.0714H267.56H267.55ZM264.53 15.7619L260.256 24.4902H266.075L264.53 15.7619Z" fill="black"/>
<path d="M302.583 34.0713H297.055L298.811 17.2366H298.771L291.016 34.0713H286.561L284.083 17.2366H284.043L280.522 34.0713H274.954L280.662 9.30078H287.765L290.103 25.5235H290.143L297.607 9.30078H304.71L302.553 34.0713H302.583Z" fill="black"/>
<path d="M311.803 34.0713H306.165L310.078 9.30078H315.716L311.803 34.0713Z" fill="black"/>
<path d="M337.898 34.0713H332.149L324.394 17.4172C323.672 22.9853 322.739 28.5433 321.846 34.0713H316.358L320.271 9.30078H326.3L333.805 25.8145C334.487 20.2865 335.46 14.7886 336.313 9.30078H341.841L337.888 34.0713H337.898Z" fill="black"/>
<path d="M356.92 13.7952C351.783 13.7952 348.774 18.7112 348.774 23.4466C348.774 26.9981 350.82 29.5464 354.522 29.5464C356.027 29.5464 358.615 29.2254 359.729 28.0014L360.301 24.4097H355.275L355.997 19.9252H366.481L364.866 30.1885C361.384 33.1281 358.184 34.4624 353.589 34.4624C347.339 34.4624 342.995 30.5096 342.995 24.199C342.995 15.7315 348.994 8.93945 357.672 8.93945C361.585 8.93945 364.525 10.0832 366.862 13.2836L362.629 16.5542C361.304 14.648 359.258 13.7952 356.92 13.7952Z" fill="black"/>
<path d="M213.674 45.7587H204.374L203.401 51.7181H212.16L211.437 56.4234H202.639L201.164 65.834H195.566L199.478 41.0635H214.417L213.664 45.7688L213.674 45.7587Z" fill="black"/>
<path d="M232.375 45.759H222.543L221.751 50.7151H231.051L230.298 55.4204H220.998L220.105 61.0888H230.268L229.516 65.8242H213.755L217.667 41.0537H233.138L232.385 45.759H232.375Z" fill="black"/>
<path d="M241.164 65.8242H233.088L237 41.0537H245.076C251.397 41.0537 256.383 43.9933 256.383 50.8556C256.383 60.1157 250.213 65.8242 241.164 65.8242ZM244.645 45.9296H241.846L239.478 60.828H242.277C247.514 60.828 250.645 56.7748 250.645 51.7485C250.645 47.9461 248.347 45.9296 244.645 45.9296Z" fill="black"/>
<path d="M276.198 45.759H266.366L265.573 50.7151H274.873L274.121 55.4204H264.821L263.928 61.0888H274.091L273.338 65.8242H257.577L261.49 41.0537H276.96L276.208 45.759H276.198Z" fill="black"/>
<path d="M291.387 55.591L295.841 65.8242H289.27L285.749 56.3835H284.023L282.548 65.8242H276.91L280.823 41.0537H289.37C293.424 41.0537 297.266 42.5285 297.266 47.1937C297.266 50.8957 294.969 54.4773 291.377 55.591H291.387ZM287.906 45.5784H285.719L284.745 51.8588H286.933C289.37 51.8588 291.487 50.8556 291.487 48.0866C291.487 45.9697 289.621 45.5784 287.896 45.5784H287.906Z" fill="black"/>
<path d="M312.957 65.8243L312.064 60.8682H303.627L301.149 65.8243H295.26L308.222 41.0137H314.041L319.107 65.8243H312.967H312.957ZM309.937 47.5148L305.663 56.2432H311.482L309.937 47.5148Z" fill="black"/>
<path d="M337.647 45.7189H331.507L328.317 65.8242H322.679L325.869 45.7189H319.689L320.441 41.0537H338.36L337.637 45.7189H337.647Z" fill="black"/>
<path d="M342.533 65.8242H336.895L340.808 41.0537H346.446L342.533 65.8242Z" fill="black"/>
<path d="M358.435 66.2553C352.154 66.2553 347.63 62.4128 347.63 55.9518C347.63 47.3037 353.77 40.6621 362.488 40.6621C368.809 40.6621 373.293 44.5046 373.293 50.9957C373.293 59.6137 367.153 66.2553 358.435 66.2553ZM361.695 45.6483C356.709 45.6483 353.439 50.2031 353.439 54.9084C353.439 58.5001 355.626 61.0082 359.258 61.0082C364.284 61.0082 367.555 56.4534 367.555 51.7481C367.555 48.1565 365.367 45.6483 361.706 45.6483H361.695Z" fill="black"/>
<path d="M396.047 65.8242H390.308L382.553 49.1701C381.831 54.7382 380.898 60.2963 380.005 65.8242H374.517L378.43 41.0537H384.459L391.964 57.5674C392.646 52.0394 393.619 46.5415 394.472 41.0537H400L396.047 65.8242Z" fill="black"/>
</g>
<defs>
<clipPath id="clip0_3463_2211">
<rect width="400" height="75.8666" fill="white"/>
</clipPath>
</defs>
</svg>
