<?xml version="1.0" encoding="UTF-8"?>
<svg id="Layer_1" data-name="Layer 1" xmlns="http://www.w3.org/2000/svg" xmlns:xlink="http://www.w3.org/1999/xlink" viewBox="0 0 792 328.32">
  <defs>
    <style>
      .cls-1 {
        fill: none;
      }

      .cls-2 {
        fill: #8b1732;
      }

      .cls-3 {
        fill: #192f59;
      }

      .cls-4 {
        clip-path: url(#clippath);
      }
    </style>
    <clipPath id="clippath">
      <rect class="cls-1" x="39.81" y="43.26" width="712.39" height="241.8"/>
    </clipPath>
  </defs>
  <path class="cls-3" d="M319.61,94.1v-12.8h23.62v38.53c-4.23,1.81-8.46,2.88-12.93,3.42-2.79.32-5.66.75-13.24.75-11.41,0-27.05-9.5-27.05-40.14s15.64-40.13,27.05-40.13c16.68,0,26.97,6.73,27.05,25.08h-13.17c0-9.81-4.78-13.12-11.57-13.12-10.93,0-16.2,10.78-16.2,28.17s5.27,28.18,16.2,28.18c4.94,0,8.22-.85,11.49-1.7v-16.23h-11.25Z"/>
  <path class="cls-3" d="M360.53,83.97c.09-6.73,2.71-10.89,6.58-13.34,3.96-2.56,9.1-3.42,14.32-3.42,9.77,0,20.71,3.94,20.71,20.06v29.25c.1,2.67.48,4.27.68,5.87h-13.07c-.29-2.46-.48-4.91-.48-7.15h-.2c-3.28,6.19-8.32,8.75-14.9,8.75-9.1,0-15.87-5.76-15.87-16.22,0-3.74,1.55-12.81,10.35-16.97,5.82-2.77,13.16-3.1,18.97-2.88v-5.02c0-2.24-1.55-6.62-6.68-6.62s-6.67,5.23-6.48,7.69h-13.94ZM372.24,105.63c0,4.48,3,7.68,7.06,7.68,8.03,0,8.33-9.82,8.33-16.12-5.03-.1-15.39-.21-15.39,8.44"/>
  <path class="cls-3" d="M351.52,165.11c.09-6.73,2.71-10.88,6.58-13.34,3.97-2.57,9.1-3.42,14.33-3.42,9.77,0,20.71,3.95,20.71,20.07v29.24c.1,2.67.49,4.27.68,5.87h-13.07c-.29-2.46-.48-4.91-.48-7.15h-.2c-3.29,6.19-8.32,8.75-14.91,8.75-9.1,0-15.87-5.77-15.87-16.22,0-3.74,1.55-12.81,10.36-16.98,5.81-2.77,13.16-3.09,18.97-2.88v-5.02c0-2.24-1.55-6.62-6.68-6.62s-6.68,5.23-6.48,7.69h-13.94ZM363.22,186.77c0,4.49,3,7.68,7.06,7.68,8.03,0,8.32-9.81,8.32-16.12-5.03-.1-15.39-.21-15.39,8.44"/>
  <path class="cls-3" d="M430.76,75.1h.19c2.91-4.7,7.32-7.9,14.47-7.9,5.26,0,13.05,4.27,15.02,10.14,4.41-6.94,8.82-10.14,15.96-10.14,5.27,0,13.05,4.27,15.02,10.14,1.51,4.06,1.41,8.54,1.41,12.81v32.24h-14.08v-32.24c-.1-5.76-1.51-12.27-8.45-12.27-4.41,0-8.26,4.48-8.45,12.27v32.24h-14.08v-32.24c-.1-5.76-1.5-12.27-8.45-12.27-4.41,0-8.26,4.48-8.45,12.27v32.24h-14.08v-53.58h13.98v6.3Z"/>
  <path class="cls-3" d="M526.89,59.09h-15.49v-13.77h15.49v13.77ZM526.41,122.39h-14.53v-53.58h14.53v53.58Z"/>
  <path class="cls-2" d="M520.88,221.38h-15.5v-13.77h15.5v13.77ZM520.4,284.68h-14.53v-53.58h14.53v53.58Z"/>
  <path class="cls-2" d="M606.03,221.38h-15.49v-13.77h15.49v13.77ZM605.55,284.68h-14.54v-53.58h14.54v53.58Z"/>
  <path class="cls-3" d="M561.94,75l.21.32c3.24-4.91,8.15-8.11,16.1-8.11,5.22,0,15.36,3.94,17.24,11.74.84,3.31,1.04,6.73,1.04,8.54v34.9h-15.67v-32.24c-.11-5.76-1.67-12.27-9.41-12.27-4.91,0-9.2,4.48-9.4,12.27v32.24h-15.68v-53.58h15.57v6.19Z"/>
  <path class="cls-3" d="M656.6,120.51c0,13.22-2.53,27.67-24,27.44-10.84,0-22.45-3.05-22.74-18.29h13.86c.2,5.08,4.1,7,8.1,7,11.13,0,10.73-11.74,10.15-19.99h-.2c-3.02,5.54-8.19,7.79-13.76,7.79-13.27,0-20.1-14.46-20.1-28.23,0-14.46,7.12-29.03,20.78-29.03,6.54,0,10.74,2.49,13.07,8.24h.2v-6.55h14.64v51.61ZM632.49,113.17c8,0,9.47-9.49,9.47-16.83,0-8.36-1.47-17.85-9.47-17.85s-9.47,9.48-9.47,17.85c0,7.34,1.47,16.83,9.47,16.83"/>
  <polygon class="cls-3" points="294 202.55 294 127.22 309.03 127.22 309.03 190.03 339.37 190.03 339.37 202.55 294 202.55"/>
  <path class="cls-3" d="M411.01,130.22h14.32v27.88h.19c2.68-4.21,7.85-7.32,12.8-7.32,14.9,0,22.45,13.14,22.45,26.67s-6.59,26.68-20.63,26.68c-6.21,0-11.56-2.71-14.71-8.63h-.19c0,2.41-.19,4.71-.38,7.12h-14.33c.2-3.31.48-6.72.48-10.03v-62.37ZM435.65,194.1c9.17,0,10.31-8.93,10.31-16.65s-1.14-16.65-10.31-16.65c-7.74,0-10.32,9.73-10.32,16.65s2.58,16.65,10.32,16.65"/>
  <path class="cls-3" d="M497.82,164.16c-.18-3.55-3.09-5.12-6.17-5.12-3.73,0-5.45,1.26-5.45,4.7,0,8.24,26.05,3.55,26.05,23.17,0,11.48-12.16,17.22-20.61,17.22-10.62,0-19.89-4.8-20.07-16.81h12.63c.27,4.07,3.45,6.36,7.44,6.36,3.72,0,6.54-1.77,6.54-5.84s-6.54-5.95-9.26-6.68c-8.72-2.4-16.8-4.59-16.8-16.8,0-10.96,11.53-15.76,19.52-15.76,9.62,0,17.79,3.97,18.43,15.55h-12.26Z"/>
  <path class="cls-2" d="M325.38,231.47c.09-8.06-3.95-14.52-12.13-14.52-9.67,0-12.13,17.27-12.13,27.98s2.46,27.98,12.13,27.98c8.18,0,12.22-6.47,12.13-14.53h14.51c-.62,19.2-12.05,26.4-26.64,26.4-18.38,0-26.64-17.49-26.64-39.86s8.27-39.86,26.64-39.86c14.6,0,26.02,7.2,26.64,26.39h-14.51Z"/>
  <path class="cls-2" d="M365.52,260.84c0,6.89.9,13.35,8.63,13.35,5.22,0,7.82-2.01,9.23-6.89h13.55c-1.31,13.15-11.04,17.49-22.78,17.49-17.26,0-24.19-10.28-24.19-28.09,0-16.01,8.83-28.3,24.19-28.3,9.43,0,17.25,3.39,21.47,12.71,1.4,2.97,2.11,6.15,2.51,9.54.4,3.28.4,6.68.4,10.17h-33.01ZM382.98,250.24c0-5.84-1.51-11.24-8.83-11.24-6.92,0-8.43,5.4-8.63,11.24h17.46Z"/>
  <path class="cls-2" d="M639.01,260.84c0,6.89.9,13.35,8.63,13.35,5.22,0,7.82-2.01,9.22-6.89h13.55c-1.31,13.15-11.04,17.49-22.78,17.49-17.26,0-24.19-10.28-24.19-28.09,0-16.01,8.84-28.3,24.19-28.3,9.43,0,17.26,3.39,21.46,12.71,1.41,2.97,2.11,6.15,2.52,9.54.4,3.28.4,6.68.4,10.17h-33.01ZM656.47,250.24c0-5.84-1.51-11.24-8.82-11.24-6.93,0-8.44,5.4-8.63,11.24h17.46Z"/>
  <path class="cls-2" d="M425.08,230l.32,9.64h.2c3.33-8.37,9.98-10.49,17.77-10.28v14.1h-6.75c-2.6.21-6.03,1.7-7.59,3.92-1.67,2.97-1.97,5.94-2.08,9.43v26.39h-15.48l-.11-42.61c0-2.23-.31-6.68-.51-10.59h14.23Z"/>
  <path class="cls-2" d="M459.37,230v-12.5l14.05.42.36,12.08h10.86v10.59h-10.86v24.71c0,6.99.96,8.9,5.96,8.9,1.54,0,6.39-1.92,7.93-2.02l2.51,9.18c2.06-1.06-2.62,5.01-17.16,3.45-11.16-1.2-13.64-6.47-13.64-18.03v-26.18h-9.71v-10.59h9.71Z"/>
  <rect class="cls-1" x="39.81" y="43.26" width="712.39" height="241.8"/>
  <path class="cls-2" d="M576.15,220.42c-11.26-3.76-14.83-.92-14.41,9.57h9.39v10.6h-9.39v42.61h-15.47v-42.61h-7.73v-10.6h7.73c-.42-15.16,2.64-21.68,19.45-21.68,2.78,0,10.16,2.08,12.94,2.5l-2.51,9.6Z"/>
  <path class="cls-2" d="M716.58,209.68h14.9v63.4c0,3.37.3,6.83.5,10.19h-14.9c-.21-2.44-.41-4.79-.41-7.24h-.19c-3.28,6.02-8.85,8.77-15.3,8.77-14.6,0-21.46-13.97-21.46-27.11s7.85-27.11,23.35-27.11c5.17,0,10.54,3.16,13.32,7.44h.2v-28.34ZM705.84,274.6c8.04,0,10.73-9.88,10.73-16.92s-2.69-16.92-10.73-16.92c-9.54,0-10.73,9.06-10.73,16.92s1.19,16.92,10.73,16.92"/>
  <g class="cls-4">
    <rect class="cls-3" x="39.81" y="43.26" width="236.34" height="240.65"/>
    <path class="cls-2" d="M268.97,52.83s-6.22-6.22-25.84-2.87c-19.61,3.35-28.7,1.91-55.5,40.66-26.79,38.75-52.15,75.59-72.24,114.82,0,0-23.44-27.75-40.67-25.84-17.22,1.91-28.22,25.36-28.22,25.36,0,0-7.66,8.13,2.87,18.18,10.53,10.05,34.92,40.19,39.24,50.24,4.31,10.04,51.67,13.39,58.36-12.44,6.7-25.84,37.32-89.95,59.32-114.34,22.01-24.4,49.27-64.11,58.85-74.16,9.57-10.05,9.09-13.4,3.83-19.61"/>
  </g>
  <path class="cls-2" d="M744.61,209.83c4.22,0,7.58,3.43,7.58,7.65s-3.36,7.68-7.61,7.68-7.65-3.4-7.65-7.68,3.43-7.65,7.65-7.65h.03ZM744.55,211.36c-3.2,0-5.78,2.76-5.78,6.15s2.58,6.12,5.82,6.12c3.23.03,5.84-2.68,5.84-6.12s-2.61-6.15-5.84-6.15h-.04ZM743.26,221.93h-1.8v-8.5c.68-.1,1.43-.24,2.72-.24,1.46,0,2.34.24,2.92.68.48.37.75.95.75,1.84,0,1.02-.71,1.73-1.63,1.97v.07c.75.14,1.23.82,1.36,2.08.17,1.32.35,1.84.47,2.11h-1.87c-.2-.3-.34-1.05-.51-2.21-.14-.92-.68-1.29-1.6-1.29h-.81v3.5ZM743.26,217.03h.85c1.05,0,1.87-.33,1.87-1.22,0-.71-.51-1.26-1.74-1.26-.44,0-.75,0-.98.03v2.44Z"/>
</svg>