<svg width="76" height="19" viewBox="0 0 76 19" fill="none" xmlns="http://www.w3.org/2000/svg">
<g id="billdesk_logo.cb23d596" clip-path="url(#clip0_3243_2010)">
<g id="Group 5">
<g id="Group 3">
<g id="Group 1">
<path id="Path 1" d="M21.6908 4.45336H26.6312C27.1584 4.44152 27.6839 4.51632 28.1869 4.67477C28.5898 4.80433 28.9571 5.02588 29.2597 5.32189C29.4533 5.51557 29.6078 5.74474 29.7147 5.99686C29.829 6.27701 29.8849 6.57755 29.879 6.88005V6.90595C29.9022 7.3938 29.7542 7.87443 29.4606 8.26471C29.1775 8.61223 28.8128 8.88425 28.399 9.05649C28.9289 9.2138 29.4111 9.5011 29.8017 9.89227C30.1685 10.3118 30.3546 10.8591 30.3198 11.4152V11.4426C30.3356 11.8228 30.2565 12.2008 30.0895 12.5427C29.9225 12.8846 29.6729 13.1794 29.3633 13.4006C28.5621 13.9148 27.6182 14.1611 26.6678 14.1039H21.6908V4.45336ZM25.9777 8.29941C26.3054 8.3198 26.6322 8.24837 26.9215 8.09315C27.0277 8.02607 27.1139 7.93174 27.1713 7.81998C27.2286 7.70823 27.2549 7.58315 27.2475 7.45776V7.43137C27.253 7.31147 27.228 7.19213 27.1747 7.08457C27.1215 6.97702 27.0417 6.88477 26.943 6.81651C26.6684 6.65593 26.3518 6.58153 26.0344 6.60293H24.2969V8.29892L25.9777 8.29941ZM26.3643 11.9534C26.697 11.9735 27.0281 11.8946 27.3159 11.7266C27.4225 11.6548 27.5088 11.5568 27.5665 11.442C27.6243 11.3272 27.6516 11.1995 27.6458 11.0712V11.0438C27.6501 10.92 27.6235 10.7972 27.5684 10.6863C27.5134 10.5754 27.4317 10.4799 27.3306 10.4084C27.0318 10.2291 26.6848 10.147 26.3374 10.1733H24.2969V11.9524L26.3643 11.9534Z" fill="#5F6062"/>
<path id="Path 2" d="M34.8981 4.03906H37.532V14.1041H34.8981V4.03906Z" fill="#5F6062"/>
<path id="Path 3" d="M38.6888 4.03906H41.3228V14.1041H38.6888V4.03906Z" fill="#5F6062"/>
<path id="Path 4" d="M42.575 4.45398H46.2978C47.0822 4.44177 47.8631 4.56088 48.6082 4.80637C49.2398 5.01388 49.8221 5.34892 50.3188 5.79073C50.7802 6.20927 51.1428 6.72513 51.3804 7.30099C51.6305 7.91115 51.7553 8.56537 51.7475 9.22475V9.25261C51.754 9.91689 51.6265 10.5757 51.3726 11.1896C51.1314 11.7744 50.7643 12.2989 50.2973 12.7257C49.7946 13.1774 49.2055 13.5224 48.5657 13.7399C47.8178 13.994 47.0318 14.1175 46.2421 14.105H42.5764L42.575 4.45398ZM46.3447 11.7331C47.0463 11.7669 47.7357 11.5407 48.2807 11.0977C48.5303 10.8709 48.7258 10.591 48.8526 10.2786C48.9795 9.96618 49.0346 9.62925 49.0139 9.29269V9.26483C49.0332 8.9295 48.9775 8.59408 48.8506 8.28307C48.7238 7.97205 48.5291 7.6933 48.2807 7.46717C47.7379 7.01948 47.0475 6.79061 46.3447 6.82543H45.2509V11.7326L46.3447 11.7331Z" fill="#5F6062"/>
<path id="Path 5" d="M56.3218 14.2816C55.7714 14.2883 55.2245 14.1927 54.7089 13.9996C54.2408 13.8247 53.812 13.5589 53.447 13.2176C53.0877 12.8736 52.8058 12.4571 52.62 11.9957C52.4172 11.4924 52.3162 10.9538 52.3228 10.4112V10.3843C52.3195 9.86312 52.413 9.34588 52.5985 8.85886C52.7755 8.39851 53.0412 7.97738 53.3805 7.61937C53.7175 7.2629 54.1236 6.97885 54.574 6.78457C55.0524 6.57894 55.5685 6.47572 56.0892 6.48154C56.6647 6.46811 57.2362 6.58123 57.7632 6.81292C58.2161 7.01745 58.6171 7.32151 58.9362 7.70246C59.2498 8.08396 59.4842 8.52409 59.6258 8.99718C59.7801 9.50409 59.857 10.0314 59.8541 10.5612V10.8232C59.8541 10.9149 59.8492 11.0066 59.8394 11.0979H54.8463C54.9172 11.4657 55.1209 11.7947 55.4186 12.0221C55.724 12.2324 56.0891 12.3389 56.4597 12.3256C56.7568 12.3293 57.0512 12.2676 57.3218 12.1448C57.6183 12.0013 57.8867 11.8058 58.1141 11.5676L59.5618 12.766C59.1831 13.2604 58.6908 13.6562 58.1266 13.9199C57.5625 14.1837 56.9431 14.3076 56.3209 14.2811L56.3218 14.2816ZM57.3971 9.76209C57.373 9.39582 57.2265 9.04828 56.9812 8.77528C56.8687 8.65485 56.7317 8.55991 56.5794 8.49684C56.4272 8.43378 56.2632 8.40407 56.0985 8.40969C55.9384 8.40457 55.7791 8.43465 55.6319 8.49782C55.4847 8.56099 55.3532 8.65571 55.2466 8.77528C55.0083 9.05519 54.8556 9.39776 54.8067 9.76209H57.3971Z" fill="#5F6062"/>
<path id="Path 6" d="M63.5847 14.2676C62.9596 14.2694 62.3376 14.1793 61.7387 14.0003C61.136 13.819 60.5679 13.5382 60.0579 13.1694L61.0354 11.5848C61.4428 11.8569 61.8855 12.0722 62.3511 12.2246C62.7534 12.3596 63.1742 12.4314 63.5984 12.4372C64.0417 12.4372 64.2587 12.3052 64.2587 12.0389V12.01C64.2587 11.8634 64.1587 11.7494 63.9586 11.6679C63.6646 11.5552 63.3647 11.4585 63.0603 11.3781C62.7091 11.2915 62.3636 11.1828 62.0261 11.0526C61.7262 10.9407 61.4432 10.788 61.1849 10.599C60.9337 10.4159 60.7317 10.1733 60.5972 9.89306C60.4627 9.61277 60.3998 9.30349 60.4142 8.99292V8.96506C60.4075 8.60076 60.4855 8.23989 60.6419 7.91081C60.7895 7.60861 61.0043 7.34426 61.27 7.13808C61.5534 6.92376 61.8733 6.76263 62.2143 6.66252C62.6012 6.54915 63.0027 6.49381 63.4059 6.4983C63.9558 6.49751 64.5031 6.57368 65.032 6.7246C65.5433 6.86629 66.0311 7.08235 66.4797 7.36585L65.5847 9.02029C65.211 8.81498 64.8181 8.64654 64.4117 8.51736C64.0777 8.4047 63.7289 8.34211 63.3765 8.33163C63.218 8.32057 63.0596 8.35662 62.9215 8.43525C62.8766 8.46121 62.8391 8.49825 62.8126 8.54283C62.786 8.5874 62.7714 8.63804 62.77 8.68989V8.71482C62.77 8.86145 62.8726 8.97875 63.0808 9.06673C63.289 9.1547 63.5867 9.25636 63.9831 9.37611C64.3497 9.47777 64.6947 9.59051 65.0183 9.71433C65.3183 9.82653 65.6013 9.97966 65.8594 10.1694C66.093 10.3434 66.2852 10.5671 66.422 10.8243C66.5687 11.1087 66.6417 11.4252 66.6346 11.7451V11.7715C66.6433 12.1448 66.5682 12.5152 66.4147 12.8556C66.2695 13.1587 66.057 13.4247 65.7934 13.6332C65.5072 13.8548 65.1795 14.0168 64.8296 14.1097C64.4237 14.2184 64.0049 14.2716 63.5847 14.2676Z" fill="#5F6062"/>
<path id="Path 7" d="M67.3613 4.03906H69.9957V9.13975L72.0212 6.64708H74.9855L72.3951 9.63828L75.0563 14.106H72.1727L70.6707 11.5694L69.9957 12.3548V14.106H67.3613V4.03906Z" fill="#5F6062"/>
</g>
<g id="Group 2">
<path id="Path 8" d="M33.7411 5.26585V4.03906H31.1072V6.67445L33.7411 5.26585Z" fill="#F37321"/>
<path id="Path 9" d="M31.1072 8.19523V14.1043H33.7411V5.78223L31.1072 8.19523Z" fill="#5F6062"/>
</g>
</g>
<g id="Group 4">
<path id="Path 10" d="M8.30619 3.29652L6.18106 4.52281V6.8366L8.30619 5.60884L11.38 7.3845V10.9348L8.30619 12.71L5.2314 10.9353V3.98469L7.83013 2.4754V0.161133L0.273926 4.52477V13.7975L7.82964 18.1597V15.8474L2.27735 12.6435V5.6841L3.22652 5.13572V12.0917L8.30619 15.0243L13.3849 12.0917V6.22663L8.30619 3.29652Z" fill="#F37321"/>
<path id="Path 11" d="M8.78125 0.161133V2.47492L14.3345 5.67922V12.6396L8.78125 15.8474V18.1611L16.3414 13.7975V4.52233L8.78125 0.161133Z" fill="#5F6062"/>
</g>
</g>
</g>
<defs>
<clipPath id="clip0_3243_2010">
<rect width="74.7801" height="18" fill="white" transform="translate(0.273926 0.161133)"/>
</clipPath>
</defs>
</svg>
