<svg width="100" height="100" viewBox="0 0 100 100" fill="none" xmlns="http://www.w3.org/2000/svg">
<g clip-path="url(#clip0_3463_2239)">
<path d="M50 98.9574C23.0057 98.9574 1.0423 76.9957 1.0423 49.9997C1.0423 23.0036 23.0039 1.04199 50 1.04199C76.996 1.04199 98.9577 23.0036 98.9577 49.9997C98.9577 76.9957 76.996 98.9574 50 98.9574ZM50 3.1301C24.1557 3.1301 3.13041 24.1554 3.13041 49.9997C3.13041 75.844 24.1557 96.8692 50 96.8692C75.8443 96.8692 96.8696 75.844 96.8696 49.9997C96.8696 24.1554 75.8425 3.1301 50 3.1301Z" fill="url(#paint0_linear_3463_2239)"/>
<mask id="mask0_3463_2239" style="mask-type:luminance" maskUnits="userSpaceOnUse" x="72" y="43" width="9" height="15">
<path d="M76.9161 45.1182C77.5189 45.1182 78.0088 45.6063 78.0088 46.2109V54.5546C78.0088 55.1574 77.5207 55.6473 76.9161 55.6473H74.5709V45.1199H76.9161M76.9161 43.0283H72.4828V57.7337H76.9161C78.6707 57.7337 80.0969 56.3075 80.0969 54.5529V46.2091C80.0969 44.4546 78.6707 43.0283 76.9161 43.0283Z" fill="white"/>
</mask>
<g mask="url(#mask0_3463_2239)">
<path d="M80.0969 43.0283H80.0587V57.7337H80.0969V43.0283Z" fill="#C8992E"/>
<path d="M80.0587 43.0283H80.0205V57.7337H80.0587V43.0283Z" fill="#C7982D"/>
<path d="M80.0205 43.0283H79.9823V57.7337H80.0205V43.0283Z" fill="#C7972C"/>
<path d="M79.9823 43.0283H79.9441V57.7337H79.9823V43.0283Z" fill="#C6962B"/>
<path d="M79.944 43.0283H79.9058V57.7337H79.944V43.0283Z" fill="#C5952A"/>
<path d="M79.9058 43.0283H79.8676V57.7337H79.9058V43.0283Z" fill="#C59429"/>
<path d="M79.8676 43.0283H79.8294V57.7337H79.8676V43.0283Z" fill="#C49328"/>
<path d="M79.8294 43.0283H79.7912V57.7337H79.8294V43.0283Z" fill="#C39227"/>
<path d="M79.7912 43.0283H79.753V57.7337H79.7912V43.0283Z" fill="#C39126"/>
<path d="M79.753 43.0283H79.7148V57.7337H79.753V43.0283Z" fill="#C29125"/>
<path d="M79.7147 43.0283H79.6765V57.7337H79.7147V43.0283Z" fill="#C19024"/>
<path d="M79.6765 43.0283H79.6383V57.7337H79.6765V43.0283Z" fill="#C18F22"/>
<path d="M79.6383 43.0283H79.6001V57.7337H79.6383V43.0283Z" fill="#C08E21"/>
<path d="M79.6001 43.0283H79.5619V57.7337H79.6001V43.0283Z" fill="#BF8D20"/>
<path d="M79.5619 43.0283H79.5237V57.7337H79.5619V43.0283Z" fill="#BF8C1F"/>
<path d="M79.5237 43.0283H79.4854V57.7337H79.5237V43.0283Z" fill="#BE8B1E"/>
<path d="M79.4854 43.0283H79.4472V57.7337H79.4854V43.0283Z" fill="#BD8A1D"/>
<path d="M79.4472 43.0283H79.409V57.7337H79.4472V43.0283Z" fill="#BD891C"/>
<path d="M79.409 43.0283H79.3708V57.7337H79.409V43.0283Z" fill="#BC881B"/>
<path d="M79.3708 43.0283H79.3326V57.7337H79.3708V43.0283Z" fill="#BB871A"/>
<path d="M79.3326 43.0283H79.2943V57.7337H79.3326V43.0283Z" fill="#BB8619"/>
<path d="M79.2944 43.0283H79.2561V57.7337H79.2944V43.0283Z" fill="#BA8518"/>
<path d="M79.2561 43.0283H79.2179V57.7337H79.2561V43.0283Z" fill="#B98417"/>
<path d="M79.2179 43.0283H79.1797V57.7337H79.2179V43.0283Z" fill="#B98316"/>
<path d="M79.1797 43.0283H79.1415V57.7337H79.1797V43.0283Z" fill="#B88315"/>
<path d="M79.1415 43.0283H79.1032V57.7337H79.1415V43.0283Z" fill="#B88214"/>
<path d="M79.1033 43.0283H79.065V57.7337H79.1033V43.0283Z" fill="#B78113"/>
<path d="M79.065 43.0283H79.0268V57.7337H79.065V43.0283Z" fill="#B68012"/>
<path d="M79.0268 43.0283H78.9886V57.7337H79.0268V43.0283Z" fill="#B67F11"/>
<path d="M78.9886 43.0283H78.9504V57.7337H78.9886V43.0283Z" fill="#B57E10"/>
<path d="M78.9486 43.0283H78.9295V57.7337H78.9486V43.0283Z" fill="#B57E10"/>
<path d="M78.9295 43.0283H78.9104V57.7337H78.9295V43.0283Z" fill="#B67F11"/>
<path d="M78.9087 43.0283H78.8896V57.7337H78.9087V43.0283Z" fill="#B68012"/>
<path d="M78.8896 43.0283H78.8705V57.7337H78.8896V43.0283Z" fill="#B78113"/>
<path d="M78.8705 43.0283H78.8513V57.7337H78.8705V43.0283Z" fill="#B88214"/>
<path d="M78.8496 43.0283H78.8305V57.7337H78.8496V43.0283Z" fill="#B88315"/>
<path d="M78.8305 43.0283H78.8114V57.7337H78.8305V43.0283Z" fill="#B98416"/>
<path d="M78.8097 43.0283H78.7906V57.7337H78.8097V43.0283Z" fill="#BA8417"/>
<path d="M78.7906 43.0283H78.7715V57.7337H78.7906V43.0283Z" fill="#BA8518"/>
<path d="M78.7697 43.0283H78.7506V57.7337H78.7697V43.0283Z" fill="#BB8619"/>
<path d="M78.7506 43.0283H78.7315V57.7337H78.7506V43.0283Z" fill="#BB871A"/>
<path d="M78.7297 43.0283H78.7106V57.7337H78.7297V43.0283Z" fill="#BC881B"/>
<path d="M78.7106 43.0283H78.6915V57.7337H78.7106V43.0283Z" fill="#BD891C"/>
<path d="M78.6915 43.0283H78.6724V57.7337H78.6915V43.0283Z" fill="#BD8A1D"/>
<path d="M78.6707 43.0283H78.6516V57.7337H78.6707V43.0283Z" fill="#BE8B1E"/>
<path d="M78.6516 43.0283H78.6325V57.7337H78.6516V43.0283Z" fill="#BF8C1F"/>
<path d="M78.6307 43.0283H78.6116V57.7337H78.6307V43.0283Z" fill="#BF8D20"/>
<path d="M78.6116 43.0283H78.5925V57.7337H78.6116V43.0283Z" fill="#C08E21"/>
<path d="M78.5908 43.0283H78.5717V57.7337H78.5908V43.0283Z" fill="#C18F22"/>
<path d="M78.5717 43.0283H78.5526V57.7337H78.5717V43.0283Z" fill="#C19023"/>
<path d="M78.5526 43.0283H78.5334V57.7337H78.5526V43.0283Z" fill="#C29024"/>
<path d="M78.5317 43.0283H78.5126V57.7337H78.5317V43.0283Z" fill="#C39125"/>
<path d="M78.5126 43.0283H78.4935V57.7337H78.5126V43.0283Z" fill="#C39226"/>
<path d="M78.4918 43.0283H78.4727V57.7337H78.4918V43.0283Z" fill="#C49327"/>
<path d="M78.4726 43.0283H78.4535V57.7337H78.4726V43.0283Z" fill="#C59428"/>
<path d="M78.4518 43.0283H78.4327V57.7337H78.4518V43.0283Z" fill="#C59529"/>
<path d="M78.4327 43.0283H78.4136V57.7337H78.4327V43.0283Z" fill="#C6962B"/>
<path d="M78.4136 43.0283H78.3945V57.7337H78.4136V43.0283Z" fill="#C6972C"/>
<path d="M78.3927 43.0283H78.3736V57.7337H78.3927V43.0283Z" fill="#C7982D"/>
<path d="M78.3736 43.0283H78.3545V57.7337H78.3736V43.0283Z" fill="#C8992E"/>
<path d="M78.3528 43.0283H78.3337V57.7337H78.3528V43.0283Z" fill="#C89A2F"/>
<path d="M78.3337 43.0283H78.3146V57.7337H78.3337V43.0283Z" fill="#C99B30"/>
<path d="M78.3128 43.0283H78.2937V57.7337H78.3128V43.0283Z" fill="#CA9C31"/>
<path d="M78.2937 43.0283H78.2746V57.7337H78.2937V43.0283Z" fill="#CA9C32"/>
<path d="M78.2746 43.0283H78.2555V57.7337H78.2746V43.0283Z" fill="#CB9D33"/>
<path d="M78.2538 43.0283H78.2346V57.7337H78.2538V43.0283Z" fill="#CC9E34"/>
<path d="M78.2347 43.0283H78.2155V57.7337H78.2347V43.0283Z" fill="#CC9F35"/>
<path d="M78.2138 43.0283H78.1947V57.7337H78.2138V43.0283Z" fill="#CDA036"/>
<path d="M78.1947 43.0283H78.1756V57.7337H78.1947V43.0283Z" fill="#CEA137"/>
<path d="M78.1739 43.0283H78.1548V57.7337H78.1739V43.0283Z" fill="#CEA238"/>
<path d="M78.1547 43.0283H78.1356V57.7337H78.1547V43.0283Z" fill="#CFA339"/>
<path d="M78.1339 43.0283H78.1148V57.7337H78.1339V43.0283Z" fill="#D0A43A"/>
<path d="M78.1148 43.0283H78.0957V57.7337H78.1148V43.0283Z" fill="#D0A53B"/>
<path d="M78.0957 43.0283H78.0766V57.7337H78.0957V43.0283Z" fill="#D1A63C"/>
<path d="M78.0748 43.0283H78.0557V57.7337H78.0748V43.0283Z" fill="#D1A73D"/>
<path d="M78.0557 43.0283H78.0366V57.7337H78.0557V43.0283Z" fill="#D2A83E"/>
<path d="M78.0349 43.0283H78.0158V57.7337H78.0349V43.0283Z" fill="#D3A83F"/>
<path d="M78.0157 43.0283H77.9966V57.7337H78.0157V43.0283Z" fill="#D3A940"/>
<path d="M77.9949 43.0283H77.9758V57.7337H77.9949V43.0283Z" fill="#D4AA41"/>
<path d="M77.9758 43.0283H77.9567V57.7337H77.9758V43.0283Z" fill="#D5AB42"/>
<path d="M77.9567 43.0283H77.9376V57.7337H77.9567V43.0283Z" fill="#D5AC43"/>
<path d="M77.9359 43.0283H77.9167V57.7337H77.9359V43.0283Z" fill="#D6AD44"/>
<path d="M77.9168 43.0283H77.8976V57.7337H77.9168V43.0283Z" fill="#D7AE45"/>
<path d="M77.8959 43.0283H77.8768V57.7337H77.8959V43.0283Z" fill="#D7AF46"/>
<path d="M77.8768 43.0283H77.8577V57.7337H77.8768V43.0283Z" fill="#D8B047"/>
<path d="M77.8559 43.0283H77.8368V57.7337H77.8559V43.0283Z" fill="#D9B148"/>
<path d="M77.8368 43.0283H77.8177V57.7337H77.8368V43.0283Z" fill="#D9B249"/>
<path d="M77.8177 43.0283H77.7986V57.7337H77.8177V43.0283Z" fill="#DAB34A"/>
<path d="M77.7969 43.0283H77.7778V57.7337H77.7969V43.0283Z" fill="#DAB34B"/>
<path d="M77.7778 43.0283H77.7587V57.7337H77.7778V43.0283Z" fill="#DBB44C"/>
<path d="M77.7569 43.0283H77.7378V57.7337H77.7569V43.0283Z" fill="#DCB54D"/>
<path d="M77.7378 43.0283H77.7187V57.7337H77.7378V43.0283Z" fill="#DCB64E"/>
<path d="M77.717 43.0283H77.6978V57.7337H77.717V43.0283Z" fill="#DDB74F"/>
<path d="M77.6979 43.0283H77.6787V57.7337H77.6979V43.0283Z" fill="#DEB850"/>
<path d="M77.6787 43.0283H77.6596V57.7337H77.6787V43.0283Z" fill="#DEB951"/>
<path d="M77.6579 43.0283H77.6388V57.7337H77.6579V43.0283Z" fill="#DFBA52"/>
<path d="M77.6388 43.0283H77.6197V57.7337H77.6388V43.0283Z" fill="#E0BB53"/>
<path d="M77.618 43.0283H77.5988V57.7337H77.618V43.0283Z" fill="#E0BC54"/>
<path d="M77.5988 43.0283H77.5797V57.7337H77.5988V43.0283Z" fill="#E1BD55"/>
<path d="M77.578 43.0283H77.5589V57.7337H77.578V43.0283Z" fill="#E2BE56"/>
<path d="M77.5589 43.0283H77.5398V57.7337H77.5589V43.0283Z" fill="#E2BE57"/>
<path d="M77.538 43.0283H77.5189V57.7337H77.538V43.0283Z" fill="#E3BF58"/>
<path d="M77.5189 43.0283H77.4998V57.7337H77.5189V43.0283Z" fill="#E3C059"/>
<path d="M77.4998 43.0283H77.4807V57.7337H77.4998V43.0283Z" fill="#E4C15A"/>
<path d="M77.479 43.0283H77.4599V57.7337H77.479V43.0283Z" fill="#E5C25B"/>
<path d="M77.4599 43.0283H77.4408V57.7337H77.4599V43.0283Z" fill="#E5C35C"/>
<path d="M77.439 43.0283H77.4199V57.7337H77.439V43.0283Z" fill="#E6C45D"/>
<path d="M77.4199 43.0283H77.4008V57.7337H77.4199V43.0283Z" fill="#E7C55E"/>
<path d="M77.3991 43.0283H77.3799V57.7337H77.3991V43.0283Z" fill="#E7C65F"/>
<path d="M77.3799 43.0283H77.3608V57.7337H77.3799V43.0283Z" fill="#E8C760"/>
<path d="M77.3608 43.0283H77.3417V57.7337H77.3608V43.0283Z" fill="#E9C861"/>
<path d="M77.34 43.0283H77.3209V57.7337H77.34V43.0283Z" fill="#E9C962"/>
<path d="M77.3209 43.0283H77.3018V57.7337H77.3209V43.0283Z" fill="#EAC963"/>
<path d="M77.3 43.0283H77.2809V57.7337H77.3V43.0283Z" fill="#EBCA64"/>
<path d="M77.2809 43.0283H77.2618V57.7337H77.2809V43.0283Z" fill="#EBCB65"/>
<path d="M77.2601 43.0283H77.241V57.7337H77.2601V43.0283Z" fill="#ECCC66"/>
<path d="M77.241 43.0283H77.2219V57.7337H77.241V43.0283Z" fill="#ECCD67"/>
<path d="M77.2219 43.0283H77.2028V57.7337H77.2219V43.0283Z" fill="#EDCE68"/>
<path d="M77.201 43.0283H77.1819V57.7337H77.201V43.0283Z" fill="#EECF69"/>
<path d="M77.1819 43.0283H77.1628V57.7337H77.1819V43.0283Z" fill="#EED06A"/>
<path d="M77.1611 43.0283H77.142V57.7337H77.1611V43.0283Z" fill="#EFD16B"/>
<path d="M77.1419 43.0283H77.1228V57.7337H77.1419V43.0283Z" fill="#F0D26C"/>
<path d="M77.1211 43.0283H77.102V57.7337H77.1211V43.0283Z" fill="#F0D26D"/>
<path d="M77.102 43.0283H77.0829V57.7337H77.102V43.0283Z" fill="#F1D36E"/>
<path d="M77.0829 43.0283H77.0638V57.7337H77.0829V43.0283Z" fill="#F1D46F"/>
<path d="M77.0621 43.0283H77.0429V57.7337H77.0621V43.0283Z" fill="#F2D570"/>
<path d="M77.0429 43.0283H77.0238V57.7337H77.0429V43.0283Z" fill="#F3D671"/>
<path d="M77.0221 43.0283H77.003V57.7337H77.0221V43.0283Z" fill="#F3D772"/>
<path d="M77.003 43.0283H76.9839V57.7337H77.003V43.0283Z" fill="#F4D873"/>
<path d="M76.9821 43.0283H76.963V57.7337H76.9821V43.0283Z" fill="#F5D974"/>
<path d="M76.963 43.0283H76.9439V57.7337H76.963V43.0283Z" fill="#F5DA75"/>
<path d="M76.9422 43.0283H76.9231V57.7337H76.9422V43.0283Z" fill="#F6DB76"/>
<path d="M76.9231 43.0283H76.904V57.7337H76.9231V43.0283Z" fill="#F7DB77"/>
<path d="M76.904 43.0283H76.8849V57.7337H76.904V43.0283Z" fill="#F7DC78"/>
<path d="M76.8831 43.0283H76.864V57.7337H76.8831V43.0283Z" fill="#F8DD79"/>
<path d="M76.864 43.0283H76.8449V57.7337H76.864V43.0283Z" fill="#F8DE7A"/>
<path d="M76.8431 43.0283H76.824V57.7337H76.8431V43.0283Z" fill="#F9DF7B"/>
<path d="M76.8241 43.0283H76.7963V57.7337H76.8241V43.0283Z" fill="#F9DF7B"/>
<path d="M76.7945 43.0283H76.7667V57.7337H76.7945V43.0283Z" fill="#F9DF7C"/>
<path d="M76.7667 43.0283H76.7389V57.7337H76.7667V43.0283Z" fill="#F9E07D"/>
<path d="M76.7389 43.0283H76.7111V57.7337H76.7389V43.0283Z" fill="#F9E07E"/>
<path d="M76.7094 43.0283H76.6816V57.7337H76.7094V43.0283Z" fill="#FAE17F"/>
<path d="M76.6816 43.0283H76.6538V57.7337H76.6816V43.0283Z" fill="#FAE180"/>
<path d="M76.6521 43.0283H76.6243V57.7337H76.6521V43.0283Z" fill="#FAE281"/>
<path d="M76.6243 43.0283H76.5965V57.7337H76.6243V43.0283Z" fill="#FAE282"/>
<path d="M76.5965 43.0283H76.5687V57.7337H76.5965V43.0283Z" fill="#FAE383"/>
<path d="M76.5669 43.0283H76.5392V57.7337H76.5669V43.0283Z" fill="#FAE384"/>
<path d="M76.5391 43.0283H76.5114V57.7337H76.5391V43.0283Z" fill="#FAE485"/>
<path d="M76.5096 43.0283H76.4818V57.7337H76.5096V43.0283Z" fill="#FBE486"/>
<path d="M76.4818 43.0283H76.454V57.7337H76.4818V43.0283Z" fill="#FBE587"/>
<path d="M76.4523 43.0283H76.4245V57.7337H76.4523V43.0283Z" fill="#FBE588"/>
<path d="M76.4245 43.0283H76.3967V57.7337H76.4245V43.0283Z" fill="#FBE689"/>
<path d="M76.3967 43.0283H76.3689V57.7337H76.3967V43.0283Z" fill="#FBE68A"/>
<path d="M76.3672 43.0283H76.3394V57.7337H76.3672V43.0283Z" fill="#FBE78B"/>
<path d="M76.3394 43.0283H76.3116V57.7337H76.3394V43.0283Z" fill="#FBE78C"/>
<path d="M76.3098 43.0283H76.282V57.7337H76.3098V43.0283Z" fill="#FCE88D"/>
<path d="M76.282 43.0283H76.2542V57.7337H76.282V43.0283Z" fill="#FCE88E"/>
<path d="M76.2542 43.0283H76.2264V57.7337H76.2542V43.0283Z" fill="#FCE98F"/>
<path d="M76.2247 43.0283H76.1969V57.7337H76.2247V43.0283Z" fill="#FCE991"/>
<path d="M76.1969 43.0283H76.1691V57.7337H76.1969V43.0283Z" fill="#FCE992"/>
<path d="M76.1674 43.0283H76.1396V57.7337H76.1674V43.0283Z" fill="#FCEA93"/>
<path d="M76.1396 43.0283H76.1118V57.7337H76.1396V43.0283Z" fill="#FCEA94"/>
<path d="M76.1101 43.0283H76.0823V57.7337H76.1101V43.0283Z" fill="#FDEB95"/>
<path d="M76.0823 43.0283H76.0545V57.7337H76.0823V43.0283Z" fill="#FDEB96"/>
<path d="M76.0545 43.0283H76.0267V57.7337H76.0545V43.0283Z" fill="#FDEC97"/>
<path d="M76.0249 43.0283H75.9971V57.7337H76.0249V43.0283Z" fill="#FDEC98"/>
<path d="M75.9972 43.0283H75.9694V57.7337H75.9972V43.0283Z" fill="#FDED99"/>
<path d="M75.9676 43.0283H75.9398V57.7337H75.9676V43.0283Z" fill="#FDED9A"/>
<path d="M75.9398 43.0283H75.912V57.7337H75.9398V43.0283Z" fill="#FDEE9B"/>
<path d="M75.9103 43.0283H75.8825V57.7337H75.9103V43.0283Z" fill="#FEEE9C"/>
<path d="M75.8825 43.0283H75.8547V57.7337H75.8825V43.0283Z" fill="#FEEF9D"/>
<path d="M75.8547 43.0283H75.8269V57.7337H75.8547V43.0283Z" fill="#FEEF9E"/>
<path d="M75.8252 43.0283H75.7974V57.7337H75.8252V43.0283Z" fill="#FEF09F"/>
<path d="M75.7974 43.0283H75.7696V57.7337H75.7974V43.0283Z" fill="#FEF0A0"/>
<path d="M75.7678 43.0283H75.74V57.7337H75.7678V43.0283Z" fill="#FEF1A1"/>
<path d="M75.74 43.0283H75.7122V57.7337H75.74V43.0283Z" fill="#FEF1A2"/>
<path d="M75.7122 43.0283H75.6844V57.7337H75.7122V43.0283Z" fill="#FFF2A3"/>
<path d="M75.6827 43.0283H75.6549V57.7337H75.6827V43.0283Z" fill="#FFF2A4"/>
<path d="M75.6549 43.0283H75.6271V57.7337H75.6549V43.0283Z" fill="#FFF3A5"/>
<path d="M75.6254 43.0283H75.5976V57.7337H75.6254V43.0283Z" fill="#FFF3A6"/>
<path d="M75.5976 43.0283H75.5733V57.7337H75.5976V43.0283Z" fill="#FFF3A6"/>
<path d="M75.575 43.0283H75.5507V57.7337H75.575V43.0283Z" fill="#FFF3A5"/>
<path d="M75.5507 43.0283H75.5264V57.7337H75.5507V43.0283Z" fill="#FFF2A4"/>
<path d="M75.5264 43.0283H75.502V57.7337H75.5264V43.0283Z" fill="#FFF2A3"/>
<path d="M75.502 43.0283H75.4777V57.7337H75.502V43.0283Z" fill="#FEF1A2"/>
<path d="M75.4777 43.0283H75.4534V57.7337H75.4777V43.0283Z" fill="#FEF1A1"/>
<path d="M75.4551 43.0283H75.4308V57.7337H75.4551V43.0283Z" fill="#FEF0A0"/>
<path d="M75.4308 43.0283H75.4065V57.7337H75.4308V43.0283Z" fill="#FEF09F"/>
<path d="M75.4065 43.0283H75.3822V57.7337H75.4065V43.0283Z" fill="#FEEF9E"/>
<path d="M75.3822 43.0283H75.3578V57.7337H75.3822V43.0283Z" fill="#FEEF9D"/>
<path d="M75.3578 43.0283H75.3335V57.7337H75.3578V43.0283Z" fill="#FEEE9C"/>
<path d="M75.3353 43.0283H75.3109V57.7337H75.3353V43.0283Z" fill="#FDEE9B"/>
<path d="M75.3109 43.0283H75.2866V57.7337H75.3109V43.0283Z" fill="#FDED9A"/>
<path d="M75.2866 43.0283H75.2623V57.7337H75.2866V43.0283Z" fill="#FDED99"/>
<path d="M75.2623 43.0283H75.238V57.7337H75.2623V43.0283Z" fill="#FDEC98"/>
<path d="M75.238 43.0283H75.2137V57.7337H75.238V43.0283Z" fill="#FDEC97"/>
<path d="M75.2136 43.0283H75.1893V57.7337H75.2136V43.0283Z" fill="#FDEB96"/>
<path d="M75.1911 43.0283H75.1667V57.7337H75.1911V43.0283Z" fill="#FDEB95"/>
<path d="M75.1667 43.0283H75.1424V57.7337H75.1667V43.0283Z" fill="#FCEA94"/>
<path d="M75.1425 43.0283H75.1181V57.7337H75.1425V43.0283Z" fill="#FCEA93"/>
<path d="M75.1181 43.0283H75.0938V57.7337H75.1181V43.0283Z" fill="#FCE992"/>
<path d="M75.0938 43.0283H75.0695V57.7337H75.0938V43.0283Z" fill="#FCE991"/>
<path d="M75.0712 43.0283H75.0469V57.7337H75.0712V43.0283Z" fill="#FCE98F"/>
<path d="M75.0469 43.0283H75.0226V57.7337H75.0469V43.0283Z" fill="#FCE88E"/>
<path d="M75.0226 43.0283H74.9983V57.7337H75.0226V43.0283Z" fill="#FCE88D"/>
<path d="M74.9983 43.0283H74.9739V57.7337H74.9983V43.0283Z" fill="#FBE78C"/>
<path d="M74.9739 43.0283H74.9496V57.7337H74.9739V43.0283Z" fill="#FBE78B"/>
<path d="M74.9496 43.0283H74.9253V57.7337H74.9496V43.0283Z" fill="#FBE68A"/>
<path d="M74.927 43.0283H74.9027V57.7337H74.927V43.0283Z" fill="#FBE689"/>
<path d="M74.9027 43.0283H74.8784V57.7337H74.9027V43.0283Z" fill="#FBE588"/>
<path d="M74.8784 43.0283H74.8541V57.7337H74.8784V43.0283Z" fill="#FBE587"/>
<path d="M74.8541 43.0283H74.8297V57.7337H74.8541V43.0283Z" fill="#FBE486"/>
<path d="M74.8297 43.0283H74.8054V57.7337H74.8297V43.0283Z" fill="#FAE485"/>
<path d="M74.8072 43.0283H74.7828V57.7337H74.8072V43.0283Z" fill="#FAE384"/>
<path d="M74.7828 43.0283H74.7585V57.7337H74.7828V43.0283Z" fill="#FAE383"/>
<path d="M74.7585 43.0283H74.7342V57.7337H74.7585V43.0283Z" fill="#FAE282"/>
<path d="M74.7342 43.0283H74.7099V57.7337H74.7342V43.0283Z" fill="#FAE281"/>
<path d="M74.7099 43.0283H74.6855V57.7337H74.7099V43.0283Z" fill="#FAE180"/>
<path d="M74.6855 43.0283H74.6612V57.7337H74.6855V43.0283Z" fill="#FAE17F"/>
<path d="M74.663 43.0283H74.6386V57.7337H74.663V43.0283Z" fill="#F9E07E"/>
<path d="M74.6387 43.0283H74.6143V57.7337H74.6387V43.0283Z" fill="#F9E07D"/>
<path d="M74.6143 43.0283H74.59V57.7337H74.6143V43.0283Z" fill="#F9DF7C"/>
<path d="M74.59 43.0283H74.5657V57.7337H74.59V43.0283Z" fill="#F9DF7B"/>
<path d="M74.5657 43.0283H74.5518V57.7337H74.5657V43.0283Z" fill="#F9DF7B"/>
<path d="M74.5518 43.0283H74.5379V57.7337H74.5518V43.0283Z" fill="#F8DE7A"/>
<path d="M74.5379 43.0283H74.524V57.7337H74.5379V43.0283Z" fill="#F8DD79"/>
<path d="M74.524 43.0283H74.5101V57.7337H74.524V43.0283Z" fill="#F7DC78"/>
<path d="M74.5084 43.0283H74.4945V57.7337H74.5084V43.0283Z" fill="#F6DB77"/>
<path d="M74.4945 43.0283H74.4806V57.7337H74.4945V43.0283Z" fill="#F6DA76"/>
<path d="M74.4806 43.0283H74.4667V57.7337H74.4806V43.0283Z" fill="#F5DA75"/>
<path d="M74.4667 43.0283H74.4528V57.7337H74.4667V43.0283Z" fill="#F5D974"/>
<path d="M74.4528 43.0283H74.4389V57.7337H74.4528V43.0283Z" fill="#F4D873"/>
<path d="M74.4389 43.0283H74.425V57.7337H74.4389V43.0283Z" fill="#F3D772"/>
<path d="M74.4232 43.0283H74.4093V57.7337H74.4232V43.0283Z" fill="#F3D671"/>
<path d="M74.4093 43.0283H74.3954V57.7337H74.4093V43.0283Z" fill="#F2D570"/>
<path d="M74.3955 43.0283H74.3816V57.7337H74.3955V43.0283Z" fill="#F1D46F"/>
<path d="M74.3815 43.0283H74.3676V57.7337H74.3815V43.0283Z" fill="#F1D36E"/>
<path d="M74.3677 43.0283H74.3538V57.7337H74.3677V43.0283Z" fill="#F0D26D"/>
<path d="M74.3537 43.0283H74.3398V57.7337H74.3537V43.0283Z" fill="#EFD16C"/>
<path d="M74.3381 43.0283H74.3242V57.7337H74.3381V43.0283Z" fill="#EFD06B"/>
<path d="M74.3242 43.0283H74.3103V57.7337H74.3242V43.0283Z" fill="#EECF6A"/>
<path d="M74.3103 43.0283H74.2964V57.7337H74.3103V43.0283Z" fill="#EDCF69"/>
<path d="M74.2964 43.0283H74.2825V57.7337H74.2964V43.0283Z" fill="#EDCE68"/>
<path d="M74.2825 43.0283H74.2686V57.7337H74.2825V43.0283Z" fill="#ECCD67"/>
<path d="M74.2686 43.0283H74.2547V57.7337H74.2686V43.0283Z" fill="#ECCC66"/>
<path d="M74.253 43.0283H74.2391V57.7337H74.253V43.0283Z" fill="#EBCB65"/>
<path d="M74.2391 43.0283H74.2252V57.7337H74.2391V43.0283Z" fill="#EACA64"/>
<path d="M74.2252 43.0283H74.2113V57.7337H74.2252V43.0283Z" fill="#EAC963"/>
<path d="M74.2113 43.0283H74.1974V57.7337H74.2113V43.0283Z" fill="#E9C862"/>
<path d="M74.1974 43.0283H74.1835V57.7337H74.1974V43.0283Z" fill="#E8C761"/>
<path d="M74.1835 43.0283H74.1696V57.7337H74.1835V43.0283Z" fill="#E8C660"/>
<path d="M74.1679 43.0283H74.154V57.7337H74.1679V43.0283Z" fill="#E7C55F"/>
<path d="M74.154 43.0283H74.1401V57.7337H74.154V43.0283Z" fill="#E6C45E"/>
<path d="M74.1401 43.0283H74.1262V57.7337H74.1401V43.0283Z" fill="#E6C45D"/>
<path d="M74.1262 43.0283H74.1123V57.7337H74.1262V43.0283Z" fill="#E5C35C"/>
<path d="M74.1123 43.0283H74.0984V57.7337H74.1123V43.0283Z" fill="#E4C25B"/>
<path d="M74.0984 43.0283H74.0845V57.7337H74.0984V43.0283Z" fill="#E4C15A"/>
<path d="M74.0827 43.0283H74.0688V57.7337H74.0827V43.0283Z" fill="#E3C059"/>
<path d="M74.0689 43.0283H74.055V57.7337H74.0689V43.0283Z" fill="#E3BF58"/>
<path d="M74.0549 43.0283H74.041V57.7337H74.0549V43.0283Z" fill="#E2BE57"/>
<path d="M74.0411 43.0283H74.0272V57.7337H74.0411V43.0283Z" fill="#E1BD56"/>
<path d="M74.0272 43.0283H74.0133V57.7337H74.0272V43.0283Z" fill="#E1BC55"/>
<path d="M74.0133 43.0283H73.9994V57.7337H74.0133V43.0283Z" fill="#E0BB54"/>
<path d="M73.9976 43.0283H73.9837V57.7337H73.9976V43.0283Z" fill="#DFBA53"/>
<path d="M73.9837 43.0283H73.9698V57.7337H73.9837V43.0283Z" fill="#DFB952"/>
<path d="M73.9698 43.0283H73.9559V57.7337H73.9698V43.0283Z" fill="#DEB951"/>
<path d="M73.9559 43.0283H73.942V57.7337H73.9559V43.0283Z" fill="#DDB850"/>
<path d="M73.942 43.0283H73.9281V57.7337H73.942V43.0283Z" fill="#DDB74F"/>
<path d="M73.9281 43.0283H73.9142V57.7337H73.9281V43.0283Z" fill="#DCB64E"/>
<path d="M73.9125 43.0283H73.8986V57.7337H73.9125V43.0283Z" fill="#DBB54D"/>
<path d="M73.8986 43.0283H73.8847V57.7337H73.8986V43.0283Z" fill="#DBB44C"/>
<path d="M73.8847 43.0283H73.8708V57.7337H73.8847V43.0283Z" fill="#DAB34B"/>
<path d="M73.8708 43.0283H73.8569V57.7337H73.8708V43.0283Z" fill="#DAB24A"/>
<path d="M73.8569 43.0283H73.843V57.7337H73.8569V43.0283Z" fill="#D9B149"/>
<path d="M73.843 43.0283H73.8291V57.7337H73.843V43.0283Z" fill="#D8B048"/>
<path d="M73.8274 43.0283H73.8135V57.7337H73.8274V43.0283Z" fill="#D8AF47"/>
<path d="M73.8135 43.0283H73.7996V57.7337H73.8135V43.0283Z" fill="#D7AF46"/>
<path d="M73.7996 43.0283H73.7857V57.7337H73.7996V43.0283Z" fill="#D6AE44"/>
<path d="M73.7857 43.0283H73.7718V57.7337H73.7857V43.0283Z" fill="#D6AD43"/>
<path d="M73.7718 43.0283H73.7579V57.7337H73.7718V43.0283Z" fill="#D5AC42"/>
<path d="M73.7579 43.0283H73.744V57.7337H73.7579V43.0283Z" fill="#D4AB41"/>
<path d="M73.7423 43.0283H73.7284V57.7337H73.7423V43.0283Z" fill="#D4AA40"/>
<path d="M73.7284 43.0283H73.7145V57.7337H73.7284V43.0283Z" fill="#D3A93F"/>
<path d="M73.7145 43.0283H73.7006V57.7337H73.7145V43.0283Z" fill="#D3A83E"/>
<path d="M73.7006 43.0283H73.6867V57.7337H73.7006V43.0283Z" fill="#D2A73D"/>
<path d="M73.6867 43.0283H73.6728V57.7337H73.6867V43.0283Z" fill="#D1A63C"/>
<path d="M73.6728 43.0283H73.6589V57.7337H73.6728V43.0283Z" fill="#D1A53B"/>
<path d="M73.6589 43.0283H73.645V57.7337H73.6589V43.0283Z" fill="#D0A43A"/>
<path d="M73.6432 43.0283H73.6293V57.7337H73.6432V43.0283Z" fill="#CFA439"/>
<path d="M73.6293 43.0283H73.6154V57.7337H73.6293V43.0283Z" fill="#CFA338"/>
<path d="M73.6154 43.0283H73.6015V57.7337H73.6154V43.0283Z" fill="#CEA237"/>
<path d="M73.6015 43.0283H73.5876V57.7337H73.6015V43.0283Z" fill="#CDA136"/>
<path d="M73.5877 43.0283H73.5738V57.7337H73.5877V43.0283Z" fill="#CDA035"/>
<path d="M73.5737 43.0283H73.5598V57.7337H73.5737V43.0283Z" fill="#CC9F34"/>
<path d="M73.5581 43.0283H73.5442V57.7337H73.5581V43.0283Z" fill="#CB9E33"/>
<path d="M73.5442 43.0283H73.5303V57.7337H73.5442V43.0283Z" fill="#CB9D32"/>
<path d="M73.5303 43.0283H73.5164V57.7337H73.5303V43.0283Z" fill="#CA9C31"/>
<path d="M73.5164 43.0283H73.5025V57.7337H73.5164V43.0283Z" fill="#CA9B30"/>
<path d="M73.5025 43.0283H73.4886V57.7337H73.5025V43.0283Z" fill="#C99A2F"/>
<path d="M73.4886 43.0283H73.4747V57.7337H73.4886V43.0283Z" fill="#C8992E"/>
<path d="M73.473 43.0283H73.4591V57.7337H73.473V43.0283Z" fill="#C8992D"/>
<path d="M73.4591 43.0283H73.4452V57.7337H73.4591V43.0283Z" fill="#C7982C"/>
<path d="M73.4452 43.0283H73.4313V57.7337H73.4452V43.0283Z" fill="#C6972B"/>
<path d="M73.4313 43.0283H73.4174V57.7337H73.4313V43.0283Z" fill="#C6962A"/>
<path d="M73.4174 43.0283H73.4035V57.7337H73.4174V43.0283Z" fill="#C59529"/>
<path d="M73.4035 43.0283H73.3896V57.7337H73.4035V43.0283Z" fill="#C49428"/>
<path d="M73.3879 43.0283H73.374V57.7337H73.3879V43.0283Z" fill="#C49327"/>
<path d="M73.374 43.0283H73.3601V57.7337H73.374V43.0283Z" fill="#C39226"/>
<path d="M73.3601 43.0283H73.3462V57.7337H73.3601V43.0283Z" fill="#C29125"/>
<path d="M73.3462 43.0283H73.3323V57.7337H73.3462V43.0283Z" fill="#C29024"/>
<path d="M73.3323 43.0283H73.3184V57.7337H73.3323V43.0283Z" fill="#C18F23"/>
<path d="M73.3184 43.0283H73.3045V57.7337H73.3184V43.0283Z" fill="#C18E22"/>
<path d="M73.3027 43.0283H73.2888V57.7337H73.3027V43.0283Z" fill="#C08E21"/>
<path d="M73.2889 43.0283H73.275V57.7337H73.2889V43.0283Z" fill="#BF8D20"/>
<path d="M73.2749 43.0283H73.261V57.7337H73.2749V43.0283Z" fill="#BF8C1F"/>
<path d="M73.2611 43.0283H73.2472V57.7337H73.2611V43.0283Z" fill="#BE8B1E"/>
<path d="M73.2471 43.0283H73.2332V57.7337H73.2471V43.0283Z" fill="#BD8A1D"/>
<path d="M73.2333 43.0283H73.2194V57.7337H73.2333V43.0283Z" fill="#BD891C"/>
<path d="M73.2176 43.0283H73.2037V57.7337H73.2176V43.0283Z" fill="#BC881B"/>
<path d="M73.2037 43.0283H73.1898V57.7337H73.2037V43.0283Z" fill="#BB871A"/>
<path d="M73.1898 43.0283H73.1759V57.7337H73.1898V43.0283Z" fill="#BB8619"/>
<path d="M73.1759 43.0283H73.162V57.7337H73.1759V43.0283Z" fill="#BA8518"/>
<path d="M73.162 43.0283H73.1481V57.7337H73.162V43.0283Z" fill="#B98417"/>
<path d="M73.1481 43.0283H73.1342V57.7337H73.1481V43.0283Z" fill="#B98316"/>
<path d="M73.1325 43.0283H73.1186V57.7337H73.1325V43.0283Z" fill="#B88315"/>
<path d="M73.1186 43.0283H73.1047V57.7337H73.1186V43.0283Z" fill="#B88214"/>
<path d="M73.1047 43.0283H73.0908V57.7337H73.1047V43.0283Z" fill="#B78113"/>
<path d="M73.0908 43.0283H73.0769V57.7337H73.0908V43.0283Z" fill="#B68012"/>
<path d="M73.0769 43.0283H73.063V57.7337H73.0769V43.0283Z" fill="#B67F11"/>
<path d="M73.063 43.0283H73.0491V57.7337H73.063V43.0283Z" fill="#B57E10"/>
<path d="M73.0491 43.0283H73.0335V57.7337H73.0491V43.0283Z" fill="#B57E10"/>
<path d="M73.0335 43.0283H73.0179V57.7337H73.0335V43.0283Z" fill="#B67F11"/>
<path d="M73.0179 43.0283H73.0022V57.7337H73.0179V43.0283Z" fill="#B68012"/>
<path d="M73.0022 43.0283H72.9866V57.7337H73.0022V43.0283Z" fill="#B78113"/>
<path d="M72.9883 43.0283H72.9727V57.7337H72.9883V43.0283Z" fill="#B88214"/>
<path d="M72.9727 43.0283H72.9571V57.7337H72.9727V43.0283Z" fill="#B98316"/>
<path d="M72.957 43.0283H72.9414V57.7337H72.957V43.0283Z" fill="#B98417"/>
<path d="M72.9414 43.0283H72.9258V57.7337H72.9414V43.0283Z" fill="#BA8518"/>
<path d="M72.9258 43.0283H72.9102V57.7337H72.9258V43.0283Z" fill="#BB8619"/>
<path d="M72.9119 43.0283H72.8962V57.7337H72.9119V43.0283Z" fill="#BB871A"/>
<path d="M72.8962 43.0283H72.8806V57.7337H72.8962V43.0283Z" fill="#BC881B"/>
<path d="M72.8806 43.0283H72.865V57.7337H72.8806V43.0283Z" fill="#BD891C"/>
<path d="M72.865 43.0283H72.8493V57.7337H72.865V43.0283Z" fill="#BE8A1D"/>
<path d="M72.8493 43.0283H72.8337V57.7337H72.8493V43.0283Z" fill="#BE8B1E"/>
<path d="M72.8354 43.0283H72.8198V57.7337H72.8354V43.0283Z" fill="#BF8C1F"/>
<path d="M72.8198 43.0283H72.8042V57.7337H72.8198V43.0283Z" fill="#C08D20"/>
<path d="M72.8042 43.0283H72.7885V57.7337H72.8042V43.0283Z" fill="#C08E22"/>
<path d="M72.7886 43.0283H72.7729V57.7337H72.7886V43.0283Z" fill="#C18F23"/>
<path d="M72.7729 43.0283H72.7573V57.7337H72.7729V43.0283Z" fill="#C29024"/>
<path d="M72.759 43.0283H72.7434V57.7337H72.759V43.0283Z" fill="#C29125"/>
<path d="M72.7434 43.0283H72.7277V57.7337H72.7434V43.0283Z" fill="#C39226"/>
<path d="M72.7277 43.0283H72.7121V57.7337H72.7277V43.0283Z" fill="#C49327"/>
<path d="M72.7121 43.0283H72.6965V57.7337H72.7121V43.0283Z" fill="#C49428"/>
<path d="M72.6965 43.0283H72.6808V57.7337H72.6965V43.0283Z" fill="#C59529"/>
<path d="M72.6826 43.0283H72.6669V57.7337H72.6826V43.0283Z" fill="#C6962A"/>
<path d="M72.6669 43.0283H72.6513V57.7337H72.6669V43.0283Z" fill="#C6972B"/>
<path d="M72.6513 43.0283H72.6357V57.7337H72.6513V43.0283Z" fill="#C7982C"/>
<path d="M72.6357 43.0283H72.62V57.7337H72.6357V43.0283Z" fill="#C8992D"/>
<path d="M72.62 43.0283H72.6044V57.7337H72.62V43.0283Z" fill="#C8992E"/>
<path d="M72.6061 43.0283H72.5905V57.7337H72.6061V43.0283Z" fill="#C99A2F"/>
<path d="M72.5905 43.0283H72.5749V57.7337H72.5905V43.0283Z" fill="#CA9B30"/>
<path d="M72.5749 43.0283H72.5592V57.7337H72.5749V43.0283Z" fill="#CA9C31"/>
<path d="M72.5592 43.0283H72.5436V57.7337H72.5592V43.0283Z" fill="#CB9D32"/>
<path d="M72.5436 43.0283H72.528V57.7337H72.5436V43.0283Z" fill="#CB9E33"/>
<path d="M72.5297 43.0283H72.5141V57.7337H72.5297V43.0283Z" fill="#CC9F33"/>
<path d="M72.5141 43.0283H72.4984V57.7337H72.5141V43.0283Z" fill="#CD9F34"/>
<path d="M72.4984 43.0283H72.4828V57.7337H72.4984V43.0283Z" fill="#CDA035"/>
<path d="M78.0088 45.1182H77.9966V55.6456H78.0088V45.1182Z" fill="#D3A940"/>
<path d="M77.9949 45.1182H77.9758V55.6456H77.9949V45.1182Z" fill="#D4AA41"/>
<path d="M77.9758 45.1182H77.9567V55.6456H77.9758V45.1182Z" fill="#D5AB42"/>
<path d="M77.9567 45.1182H77.9376V55.6456H77.9567V45.1182Z" fill="#D5AC43"/>
<path d="M77.9359 45.1182H77.9167V55.6456H77.9359V45.1182Z" fill="#D6AD44"/>
<path d="M77.9168 45.1182H77.8976V55.6456H77.9168V45.1182Z" fill="#D7AE45"/>
<path d="M77.8959 45.1182H77.8768V55.6456H77.8959V45.1182Z" fill="#D7AF46"/>
<path d="M77.8768 45.1182H77.8577V55.6456H77.8768V45.1182Z" fill="#D8B047"/>
<path d="M77.8559 45.1182H77.8368V55.6456H77.8559V45.1182Z" fill="#D9B148"/>
<path d="M77.8368 45.1182H77.8177V55.6456H77.8368V45.1182Z" fill="#D9B249"/>
<path d="M77.8177 45.1182H77.7986V55.6456H77.8177V45.1182Z" fill="#DAB34A"/>
<path d="M77.7969 45.1182H77.7778V55.6456H77.7969V45.1182Z" fill="#DAB34B"/>
<path d="M77.7778 45.1182H77.7587V55.6456H77.7778V45.1182Z" fill="#DBB44C"/>
<path d="M77.7569 45.1182H77.7378V55.6456H77.7569V45.1182Z" fill="#DCB54D"/>
<path d="M77.7378 45.1182H77.7187V55.6456H77.7378V45.1182Z" fill="#DCB64E"/>
<path d="M77.717 45.1182H77.6978V55.6456H77.717V45.1182Z" fill="#DDB74F"/>
<path d="M77.6979 45.1182H77.6787V55.6456H77.6979V45.1182Z" fill="#DEB850"/>
<path d="M77.6787 45.1182H77.6596V55.6456H77.6787V45.1182Z" fill="#DEB951"/>
<path d="M77.6579 45.1182H77.6388V55.6456H77.6579V45.1182Z" fill="#DFBA52"/>
<path d="M77.6388 45.1182H77.6197V55.6456H77.6388V45.1182Z" fill="#E0BB53"/>
<path d="M77.618 45.1182H77.5988V55.6456H77.618V45.1182Z" fill="#E0BC54"/>
<path d="M77.5988 45.1182H77.5797V55.6456H77.5988V45.1182Z" fill="#E1BD55"/>
<path d="M77.578 45.1182H77.5589V55.6456H77.578V45.1182Z" fill="#E2BE56"/>
<path d="M77.5589 45.1182H77.5398V55.6456H77.5589V45.1182Z" fill="#E2BE57"/>
<path d="M77.538 45.1182H77.5189V55.6456H77.538V45.1182Z" fill="#E3BF58"/>
<path d="M77.5189 45.1182H77.4998V55.6456H77.5189V45.1182Z" fill="#E3C059"/>
<path d="M77.4998 45.1182H77.4807V55.6456H77.4998V45.1182Z" fill="#E4C15A"/>
<path d="M77.479 45.1182H77.4599V55.6456H77.479V45.1182Z" fill="#E5C25B"/>
<path d="M77.4599 45.1182H77.4408V55.6456H77.4599V45.1182Z" fill="#E5C35C"/>
<path d="M77.439 45.1182H77.4199V55.6456H77.439V45.1182Z" fill="#E6C45D"/>
<path d="M77.4199 45.1182H77.4008V55.6456H77.4199V45.1182Z" fill="#E7C55E"/>
<path d="M77.3991 45.1182H77.3799V55.6456H77.3991V45.1182Z" fill="#E7C65F"/>
<path d="M77.3799 45.1182H77.3608V55.6456H77.3799V45.1182Z" fill="#E8C760"/>
<path d="M77.3608 45.1182H77.3417V55.6456H77.3608V45.1182Z" fill="#E9C861"/>
<path d="M77.34 45.1182H77.3209V55.6456H77.34V45.1182Z" fill="#E9C962"/>
<path d="M77.3209 45.1182H77.3018V55.6456H77.3209V45.1182Z" fill="#EAC963"/>
<path d="M77.3 45.1182H77.2809V55.6456H77.3V45.1182Z" fill="#EBCA64"/>
<path d="M77.2809 45.1182H77.2618V55.6456H77.2809V45.1182Z" fill="#EBCB65"/>
<path d="M77.2601 45.1182H77.241V55.6456H77.2601V45.1182Z" fill="#ECCC66"/>
<path d="M77.241 45.1182H77.2219V55.6456H77.241V45.1182Z" fill="#ECCD67"/>
<path d="M77.2219 45.1182H77.2028V55.6456H77.2219V45.1182Z" fill="#EDCE68"/>
<path d="M77.201 45.1182H77.1819V55.6456H77.201V45.1182Z" fill="#EECF69"/>
<path d="M77.1819 45.1182H77.1628V55.6456H77.1819V45.1182Z" fill="#EED06A"/>
<path d="M77.1611 45.1182H77.142V55.6456H77.1611V45.1182Z" fill="#EFD16B"/>
<path d="M77.1419 45.1182H77.1228V55.6456H77.1419V45.1182Z" fill="#F0D26C"/>
<path d="M77.1211 45.1182H77.102V55.6456H77.1211V45.1182Z" fill="#F0D26D"/>
<path d="M77.102 45.1182H77.0829V55.6456H77.102V45.1182Z" fill="#F1D36E"/>
<path d="M77.0829 45.1182H77.0638V55.6456H77.0829V45.1182Z" fill="#F1D46F"/>
<path d="M77.0621 45.1182H77.0429V55.6456H77.0621V45.1182Z" fill="#F2D570"/>
<path d="M77.0429 45.1182H77.0238V55.6456H77.0429V45.1182Z" fill="#F3D671"/>
<path d="M77.0221 45.1182H77.003V55.6456H77.0221V45.1182Z" fill="#F3D772"/>
<path d="M77.003 45.1182H76.9839V55.6456H77.003V45.1182Z" fill="#F4D873"/>
<path d="M76.9821 45.1182H76.963V55.6456H76.9821V45.1182Z" fill="#F5D974"/>
<path d="M76.963 45.1182H76.9439V55.6456H76.963V45.1182Z" fill="#F5DA75"/>
<path d="M76.9422 45.1182H76.9231V55.6456H76.9422V45.1182Z" fill="#F6DB76"/>
<path d="M76.9231 45.1182H76.904V55.6456H76.9231V45.1182Z" fill="#F7DB77"/>
<path d="M76.904 45.1182H76.8849V55.6456H76.904V45.1182Z" fill="#F7DC78"/>
<path d="M76.8831 45.1182H76.864V55.6456H76.8831V45.1182Z" fill="#F8DD79"/>
<path d="M76.864 45.1182H76.8449V55.6456H76.864V45.1182Z" fill="#F8DE7A"/>
<path d="M76.8431 45.1182H76.824V55.6456H76.8431V45.1182Z" fill="#F9DF7B"/>
<path d="M76.8241 45.1182H76.7963V55.6456H76.8241V45.1182Z" fill="#F9DF7B"/>
<path d="M76.7945 45.1182H76.7667V55.6456H76.7945V45.1182Z" fill="#F9DF7C"/>
<path d="M76.7667 45.1182H76.7389V55.6456H76.7667V45.1182Z" fill="#F9E07D"/>
<path d="M76.7389 45.1182H76.7111V55.6456H76.7389V45.1182Z" fill="#F9E07E"/>
<path d="M76.7094 45.1182H76.6816V55.6456H76.7094V45.1182Z" fill="#FAE17F"/>
<path d="M76.6816 45.1182H76.6538V55.6456H76.6816V45.1182Z" fill="#FAE180"/>
<path d="M76.6521 45.1182H76.6243V55.6456H76.6521V45.1182Z" fill="#FAE281"/>
<path d="M76.6243 45.1182H76.5965V55.6456H76.6243V45.1182Z" fill="#FAE282"/>
<path d="M76.5965 45.1182H76.5687V55.6456H76.5965V45.1182Z" fill="#FAE383"/>
<path d="M76.5669 45.1182H76.5392V55.6456H76.5669V45.1182Z" fill="#FAE384"/>
<path d="M76.5391 45.1182H76.5114V55.6456H76.5391V45.1182Z" fill="#FAE485"/>
<path d="M76.5096 45.1182H76.4818V55.6456H76.5096V45.1182Z" fill="#FBE486"/>
<path d="M76.4818 45.1182H76.454V55.6456H76.4818V45.1182Z" fill="#FBE587"/>
<path d="M76.4523 45.1182H76.4245V55.6456H76.4523V45.1182Z" fill="#FBE588"/>
<path d="M76.4245 45.1182H76.3967V55.6456H76.4245V45.1182Z" fill="#FBE689"/>
<path d="M76.3967 45.1182H76.3689V55.6456H76.3967V45.1182Z" fill="#FBE68A"/>
<path d="M76.3672 45.1182H76.3394V55.6456H76.3672V45.1182Z" fill="#FBE78B"/>
<path d="M76.3394 45.1182H76.3116V55.6456H76.3394V45.1182Z" fill="#FBE78C"/>
<path d="M76.3098 45.1182H76.282V55.6456H76.3098V45.1182Z" fill="#FCE88D"/>
<path d="M76.282 45.1182H76.2542V55.6456H76.282V45.1182Z" fill="#FCE88E"/>
<path d="M76.2542 45.1182H76.2264V55.6456H76.2542V45.1182Z" fill="#FCE98F"/>
<path d="M76.2247 45.1182H76.1969V55.6456H76.2247V45.1182Z" fill="#FCE991"/>
<path d="M76.1969 45.1182H76.1691V55.6456H76.1969V45.1182Z" fill="#FCE992"/>
<path d="M76.1674 45.1182H76.1396V55.6456H76.1674V45.1182Z" fill="#FCEA93"/>
<path d="M76.1396 45.1182H76.1118V55.6456H76.1396V45.1182Z" fill="#FCEA94"/>
<path d="M76.1101 45.1182H76.0823V55.6456H76.1101V45.1182Z" fill="#FDEB95"/>
<path d="M76.0823 45.1182H76.0545V55.6456H76.0823V45.1182Z" fill="#FDEB96"/>
<path d="M76.0545 45.1182H76.0267V55.6456H76.0545V45.1182Z" fill="#FDEC97"/>
<path d="M76.0249 45.1182H75.9971V55.6456H76.0249V45.1182Z" fill="#FDEC98"/>
<path d="M75.9972 45.1182H75.9694V55.6456H75.9972V45.1182Z" fill="#FDED99"/>
<path d="M75.9676 45.1182H75.9398V55.6456H75.9676V45.1182Z" fill="#FDED9A"/>
<path d="M75.9398 45.1182H75.912V55.6456H75.9398V45.1182Z" fill="#FDEE9B"/>
<path d="M75.9103 45.1182H75.8825V55.6456H75.9103V45.1182Z" fill="#FEEE9C"/>
<path d="M75.8825 45.1182H75.8547V55.6456H75.8825V45.1182Z" fill="#FEEF9D"/>
<path d="M75.8547 45.1182H75.8269V55.6456H75.8547V45.1182Z" fill="#FEEF9E"/>
<path d="M75.8252 45.1182H75.7974V55.6456H75.8252V45.1182Z" fill="#FEF09F"/>
<path d="M75.7974 45.1182H75.7696V55.6456H75.7974V45.1182Z" fill="#FEF0A0"/>
<path d="M75.7678 45.1182H75.74V55.6456H75.7678V45.1182Z" fill="#FEF1A1"/>
<path d="M75.74 45.1182H75.7122V55.6456H75.74V45.1182Z" fill="#FEF1A2"/>
<path d="M75.7122 45.1182H75.6844V55.6456H75.7122V45.1182Z" fill="#FFF2A3"/>
<path d="M75.6827 45.1182H75.6549V55.6456H75.6827V45.1182Z" fill="#FFF2A4"/>
<path d="M75.6549 45.1182H75.6271V55.6456H75.6549V45.1182Z" fill="#FFF3A5"/>
<path d="M75.6254 45.1182H75.5976V55.6456H75.6254V45.1182Z" fill="#FFF3A6"/>
<path d="M75.5976 45.1182H75.5733V55.6456H75.5976V45.1182Z" fill="#FFF3A6"/>
<path d="M75.575 45.1182H75.5507V55.6456H75.575V45.1182Z" fill="#FFF3A5"/>
<path d="M75.5507 45.1182H75.5264V55.6456H75.5507V45.1182Z" fill="#FFF2A4"/>
<path d="M75.5264 45.1182H75.502V55.6456H75.5264V45.1182Z" fill="#FFF2A3"/>
<path d="M75.502 45.1182H75.4777V55.6456H75.502V45.1182Z" fill="#FEF1A2"/>
<path d="M75.4777 45.1182H75.4534V55.6456H75.4777V45.1182Z" fill="#FEF1A1"/>
<path d="M75.4551 45.1182H75.4308V55.6456H75.4551V45.1182Z" fill="#FEF0A0"/>
<path d="M75.4308 45.1182H75.4065V55.6456H75.4308V45.1182Z" fill="#FEF09F"/>
<path d="M75.4065 45.1182H75.3822V55.6456H75.4065V45.1182Z" fill="#FEEF9E"/>
<path d="M75.3822 45.1182H75.3578V55.6456H75.3822V45.1182Z" fill="#FEEF9D"/>
<path d="M75.3578 45.1182H75.3335V55.6456H75.3578V45.1182Z" fill="#FEEE9C"/>
<path d="M75.3353 45.1182H75.3109V55.6456H75.3353V45.1182Z" fill="#FDEE9B"/>
<path d="M75.3109 45.1182H75.2866V55.6456H75.3109V45.1182Z" fill="#FDED9A"/>
<path d="M75.2866 45.1182H75.2623V55.6456H75.2866V45.1182Z" fill="#FDED99"/>
<path d="M75.2623 45.1182H75.238V55.6456H75.2623V45.1182Z" fill="#FDEC98"/>
<path d="M75.238 45.1182H75.2137V55.6456H75.238V45.1182Z" fill="#FDEC97"/>
<path d="M75.2136 45.1182H75.1893V55.6456H75.2136V45.1182Z" fill="#FDEB96"/>
<path d="M75.1911 45.1182H75.1667V55.6456H75.1911V45.1182Z" fill="#FDEB95"/>
<path d="M75.1667 45.1182H75.1424V55.6456H75.1667V45.1182Z" fill="#FCEA94"/>
<path d="M75.1425 45.1182H75.1181V55.6456H75.1425V45.1182Z" fill="#FCEA93"/>
<path d="M75.1181 45.1182H75.0938V55.6456H75.1181V45.1182Z" fill="#FCE992"/>
<path d="M75.0938 45.1182H75.0695V55.6456H75.0938V45.1182Z" fill="#FCE991"/>
<path d="M75.0712 45.1182H75.0469V55.6456H75.0712V45.1182Z" fill="#FCE98F"/>
<path d="M75.0469 45.1182H75.0226V55.6456H75.0469V45.1182Z" fill="#FCE88E"/>
<path d="M75.0226 45.1182H74.9983V55.6456H75.0226V45.1182Z" fill="#FCE88D"/>
<path d="M74.9983 45.1182H74.9739V55.6456H74.9983V45.1182Z" fill="#FBE78C"/>
<path d="M74.9739 45.1182H74.9496V55.6456H74.9739V45.1182Z" fill="#FBE78B"/>
<path d="M74.9496 45.1182H74.9253V55.6456H74.9496V45.1182Z" fill="#FBE68A"/>
<path d="M74.927 45.1182H74.9027V55.6456H74.927V45.1182Z" fill="#FBE689"/>
<path d="M74.9027 45.1182H74.8784V55.6456H74.9027V45.1182Z" fill="#FBE588"/>
<path d="M74.8784 45.1182H74.8541V55.6456H74.8784V45.1182Z" fill="#FBE587"/>
<path d="M74.8541 45.1182H74.8297V55.6456H74.8541V45.1182Z" fill="#FBE486"/>
<path d="M74.8297 45.1182H74.8054V55.6456H74.8297V45.1182Z" fill="#FAE485"/>
<path d="M74.8072 45.1182H74.7828V55.6456H74.8072V45.1182Z" fill="#FAE384"/>
<path d="M74.7828 45.1182H74.7585V55.6456H74.7828V45.1182Z" fill="#FAE383"/>
<path d="M74.7585 45.1182H74.7342V55.6456H74.7585V45.1182Z" fill="#FAE282"/>
<path d="M74.7342 45.1182H74.7099V55.6456H74.7342V45.1182Z" fill="#FAE281"/>
<path d="M74.7099 45.1182H74.6855V55.6456H74.7099V45.1182Z" fill="#FAE180"/>
<path d="M74.6855 45.1182H74.6612V55.6456H74.6855V45.1182Z" fill="#FAE17F"/>
<path d="M74.663 45.1182H74.6386V55.6456H74.663V45.1182Z" fill="#F9E07E"/>
<path d="M74.6387 45.1182H74.6143V55.6456H74.6387V45.1182Z" fill="#F9E07D"/>
<path d="M74.6143 45.1182H74.59V55.6456H74.6143V45.1182Z" fill="#F9DF7C"/>
<path d="M74.59 45.1182H74.5709V55.6456H74.59V45.1182Z" fill="#F9DF7B"/>
</g>
<path d="M50.5194 30.6532C48.2176 30.6532 46.3432 28.7805 46.3432 26.477C46.3432 24.1735 48.2159 22.3008 50.5194 22.3008C52.8229 22.3008 54.6956 24.1735 54.6956 26.477C54.6956 28.7805 52.8229 30.6532 50.5194 30.6532ZM50.5194 24.3906C49.3694 24.3906 48.433 25.327 48.433 26.477C48.433 27.627 49.3694 28.5634 50.5194 28.5634C51.6694 28.5634 52.6058 27.627 52.6058 26.477C52.6058 25.327 51.6694 24.3906 50.5194 24.3906Z" fill="url(#paint1_linear_3463_2239)"/>
<path d="M51.5635 29.6084H49.4753V36.2619H51.5635V29.6084Z" fill="url(#paint2_linear_3463_2239)"/>
<path d="M83.4033 15.0433L14.5264 83.5605L17.2217 86.2701L86.0987 17.7528L83.4033 15.0433Z" fill="#E9BE69"/>
<path d="M16.4947 81.2558L81.0837 15.9389C82.2337 14.775 84.1116 14.7733 85.2651 15.932C86.4065 17.0785 86.4082 18.9304 85.2721 20.0804L20.6848 85.3973C19.5348 86.5612 17.6569 86.5629 16.5017 85.4042C15.3621 84.2577 15.3586 82.4058 16.4965 81.2558H16.4947Z" fill="#505050"/>
<path d="M50 100C22.4289 100 0 77.5693 0 50C0 22.4307 22.4289 0 50 0C77.571 0 100 22.4307 100 50C100 77.5693 77.571 100 50 100ZM50 4.17275C24.7307 4.17275 4.17275 24.7307 4.17275 50C4.17275 75.2693 24.7307 95.8272 50 95.8272C75.2693 95.8272 95.8272 75.2693 95.8272 50C95.8272 24.7307 75.2693 4.17275 50 4.17275Z" fill="url(#paint3_linear_3463_2239)"/>
<path d="M50 98.9574C23.0057 98.9574 1.0423 76.9957 1.0423 49.9997C1.0423 23.0036 23.0039 1.04199 50 1.04199C76.996 1.04199 98.9577 23.0036 98.9577 49.9997C98.9577 76.9957 76.996 98.9574 50 98.9574ZM50 3.1301C24.1557 3.1301 3.13041 24.1554 3.13041 49.9997C3.13041 75.844 24.1557 96.8692 50 96.8692C75.8443 96.8692 96.8696 75.844 96.8696 49.9997C96.8696 24.1554 75.8425 3.1301 50 3.1301Z" fill="url(#paint4_linear_3463_2239)"/>
<path d="M67.6204 44.2412H33.4185C32.3084 44.2412 31.4103 45.1411 31.4103 46.2494V54.4368C31.4103 55.5469 32.3101 56.445 33.4185 56.445H67.6204C68.7305 56.445 69.6286 55.5451 69.6286 54.4368V46.2494C69.6286 45.1393 68.7287 44.2412 67.6204 44.2412ZM38.3243 53.464C36.7209 53.464 35.4215 52.1646 35.4215 50.5611C35.4215 48.9577 36.7209 47.6583 38.3243 47.6583C39.9278 47.6583 41.2272 48.9577 41.2272 50.5611C41.2272 52.1646 39.9278 53.464 38.3243 53.464ZM62.7163 53.464C61.1129 53.464 59.8134 52.1646 59.8134 50.5611C59.8134 48.9577 61.1129 47.6583 62.7163 47.6583C64.3197 47.6583 65.6192 48.9577 65.6192 50.5611C65.6192 52.1646 64.3197 53.464 62.7163 53.464Z" fill="url(#paint5_linear_3463_2239)"/>
<path d="M50 98.9574C23.0057 98.9574 1.0423 76.9957 1.0423 49.9997C1.0423 23.0036 23.0039 1.04199 50 1.04199C76.996 1.04199 98.9577 23.0036 98.9577 49.9997C98.9577 76.9957 76.996 98.9574 50 98.9574ZM50 3.1301C24.1557 3.1301 3.13041 24.1554 3.13041 49.9997C3.13041 75.844 24.1557 96.8692 50 96.8692C75.8443 96.8692 96.8696 75.844 96.8696 49.9997C96.8696 24.1554 75.8425 3.1301 50 3.1301Z" fill="url(#paint6_linear_3463_2239)"/>
<path d="M76.9161 45.1182C77.5189 45.1182 78.0088 45.6063 78.0088 46.2109V54.5546C78.0088 55.1574 77.5207 55.6473 76.9161 55.6473H74.5709V45.1199H76.9161M76.9161 43.0283H72.4828V57.7337H76.9161C78.6707 57.7337 80.0969 56.3075 80.0969 54.5529V46.2091C80.0969 44.4546 78.6707 43.0283 76.9161 43.0283Z" fill="url(#paint7_linear_3463_2239)"/>
<path d="M24.0567 45.1719C23.4539 45.1719 22.964 45.66 22.964 46.2646V54.6083C22.964 55.2111 23.4522 55.701 24.0567 55.701H26.4019V45.1736H24.0567M24.0567 43.082H28.4901V57.7874H24.0567C22.3022 57.7874 20.8759 56.3612 20.8759 54.6066V46.2628C20.8759 44.5083 22.3022 43.082 24.0567 43.082Z" fill="url(#paint8_linear_3463_2239)"/>
<path d="M50.5194 30.6532C48.2176 30.6532 46.3432 28.7805 46.3432 26.477C46.3432 24.1735 48.2159 22.3008 50.5194 22.3008C52.8229 22.3008 54.6956 24.1735 54.6956 26.477C54.6956 28.7805 52.8229 30.6532 50.5194 30.6532ZM50.5194 24.3906C49.3694 24.3906 48.433 25.327 48.433 26.477C48.433 27.627 49.3694 28.5634 50.5194 28.5634C51.6694 28.5634 52.6058 27.627 52.6058 26.477C52.6058 25.327 51.6694 24.3906 50.5194 24.3906Z" fill="url(#paint9_linear_3463_2239)"/>
<path d="M51.5635 29.6084H49.4753V36.2619H51.5635V29.6084Z" fill="url(#paint10_linear_3463_2239)"/>
<path d="M83.4033 15.0433L14.5264 83.5605L17.2217 86.2701L86.0987 17.7528L83.4033 15.0433Z" fill="url(#paint11_linear_3463_2239)"/>
<path d="M16.4947 81.2558L81.0837 15.9389C82.2337 14.775 84.1116 14.7733 85.2651 15.932C86.4065 17.0785 86.4082 18.9304 85.2721 20.0804L20.6848 85.3973C19.5348 86.5612 17.6569 86.5629 16.5017 85.4042C15.3621 84.2577 15.3586 82.4058 16.4965 81.2558H16.4947Z" fill="url(#paint12_linear_3463_2239)"/>
<path d="M50 100C22.4289 100 0 77.5693 0 50C0 22.4307 22.4289 0 50 0C77.571 0 100 22.4307 100 50C100 77.5693 77.571 100 50 100ZM50 4.17275C24.7307 4.17275 4.17275 24.7307 4.17275 50C4.17275 75.2693 24.7307 95.8272 50 95.8272C75.2693 95.8272 95.8272 75.2693 95.8272 50C95.8272 24.7307 75.2693 4.17275 50 4.17275Z" fill="url(#paint13_linear_3463_2239)"/>
<path d="M50 98.9574C23.0057 98.9574 1.0423 76.9957 1.0423 49.9997C1.0423 23.0036 23.0039 1.04199 50 1.04199C76.996 1.04199 98.9577 23.0036 98.9577 49.9997C98.9577 76.9957 76.996 98.9574 50 98.9574ZM50 3.1301C24.1557 3.1301 3.13041 24.1554 3.13041 49.9997C3.13041 75.844 24.1557 96.8692 50 96.8692C75.8443 96.8692 96.8696 75.844 96.8696 49.9997C96.8696 24.1554 75.8425 3.1301 50 3.1301Z" fill="url(#paint14_linear_3463_2239)"/>
<path d="M67.6204 44.2412H33.4185C32.3084 44.2412 31.4103 45.1411 31.4103 46.2494V54.4368C31.4103 55.5469 32.3101 56.445 33.4185 56.445H67.6204C68.7305 56.445 69.6286 55.5451 69.6286 54.4368V46.2494C69.6286 45.1393 68.7287 44.2412 67.6204 44.2412ZM38.3243 53.464C36.7209 53.464 35.4215 52.1646 35.4215 50.5611C35.4215 48.9577 36.7209 47.6583 38.3243 47.6583C39.9278 47.6583 41.2272 48.9577 41.2272 50.5611C41.2272 52.1646 39.9278 53.464 38.3243 53.464ZM62.7163 53.464C61.1129 53.464 59.8134 52.1646 59.8134 50.5611C59.8134 48.9577 61.1129 47.6583 62.7163 47.6583C64.3197 47.6583 65.6192 48.9577 65.6192 50.5611C65.6192 52.1646 64.3197 53.464 62.7163 53.464Z" fill="url(#paint15_linear_3463_2239)"/>
<path d="M69.4879 69.8436H31.551C28.7611 69.8436 26.4905 67.5749 26.4905 64.7849V40.5302C26.4905 37.7402 28.7611 35.4697 31.551 35.4697H69.4879C72.2778 35.4697 74.5484 37.7402 74.5484 40.5302V64.7849C74.5484 67.5749 72.2778 69.8436 69.4879 69.8436ZM31.551 37.5578C29.9128 37.5578 28.5804 38.8903 28.5804 40.5302V64.7849C28.5804 66.4231 29.9128 67.7555 31.551 67.7555H69.4879C71.1261 67.7555 72.4585 66.4231 72.4585 64.7849V40.5302C72.4585 38.892 71.1261 37.5578 69.4879 37.5578H31.551Z" fill="url(#paint16_linear_3463_2239)"/>
</g>
<defs>
<linearGradient id="paint0_linear_3463_2239" x1="50" y1="1.04199" x2="50" y2="98.9574" gradientUnits="userSpaceOnUse">
<stop stop-color="white"/>
<stop offset="0.23" stop-color="#E1C670"/>
<stop offset="0.56" stop-color="#BC8F2D"/>
<stop offset="1" stop-color="#7D411B"/>
</linearGradient>
<linearGradient id="paint1_linear_3463_2239" x1="46.3449" y1="26.4787" x2="54.6956" y2="26.4787" gradientUnits="userSpaceOnUse">
<stop stop-color="#C8992E"/>
<stop offset="0.15" stop-color="#B57E10"/>
<stop offset="0.43" stop-color="#F9DF7B"/>
<stop offset="0.59" stop-color="#FFF3A6"/>
<stop offset="0.73" stop-color="#F9DF7B"/>
<stop offset="0.93" stop-color="#B57E10"/>
<stop offset="0.94" stop-color="#B88316"/>
<stop offset="1" stop-color="#CDA035"/>
</linearGradient>
<linearGradient id="paint2_linear_3463_2239" x1="49.4753" y1="32.9351" x2="51.5635" y2="32.9351" gradientUnits="userSpaceOnUse">
<stop stop-color="#C8992E"/>
<stop offset="0.15" stop-color="#B57E10"/>
<stop offset="0.43" stop-color="#F9DF7B"/>
<stop offset="0.59" stop-color="#FFF3A6"/>
<stop offset="0.73" stop-color="#F9DF7B"/>
<stop offset="0.93" stop-color="#B57E10"/>
<stop offset="0.94" stop-color="#B88316"/>
<stop offset="1" stop-color="#CDA035"/>
</linearGradient>
<linearGradient id="paint3_linear_3463_2239" x1="50" y1="0" x2="50" y2="100" gradientUnits="userSpaceOnUse">
<stop stop-color="white"/>
<stop offset="0.23" stop-color="#E1C670"/>
<stop offset="0.56" stop-color="#BC8F2D"/>
<stop offset="1" stop-color="#7D411B"/>
</linearGradient>
<linearGradient id="paint4_linear_3463_2239" x1="50" y1="1.04199" x2="50" y2="98.9574" gradientUnits="userSpaceOnUse">
<stop stop-color="white"/>
<stop offset="0.23" stop-color="#E1C670"/>
<stop offset="0.56" stop-color="#BC8F2D"/>
<stop offset="1" stop-color="#7D411B"/>
</linearGradient>
<linearGradient id="paint5_linear_3463_2239" x1="31.4103" y1="50.344" x2="69.6303" y2="50.344" gradientUnits="userSpaceOnUse">
<stop stop-color="#C8992E"/>
<stop offset="0.15" stop-color="#B57E10"/>
<stop offset="0.43" stop-color="#F9DF7B"/>
<stop offset="0.59" stop-color="#FFF3A6"/>
<stop offset="0.73" stop-color="#F9DF7B"/>
<stop offset="0.93" stop-color="#B57E10"/>
<stop offset="0.94" stop-color="#B88316"/>
<stop offset="1" stop-color="#CDA035"/>
</linearGradient>
<linearGradient id="paint6_linear_3463_2239" x1="-2.08352e-05" y1="49.9979" x2="100" y2="49.9979" gradientUnits="userSpaceOnUse">
<stop stop-color="#C8992E"/>
<stop offset="0.15" stop-color="#B57E10"/>
<stop offset="0.43" stop-color="#F9DF7B"/>
<stop offset="0.59" stop-color="#FFF3A6"/>
<stop offset="0.73" stop-color="#F9DF7B"/>
<stop offset="0.93" stop-color="#B57E10"/>
<stop offset="0.94" stop-color="#B88316"/>
<stop offset="1" stop-color="#CDA035"/>
</linearGradient>
<linearGradient id="paint7_linear_3463_2239" x1="70.7926" y1="50.2427" x2="81.5962" y2="50.2427" gradientUnits="userSpaceOnUse">
<stop stop-color="#223655"/>
<stop offset="0.495" stop-color="#4A75BC"/>
<stop offset="1" stop-color="#032146"/>
</linearGradient>
<linearGradient id="paint8_linear_3463_2239" x1="30.1803" y1="50.2964" x2="19.3767" y2="50.2964" gradientUnits="userSpaceOnUse">
<stop stop-color="#223655"/>
<stop offset="0.495" stop-color="#4A75BC"/>
<stop offset="1" stop-color="#032146"/>
</linearGradient>
<linearGradient id="paint9_linear_3463_2239" x1="44.4891" y1="26.3984" x2="56.3403" y2="26.3984" gradientUnits="userSpaceOnUse">
<stop stop-color="#223655"/>
<stop offset="0.495" stop-color="#4A75BC"/>
<stop offset="1" stop-color="#032146"/>
</linearGradient>
<linearGradient id="paint10_linear_3463_2239" x1="49.0118" y1="32.8726" x2="51.9746" y2="32.8726" gradientUnits="userSpaceOnUse">
<stop stop-color="#223655"/>
<stop offset="0.495" stop-color="#4A75BC"/>
<stop offset="1" stop-color="#032146"/>
</linearGradient>
<linearGradient id="paint11_linear_3463_2239" x1="0.00183947" y1="50.0098" x2="100.002" y2="50.0098" gradientUnits="userSpaceOnUse">
<stop stop-color="#C8992E"/>
<stop offset="0.15" stop-color="#B57E10"/>
<stop offset="0.43" stop-color="#F9DF7B"/>
<stop offset="0.59" stop-color="#FFF3A6"/>
<stop offset="0.73" stop-color="#F9DF7B"/>
<stop offset="0.93" stop-color="#B57E10"/>
<stop offset="0.94" stop-color="#B88316"/>
<stop offset="1" stop-color="#CDA035"/>
</linearGradient>
<linearGradient id="paint12_linear_3463_2239" x1="4.46834e-05" y1="49.9984" x2="100" y2="49.9984" gradientUnits="userSpaceOnUse">
<stop stop-color="#223655"/>
<stop offset="0.495" stop-color="#4A75BC"/>
<stop offset="1" stop-color="#032146"/>
</linearGradient>
<linearGradient id="paint13_linear_3463_2239" x1="-22.1985" y1="49.0595" x2="119.69" y2="49.0595" gradientUnits="userSpaceOnUse">
<stop stop-color="#223655"/>
<stop offset="0.495" stop-color="#4A75BC"/>
<stop offset="1" stop-color="#032146"/>
</linearGradient>
<linearGradient id="paint14_linear_3463_2239" x1="-20.6934" y1="49.0788" x2="118.238" y2="49.0788" gradientUnits="userSpaceOnUse">
<stop stop-color="#223655"/>
<stop offset="0.495" stop-color="#4A75BC"/>
<stop offset="1" stop-color="#032146"/>
</linearGradient>
<linearGradient id="paint15_linear_3463_2239" x1="22.9264" y1="50.2283" x2="77.154" y2="50.2283" gradientUnits="userSpaceOnUse">
<stop stop-color="#223655"/>
<stop offset="0.495" stop-color="#4A75BC"/>
<stop offset="1" stop-color="#032146"/>
</linearGradient>
<linearGradient id="paint16_linear_3463_2239" x1="15.8224" y1="52.3334" x2="84.0112" y2="52.3334" gradientUnits="userSpaceOnUse">
<stop stop-color="#223655"/>
<stop offset="0.495" stop-color="#4A75BC"/>
<stop offset="1" stop-color="#032146"/>
</linearGradient>
<clipPath id="clip0_3463_2239">
<rect width="100" height="100" fill="white"/>
</clipPath>
</defs>
</svg>
