<svg width="52" height="19" viewBox="0 0 52 19" fill="none" xmlns="http://www.w3.org/2000/svg">
<g id="Paytm">
<path id="Vector" d="M50.8766 6.2994C50.4132 4.97454 49.1504 4.02316 47.6672 4.02316H47.6361C46.6719 4.02316 45.803 4.42447 45.1844 5.0687C44.5648 4.42447 43.6958 4.02316 42.7326 4.02316H42.7016C41.854 4.02316 41.0793 4.33349 40.4842 4.84719V4.58607C40.4639 4.326 40.2499 4.12163 39.9855 4.12163H37.7104C37.4322 4.12163 37.2074 4.34636 37.2074 4.62565V16.9807C37.2074 17.26 37.4322 17.4847 37.7104 17.4847H39.9855C40.2392 17.4847 40.4478 17.2953 40.481 17.0502L40.48 8.18074C40.4797 8.15108 40.4812 8.12142 40.4842 8.09192C40.5206 7.69595 40.8106 7.37064 41.2687 7.32996H41.6881C41.8797 7.34706 42.0413 7.4145 42.1686 7.51615C42.3666 7.67347 42.4769 7.91534 42.4769 8.18074L42.4854 17.0064C42.4854 17.2857 42.7112 17.5115 42.9884 17.5115H45.2635C45.5322 17.5115 45.7505 17.2974 45.7633 17.031L45.7623 8.16897C45.7612 7.87787 45.896 7.61462 46.1325 7.45836C46.2492 7.38344 46.3894 7.33317 46.5509 7.31819H46.9705C47.4627 7.36099 47.7602 7.73448 47.7592 8.16897L47.7677 16.9828C47.7677 17.2621 47.9935 17.4869 48.2707 17.4869H50.5459C50.823 17.4869 51.0488 17.2621 51.0488 16.9828V7.50332C51.0488 6.85694 50.9761 6.58192 50.8766 6.2994ZM35.4742 4.15382H34.1729V2.03917C34.1728 1.78554 33.9674 1.58008 33.7137 1.58008C33.6838 1.58008 33.6549 1.58433 33.6271 1.58969C32.1845 1.98566 32.4734 3.98367 29.8398 4.15382H29.584C29.5455 4.15382 29.5091 4.15916 29.4738 4.16665C29.249 4.21698 29.08 4.41707 29.08 4.65681V6.93196C29.08 7.20913 29.3057 7.43492 29.584 7.43492H30.957L30.9549 17.0825C30.9549 17.3575 31.1775 17.5801 31.4525 17.5801H33.702C33.9759 17.5801 34.1986 17.3575 34.1986 17.0825L34.1996 7.43492H35.4742C35.7513 7.43492 35.9771 7.20913 35.9771 6.93196V4.65681C35.9771 4.37963 35.7513 4.15382 35.4742 4.15382Z" fill="#00BAF2"/>
<path id="Vector_2" d="M27.2883 4.15387H25.0131C24.736 4.15387 24.5112 4.37968 24.5112 4.65683V9.36129C24.5059 9.65236 24.2704 9.88566 23.9783 9.88566H23.0258C22.7305 9.88566 22.4918 9.64808 22.4918 9.3527L22.4833 4.65686C22.4833 4.37968 22.2575 4.1539 21.9803 4.1539H19.7051C19.4269 4.1539 19.2022 4.37968 19.2022 4.65686V9.81289C19.2022 11.7713 20.5987 13.1679 22.5582 13.1679C22.5582 13.1679 24.0286 13.1679 24.0735 13.1764C24.3389 13.2064 24.5455 13.429 24.5455 13.7029C24.5455 13.9737 24.3432 14.1952 24.081 14.2284C24.0682 14.2305 24.0564 14.2337 24.0425 14.2359L20.7154 14.2476C20.4371 14.2476 20.2124 14.4734 20.2124 14.7506V17.0247C20.2124 17.303 20.4371 17.5277 20.7154 17.5277H24.4353C26.3958 17.5277 27.7913 16.1322 27.7913 14.1727V4.65686C27.7913 4.37968 27.5665 4.15387 27.2883 4.15387ZM5.26627 8.3227V9.72677C5.26627 10.021 5.02762 10.2608 4.73334 10.2608L3.28968 10.2618V7.44837H4.73334C5.02762 7.44837 5.26627 7.68593 5.26627 7.9813V8.3227ZM5.46639 4.15332H0.493343C0.220447 4.15332 0 4.37486 0 4.64666V6.87582C0 6.8801 0.00106174 6.88438 0.00106174 6.88866C0.00106174 6.89936 0 6.91007 0 6.91969V17.0092C0 17.2831 0.205461 17.5068 0.460187 17.5132H2.77811C3.05528 17.5132 3.28107 17.2885 3.28107 17.0103L3.28965 13.5526H5.46636C7.28776 13.5526 8.55699 12.2887 8.55699 10.4598V7.25041C8.55699 5.42149 7.28779 4.15332 5.46639 4.15332ZM14.7063 13.6641V14.0194C14.7063 14.0483 14.702 14.0761 14.6977 14.1029C14.6924 14.1279 14.6852 14.1526 14.6763 14.1767C14.6057 14.3757 14.4066 14.5202 14.1701 14.5202H13.223C12.9277 14.5202 12.6869 14.2955 12.6869 14.0194V13.5902C12.6869 13.5849 12.6858 13.5795 12.6858 13.5742L12.6869 12.4323V12.0749L12.688 12.0717C12.689 11.7966 12.9277 11.5741 13.223 11.5741H14.1701C14.4666 11.5741 14.7063 11.7977 14.7063 12.0749L14.7063 13.6641ZM14.3446 4.16639H11.1876C10.9083 4.16639 10.6825 4.37829 10.6825 4.63832V5.52335C10.6825 5.52869 10.6836 5.53512 10.6836 5.54046C10.6836 5.54689 10.6825 5.5533 10.6825 5.55973V6.77223C10.6825 7.04728 10.9222 7.272 11.2176 7.272H14.2237C14.4612 7.30947 14.6496 7.48283 14.6763 7.75358V8.0468C14.6496 8.30471 14.4634 8.49303 14.2365 8.51445H12.7479C10.7681 8.51445 9.35766 9.8297 9.35766 11.6768V14.3222C9.35766 16.1586 10.5702 17.4653 12.536 17.4653H16.6615C17.402 17.4653 18.0024 16.9045 18.0024 16.2143V7.58127C18.0024 5.48804 16.9237 4.16639 14.3446 4.16639Z" fill="#1F336B"/>
</g>
</svg>
