<svg width="67" height="19" viewBox="0 0 67 19" fill="none" xmlns="http://www.w3.org/2000/svg">
<g id="phonepe-1" clip-path="url(#clip0_3243_2006)">
<path id="Vector" d="M45.5101 13.4038V10.1359C45.5101 9.33161 45.2084 8.92945 44.4545 8.92945C44.1528 8.92945 43.801 8.97982 43.5998 9.02993V13.806C43.5998 13.9568 43.4489 14.1077 43.2981 14.1077H42.1417C41.9909 14.1077 41.84 13.9568 41.84 13.806V8.22561C41.84 8.0244 41.9909 7.87382 42.1417 7.82345C42.8959 7.57214 43.6499 7.42129 44.4542 7.42129C46.264 7.42129 47.2696 8.37645 47.2696 10.1362V13.8564C47.2696 14.0072 47.1187 14.158 46.9679 14.158H46.264C45.8118 14.1578 45.5101 13.806 45.5101 13.4038ZM50.0348 11.4431L49.9845 11.8957C49.9845 12.499 50.3866 12.8508 51.0401 12.8508C51.5427 12.8508 51.9953 12.7 52.4982 12.4487C52.5485 12.4487 52.5986 12.3983 52.649 12.3983C52.7495 12.3983 52.7998 12.4487 52.8502 12.4988C52.9006 12.5491 53.0011 12.7 53.0011 12.7C53.1015 12.8508 53.2023 13.0518 53.2023 13.2026C53.2023 13.4539 53.0514 13.7052 52.8505 13.806C52.2975 14.1077 51.644 14.2585 50.9402 14.2585C50.1358 14.2585 49.4821 14.0573 48.9795 13.6551C48.4768 13.2026 48.1752 12.5995 48.1752 11.8453V9.88461C48.1752 8.32608 49.1807 7.37092 50.8901 7.37092C52.5491 7.37092 53.5042 8.27598 53.5042 9.88461V11.0911C53.5042 11.2419 53.3534 11.3928 53.2025 11.3928H50.0354L50.0348 11.4431ZM49.9845 10.3371H51.8948V9.83451C51.8948 9.23114 51.543 8.82898 50.9396 8.82898C50.3363 8.82898 49.9845 9.18077 49.9845 9.83451V10.3371ZM62.8045 11.4431L62.7541 11.8957C62.7541 12.499 63.1563 12.8508 63.8098 12.8508C64.3124 12.8508 64.7649 12.7 65.2678 12.4487C65.3182 12.4487 65.3683 12.3983 65.4187 12.3983C65.5191 12.3983 65.5695 12.4487 65.6199 12.4988C65.6702 12.5491 65.7707 12.7 65.7707 12.7C65.8712 12.8508 65.9719 13.0518 65.9719 13.2026C65.9719 13.4539 65.8211 13.7052 65.6201 13.806C65.0671 14.1077 64.4137 14.2585 63.7098 14.2585C62.9055 14.2585 62.2518 14.0573 61.7491 13.6551C61.2465 13.2026 60.9448 12.5995 60.9448 11.8453V9.88461C60.9448 8.32608 61.9503 7.37092 63.6597 7.37092C65.3187 7.37092 66.2739 8.27598 66.2739 9.88461V11.0911C66.2739 11.2419 66.123 11.3928 65.9722 11.3928H62.805V11.4431H62.8045ZM62.7541 10.3371H64.6644V9.83451C64.6644 9.23114 64.3127 8.82898 63.7093 8.82898C63.1059 8.82898 62.7541 9.18077 62.7541 9.83451V10.3371ZM33.193 14.1578H33.8968C34.0477 14.1578 34.1985 14.0069 34.1985 13.8561V10.1359C34.1985 8.42656 33.2934 7.42103 31.7853 7.42103C31.3328 7.42103 30.8301 7.5215 30.5284 7.62224V5.76202C30.5284 5.35987 30.1766 5.00781 29.7742 5.00781H29.0704C28.9195 5.00781 28.7687 5.15865 28.7687 5.3095V13.8561C28.7687 14.0069 28.9195 14.1578 29.0704 14.1578H30.2268C30.3776 14.1578 30.5284 14.0069 30.5284 13.8561V9.1304C30.7798 9.02993 31.1318 8.97956 31.3831 8.97956C32.1373 8.97956 32.4388 9.33135 32.4388 10.186V13.4539C32.4891 13.806 32.7908 14.1578 33.193 14.1578ZM40.7844 9.93472V11.7949C40.7844 13.3535 39.7288 14.3086 37.969 14.3086C36.2597 14.3086 35.1537 13.3535 35.1537 11.7949V9.93472C35.1537 8.37619 36.2093 7.42103 37.969 7.42103C39.7288 7.42103 40.7844 8.37645 40.7844 9.93472ZM39.0249 9.93472C39.0249 9.33135 38.6731 8.92919 38.0194 8.92919C37.3657 8.92919 37.0139 9.28098 37.0139 9.93472V11.7949C37.0139 12.3983 37.3657 12.7501 38.0194 12.7501C38.6731 12.7501 39.0249 12.3983 39.0249 11.7949V9.93472ZM27.8138 9.0803C27.8138 10.6892 26.6073 11.7952 24.9984 11.7952C24.5963 11.7952 24.2442 11.7448 23.8924 11.594V13.8564C23.8924 14.0072 23.7416 14.158 23.5907 14.158H22.4344C22.2835 14.158 22.1327 14.0072 22.1327 13.8564V5.86276C22.1327 5.66155 22.2835 5.51097 22.4344 5.46061C23.1886 5.20929 23.9425 5.05845 24.7469 5.05845C26.5567 5.05845 27.8135 6.16445 27.8135 7.87382C27.8138 7.87356 27.8138 9.0803 27.8138 9.0803ZM26.004 7.77308C26.004 6.96876 25.451 6.56661 24.6967 6.56661C24.2442 6.56661 23.9425 6.71745 23.9425 6.71745V10.0355C24.2442 10.1863 24.3951 10.2367 24.7469 10.2367C25.5011 10.2367 26.0541 9.78414 26.0541 9.03019V7.77335H26.004V7.77308ZM60.2908 9.0803C60.2908 10.6892 59.0843 11.7952 57.4754 11.7952C57.0733 11.7952 56.7212 11.7448 56.3694 11.594V13.8564C56.3694 14.0072 56.2186 14.158 56.0677 14.158H54.9114C54.7605 14.158 54.6097 14.0072 54.6097 13.8564V5.86276C54.6097 5.66155 54.7605 5.51097 54.9114 5.46061C55.6656 5.20929 56.4195 5.05845 57.2238 5.05845C59.0337 5.05845 60.2905 6.16445 60.2905 7.87382C60.2908 7.87356 60.2908 9.0803 60.2908 9.0803ZM58.481 7.77308C58.481 6.96876 57.928 6.56661 57.1737 6.56661C56.7212 6.56661 56.4195 6.71745 56.4195 6.71745V10.0355C56.7212 10.1863 56.8721 10.2367 57.2238 10.2367C57.9781 10.2367 58.5311 9.78414 58.5311 9.03019V7.77335H58.481V7.77308Z" fill="#5F259F"/>
<path id="Vector_2" d="M8.99912 18.1613C13.9692 18.1613 17.9982 14.1323 17.9982 9.1622C17.9982 4.19213 13.9692 0.163086 8.99912 0.163086C4.02904 0.163086 0 4.19213 0 9.1622C0 14.1323 4.02904 18.1613 8.99912 18.1613Z" fill="#5F259F"/>
<path id="Vector_3" d="M13.0836 6.81234C13.0836 6.46055 12.7819 6.15886 12.4301 6.15886H11.2236L8.45863 2.9917C8.20731 2.69002 7.80515 2.58954 7.403 2.69002L6.44784 2.9917C6.29699 3.04207 6.24662 3.24302 6.34736 3.34349L9.36368 6.20923H4.7883C4.63746 6.20923 4.53699 6.30971 4.53699 6.46055V6.96318C4.53699 7.31497 4.83867 7.61665 5.19046 7.61665H5.8943V10.0299C5.8943 11.8397 6.84946 12.8956 8.45836 12.8956C8.96099 12.8956 9.36342 12.8452 9.86605 12.6443V14.2532C9.86605 14.7057 10.2178 15.0575 10.6704 15.0575H11.3742C11.5251 15.0575 11.6759 14.9067 11.6759 14.7558V7.56655H12.8323C12.9831 7.56655 13.0836 7.46608 13.0836 7.31523V6.81234ZM9.86605 11.1359C9.56436 11.2867 9.16221 11.3371 8.86052 11.3371C8.0562 11.3371 7.65405 10.9349 7.65405 10.0299V7.61665H9.86605V11.1359Z" fill="white"/>
</g>
<defs>
<clipPath id="clip0_3243_2006">
<rect width="66.2739" height="18" fill="white" transform="translate(0 0.161133)"/>
</clipPath>
</defs>
</svg>
