<svg width="35" height="19" viewBox="0 0 35 19" fill="none" xmlns="http://www.w3.org/2000/svg">
<g id="upi-icon">
<path id="Vector" fill-rule="evenodd" clip-rule="evenodd" d="M0.951373 13.8857H1.20567L0.967541 14.8742C0.931233 15.0196 0.939316 15.1325 0.987681 15.2051C1.03618 15.2777 1.12483 15.314 1.258 15.314C1.38707 15.314 1.49599 15.2777 1.5808 15.2051C1.66547 15.1323 1.72206 15.0194 1.75837 14.8742L1.99635 13.8857H2.25462L2.01252 14.8985C1.96005 15.1163 1.86729 15.2818 1.73014 15.3907C1.59697 15.4997 1.4194 15.5563 1.20156 15.5563C0.983708 15.5563 0.834366 15.5038 0.753667 15.3947C0.672968 15.2858 0.6568 15.1204 0.709275 14.9026L0.951373 13.8858V13.8857ZM31.5742 15.5117L31.9614 13.8857H32.845L32.7925 14.1116H32.1672L32.0705 14.5191H32.6958L32.6392 14.7491H32.0139L31.8888 15.2735H32.5143L32.4578 15.5116H31.5742V15.5117ZM31.55 14.2811C31.4934 14.2167 31.4249 14.1682 31.3523 14.1398C31.2795 14.1076 31.199 14.0915 31.1061 14.0915C30.9326 14.0915 30.7793 14.1479 30.6421 14.261C30.505 14.374 30.4162 14.5233 30.3718 14.7047C30.3314 14.8783 30.3476 15.0236 30.4284 15.1406C30.505 15.2535 30.626 15.31 30.7874 15.31C30.8801 15.31 30.973 15.2939 31.0656 15.2576C31.1585 15.2254 31.2514 15.1728 31.3482 15.1043L31.2755 15.4028C31.1948 15.4551 31.1102 15.4916 31.0213 15.5158C30.9325 15.54 30.8437 15.5521 30.747 15.5521C30.626 15.5521 30.5169 15.5319 30.4242 15.4914C30.3313 15.4512 30.2548 15.3906 30.1941 15.31C30.1337 15.2333 30.0974 15.1406 30.0812 15.0358C30.0652 14.9308 30.0692 14.8179 30.1015 14.6968C30.1297 14.5758 30.1781 14.4666 30.2428 14.3618C30.3073 14.2568 30.392 14.1641 30.4888 14.0875C30.5856 14.0068 30.6905 13.9464 30.8035 13.906C30.9164 13.8657 31.0293 13.8455 31.1465 13.8455C31.2392 13.8455 31.3239 13.8576 31.4047 13.8858C31.4813 13.9142 31.554 13.9543 31.6185 14.0109L31.55 14.2811ZM29.0404 14.8702H29.48L29.4074 14.4989C29.4034 14.4748 29.3993 14.4465 29.3993 14.4182C29.3952 14.386 29.3952 14.3537 29.3952 14.3174C29.379 14.3537 29.363 14.3859 29.3427 14.4182C29.3266 14.4504 29.3105 14.4788 29.2944 14.5031L29.0402 14.8702H29.0404ZM29.6011 15.5117L29.5204 15.0922H28.891L28.6085 15.5117H28.3383L29.5082 13.8213L29.8713 15.5117H29.6011ZM27.4709 15.5117L27.8582 13.8857H28.7418L28.6893 14.1116H28.0639L27.9671 14.5151H28.5923L28.5359 14.7452H27.9106L27.729 15.5076H27.4708V15.5117H27.4709ZM26.7083 14.5757H26.7567C26.8938 14.5757 26.9867 14.5595 27.0392 14.5272C27.0915 14.4948 27.128 14.4384 27.1481 14.3536C27.1681 14.2648 27.1602 14.2003 27.1197 14.164C27.0796 14.1276 26.9946 14.1074 26.8656 14.1074H26.8171L26.7082 14.5755L26.7083 14.5757ZM26.6438 14.7815L26.4702 15.5076H26.2281L26.6155 13.8817H26.9746C27.0796 13.8817 27.1602 13.8898 27.2126 13.902C27.2689 13.9142 27.3135 13.9383 27.3457 13.9705C27.3861 14.0109 27.4102 14.0593 27.4223 14.1238C27.4345 14.1845 27.4303 14.253 27.4142 14.3296C27.382 14.4588 27.3294 14.5637 27.2488 14.6362C27.1681 14.7088 27.0671 14.7532 26.9461 14.7694L27.3133 15.5075H27.0227L26.6717 14.7813H26.6435L26.6438 14.7815ZM25.0501 15.5117L25.4375 13.8857H26.3251L26.2727 14.1116H25.6473L25.5506 14.5191H26.1759L26.1196 14.7491H25.4941L25.3692 15.2735H25.9945L25.9379 15.5116H25.0502L25.0501 15.5117ZM24.7718 14.1076L24.4369 15.5076H24.1788L24.5137 14.1076H24.094L24.1465 13.8817H25.2439L25.1916 14.1076H24.7719H24.7718ZM22.1453 15.5117L22.5488 13.8213L23.3154 14.8138C23.3356 14.842 23.3556 14.8704 23.3758 14.9026C23.3959 14.9348 23.4162 14.9712 23.4403 15.0114L23.7108 13.8857H23.9488L23.5453 15.5723L22.7625 14.5595C22.7424 14.5313 22.7221 14.5031 22.7021 14.4747C22.682 14.4425 22.6658 14.4141 22.6536 14.3778L22.3834 15.5075H22.1454V15.5116L22.1453 15.5117ZM21.5159 15.5117L21.9032 13.8857H22.1613L21.774 15.5117H21.5159ZM19.6155 15.185L19.8454 15.0881C19.8494 15.1607 19.8695 15.2172 19.9141 15.2535C19.9585 15.2898 20.0189 15.31 20.0996 15.31C20.1762 15.31 20.2408 15.2898 20.2973 15.2455C20.3537 15.2011 20.3902 15.1447 20.4062 15.0721C20.4305 14.9752 20.374 14.8904 20.2369 14.8179C20.2167 14.8057 20.2047 14.7976 20.1923 14.7937C20.039 14.7049 19.9423 14.6283 19.9019 14.5557C19.8616 14.4831 19.8534 14.3982 19.8778 14.2975C19.91 14.1644 19.9786 14.0594 20.0874 13.9747C20.1964 13.894 20.3174 13.8497 20.4628 13.8497C20.5798 13.8497 20.6724 13.8739 20.7411 13.9182C20.8097 13.9627 20.846 14.0312 20.8581 14.116L20.6323 14.2209C20.612 14.1685 20.5878 14.1322 20.5556 14.1079C20.5234 14.0838 20.4829 14.0716 20.4344 14.0716C20.3658 14.0716 20.3054 14.0917 20.257 14.1281C20.2085 14.1644 20.1763 14.2129 20.1601 14.2774C20.136 14.3743 20.2047 14.4669 20.3618 14.5517C20.374 14.5598 20.382 14.5639 20.3902 14.5677C20.5273 14.6403 20.6201 14.7131 20.6604 14.7857C20.7008 14.8582 20.7089 14.943 20.6848 15.0519C20.6483 15.2052 20.5717 15.3262 20.4546 15.4191C20.3377 15.5078 20.2004 15.5564 20.039 15.5564C19.906 15.5564 19.801 15.5239 19.7284 15.4594C19.6477 15.3949 19.6114 15.302 19.6155 15.1851V15.185ZM19.3452 14.1076L19.0103 15.5076H18.7522L19.0871 14.1076H18.6675L18.7197 13.8817H19.8172L19.7647 14.1076H19.3452ZM16.7187 15.5117L17.1221 13.8213L17.8888 14.8138C17.9089 14.842 17.9292 14.8704 17.9493 14.9026C17.9693 14.9348 17.9896 14.9712 18.0139 15.0114L18.2842 13.8857H18.5222L18.1188 15.5723L17.3361 14.5595C17.3158 14.5313 17.2958 14.5031 17.2755 14.4747C17.2554 14.4425 17.2392 14.4141 17.2272 14.3778L16.9568 15.5075H16.7188V15.5116L16.7187 15.5117ZM15.5406 15.5117L15.9279 13.8857H16.8115L16.759 14.1116H16.1337L16.0368 14.5191H16.6621L16.6057 14.7491H15.9804L15.8553 15.2735H16.4807L16.4241 15.5116H15.5406V15.5117ZM15.1129 14.7088C15.1129 14.6968 15.1169 14.6603 15.125 14.6039C15.1291 14.5555 15.1331 14.5192 15.1372 14.4869C15.121 14.5233 15.1049 14.5595 15.0847 14.5998C15.0646 14.6362 15.0403 14.6765 15.0121 14.7128L14.3908 15.5802L14.1891 14.6968C14.181 14.6605 14.1729 14.6242 14.1688 14.5918C14.1648 14.5596 14.1607 14.5233 14.1607 14.491C14.1526 14.5233 14.1406 14.5595 14.1285 14.5998C14.1163 14.6362 14.1003 14.6765 14.08 14.7169L13.7169 15.5158H13.4789L14.2576 13.8213L14.4795 14.846C14.4835 14.8622 14.4876 14.8904 14.4917 14.9267C14.4957 14.9631 14.5038 15.0115 14.5119 15.0679C14.5401 15.0196 14.5764 14.9631 14.6249 14.8904C14.637 14.8704 14.649 14.8582 14.6531 14.846L15.3552 13.8213L15.3309 15.5158H15.0929L15.1132 14.7088H15.1129ZM12.6559 15.5117L12.8335 14.7694L12.5107 13.8898H12.7809L12.9826 14.4426C12.9867 14.4587 12.9906 14.4748 12.9987 14.4989C13.0068 14.5233 13.0109 14.5474 13.0189 14.5716C13.035 14.5474 13.0512 14.5232 13.0674 14.4989C13.0835 14.4748 13.0997 14.4546 13.1157 14.4344L13.5879 13.8898H13.846L13.0916 14.7653L12.9141 15.5075H12.6558V15.5116L12.6559 15.5117ZM11.4576 14.8702H11.8973L11.8247 14.4989C11.8206 14.4748 11.8166 14.4465 11.8166 14.4182C11.8125 14.386 11.8125 14.3537 11.8125 14.3174C11.7963 14.3537 11.7802 14.3859 11.76 14.4182C11.7438 14.4504 11.7278 14.4788 11.7115 14.5031L11.4574 14.8702H11.4576ZM12.0143 15.5117L11.9336 15.0922H11.3042L11.0218 15.5117H10.7515L11.9215 13.8213L12.2846 15.5117H12.0143ZM10.3965 14.5636H10.461C10.6023 14.5636 10.7031 14.5474 10.7596 14.5151C10.816 14.4829 10.8523 14.4265 10.8726 14.3456C10.8926 14.261 10.8805 14.1964 10.8403 14.1642C10.7959 14.1279 10.7071 14.1118 10.574 14.1118H10.5095L10.3965 14.5637V14.5636ZM10.3278 14.7815L10.1544 15.5117H9.91229L10.2996 13.8857H10.6909C10.8079 13.8857 10.8886 13.8938 10.9411 13.9058C10.9936 13.9179 11.034 13.9382 11.0662 13.9704C11.1065 14.0067 11.1347 14.0591 11.1469 14.1237C11.1589 14.1883 11.155 14.2568 11.1388 14.3334C11.1187 14.4102 11.0904 14.4828 11.0461 14.5473C11.0017 14.6118 10.9492 14.6643 10.8927 14.7006C10.8444 14.7288 10.7919 14.753 10.7354 14.7652C10.679 14.7772 10.5902 14.7854 10.4772 14.7854H10.328V14.7813L10.3278 14.7815ZM7.91919 15.2696H8.13704C8.25405 15.2696 8.3468 15.2615 8.41147 15.2455C8.476 15.2295 8.53245 15.2011 8.58493 15.1648C8.65754 15.1123 8.7181 15.0478 8.76647 14.9671C8.81497 14.8904 8.85128 14.7976 8.87539 14.6928C8.8995 14.5879 8.90759 14.4991 8.89553 14.4226C8.88347 14.3458 8.85525 14.2773 8.80675 14.2248C8.77044 14.1845 8.72605 14.1603 8.66563 14.1441C8.60507 14.1279 8.51231 14.12 8.37914 14.12H8.19362L7.91919 15.2698V15.2696ZM7.60448 15.5117L7.99194 13.8857H8.33886C8.56479 13.8857 8.72221 13.8977 8.80675 13.922C8.89156 13.9462 8.96404 13.9826 9.02062 14.039C9.09324 14.1116 9.14174 14.2045 9.16188 14.3133C9.18202 14.4263 9.17394 14.5554 9.14174 14.6967C9.10529 14.8419 9.05296 14.9668 8.98034 15.0797C8.90772 15.1928 8.81497 15.2815 8.70604 15.3542C8.62534 15.4108 8.53656 15.4471 8.4397 15.4712C8.34694 15.4954 8.20568 15.5075 8.02003 15.5075H7.60448V15.5116V15.5117ZM6.42235 15.5117L6.80968 13.8857H7.69326L7.64079 14.1116H7.01533L6.91847 14.5191H7.54392L7.48747 14.7491H6.86202L6.73693 15.2735H7.36238L7.30593 15.5116H6.42235V15.5117ZM5.7969 15.5117L6.18422 13.8857H6.44235L6.05502 15.5117H5.79676H5.7969ZM4.62682 15.5117L5.01415 13.8857H5.89774L5.84526 14.1116H5.21994L5.12308 14.5151H5.74839L5.69195 14.7452H5.06649L4.88495 15.5076H4.62669V15.5117H4.62682ZM4.00137 15.5117L4.3887 13.8857H4.64683L4.2595 15.5117H4.00123H4.00137ZM2.21817 15.5117L2.62153 13.8213L3.38811 14.8138C3.40825 14.842 3.42839 14.8704 3.44867 14.9026C3.46881 14.9348 3.48895 14.9712 3.5132 15.0114L3.78352 13.8857H4.02151L3.61815 15.5723L2.83541 14.5595C2.81527 14.5313 2.79513 14.5031 2.77485 14.4747C2.75471 14.4425 2.73854 14.4141 2.72648 14.3778L2.45616 15.5075H2.21817V15.5116V15.5117Z" fill="#3A3734"/>
<path id="Vector_2" fill-rule="evenodd" clip-rule="evenodd" d="M26.8778 12.4684H25.1067L27.5678 3.58008H29.339L26.8778 12.4684ZM12.1596 11.9116C12.0627 12.2626 11.7399 12.5087 11.3769 12.5087H2.24661C1.99643 12.5087 1.81092 12.4238 1.6898 12.2545C1.56882 12.0849 1.5406 11.8751 1.61321 11.6251L3.84032 3.60433H5.6116L3.62247 10.7697H10.7073L12.6963 3.60433H14.4676L12.1597 11.9116H12.1596ZM25.958 3.85848C25.837 3.689 25.6472 3.60433 25.3891 3.60433H15.6576L15.1775 5.34724H24.0295L23.5131 7.2073H16.4324V7.20319H14.6613L13.1927 12.5088H14.9638L15.9482 8.95021H23.9086C24.1587 8.95021 24.3927 8.8654 24.6106 8.69606C24.8284 8.52658 24.9738 8.31681 25.0423 8.06663L26.0267 4.50819C26.1033 4.24198 26.0792 4.0281 25.9581 3.85862L25.958 3.85848Z" fill="#716D6A"/>
<path id="Vector_3" fill-rule="evenodd" clip-rule="evenodd" d="M32.397 3.59668L34.6364 8.0509L29.928 12.5051L30.4879 10.4846L33.0629 8.0509L31.8379 5.61416L32.397 3.59668Z" fill="#0E8635"/>
<path id="Vector_4" fill-rule="evenodd" clip-rule="evenodd" d="M30.8239 3.59668L33.0631 8.0509L28.3506 12.5051L30.8239 3.59668Z" fill="#E97208"/>
</g>
</svg>
