<svg width="32" height="24" viewBox="0 0 32 24" fill="none" xmlns="http://www.w3.org/2000/svg">
<path d="M30.3145 10.0474H24.5845C24.1476 10.0474 23.7285 10.221 23.4196 10.5301C23.1106 10.8391 22.937 11.2583 22.937 11.6953V13.6728C22.937 14.1099 23.1106 14.529 23.4196 14.8381C23.7285 15.1471 24.1476 15.3208 24.5845 15.3208H30.32C30.5003 15.3208 30.6732 15.2491 30.8007 15.1216C30.9282 14.994 30.9998 14.8211 30.9998 14.6407V10.7263C30.9997 10.6367 30.9818 10.5479 30.9472 10.4652C30.9126 10.3824 30.8621 10.3073 30.7984 10.2442C30.7347 10.1811 30.6591 10.1313 30.5761 10.0975C30.493 10.0637 30.4041 10.0467 30.3145 10.0474Z" stroke="#032146" stroke-linecap="round" stroke-linejoin="round"/>
<path d="M26.106 13.7789C26.7108 13.6808 27.1215 13.1109 27.0234 12.5062C26.9252 11.9015 26.3555 11.4908 25.7507 11.5889C25.146 11.6871 24.7353 12.2569 24.8334 12.8617C24.9315 13.4664 25.5013 13.8771 26.106 13.7789Z" stroke="#032146" stroke-linecap="round" stroke-linejoin="round"/>
<path d="M3.87012 8.38965V2.89658" stroke="#032146" stroke-linecap="round" stroke-linejoin="round"/>
<path d="M29.3766 15.3209V18.9155C29.3766 19.5303 29.1324 20.12 28.6978 20.5547C28.2632 20.9894 27.6738 21.2336 27.0591 21.2336H15.999" stroke="#032146" stroke-linecap="round" stroke-linejoin="round"/>
<path d="M28.1188 4.09071V2.73393C28.1204 2.54499 28.0847 2.3576 28.0137 2.1825C27.9428 2.00739 27.838 1.84801 27.7053 1.7135C27.5727 1.57898 27.4148 1.47197 27.2407 1.39861C27.0667 1.32524 26.8798 1.28696 26.691 1.28595H5.53614C5.21442 1.28277 4.90293 1.3989 4.66176 1.61192C4.4206 1.82495 4.26687 2.11977 4.23023 2.4395C4.21154 2.61577 4.22991 2.794 4.28417 2.96274C4.33842 3.13149 4.42736 3.28702 4.54527 3.41934C4.66318 3.55166 4.80746 3.65786 4.96884 3.7311C5.13021 3.80434 5.30512 3.84301 5.48232 3.84462H27.0973C27.7068 3.84985 28.2893 4.09698 28.7167 4.53167C29.144 4.96637 29.3813 5.55304 29.3764 6.1627V10.0474" stroke="#032146" stroke-linecap="round" stroke-linejoin="round"/>
<path d="M6.50058 21.8452L5.1123 22.5758C4.91437 22.6802 4.69118 22.727 4.468 22.711C4.24482 22.6951 4.03057 22.6169 3.8495 22.4854C3.66844 22.354 3.5278 22.1744 3.4435 21.9671C3.35921 21.7597 3.33463 21.533 3.37255 21.3124L3.91183 18.1703C3.93728 18.0218 3.92628 17.8693 3.87979 17.726C3.8333 17.5827 3.75271 17.4528 3.64494 17.3475L1.36262 15.1228C1.20258 14.967 1.08923 14.7696 1.03537 14.5528C0.981516 14.3361 0.989286 14.1086 1.05781 13.896C1.12633 13.6834 1.25288 13.4942 1.42318 13.3497C1.59348 13.2052 1.80075 13.1112 2.02162 13.0783L5.176 12.6202C5.32511 12.5985 5.46671 12.5408 5.58859 12.4522C5.71048 12.3636 5.80899 12.2467 5.87563 12.1115L7.28588 9.2551C7.3848 9.05445 7.53788 8.88549 7.72781 8.76735C7.91774 8.64921 8.13693 8.58661 8.36059 8.58661C8.58425 8.58661 8.80344 8.64921 8.99337 8.76735C9.1833 8.88549 9.33638 9.05445 9.4353 9.2551L10.8455 12.1115C10.9122 12.2467 11.0107 12.3636 11.1326 12.4522C11.2545 12.5408 11.3961 12.5985 11.5452 12.6202L14.6996 13.0783C14.9204 13.1112 15.1277 13.2052 15.298 13.3497C15.4683 13.4942 15.5949 13.6834 15.6634 13.896C15.7319 14.1086 15.7397 14.3361 15.6858 14.5528C15.632 14.7696 15.5186 14.967 15.3586 15.1228L15.1532 15.3227" stroke="#032146" stroke-linecap="round" stroke-linejoin="round"/>
<path d="M11.8494 14.7208L12.6863 16.4181C12.7257 16.4985 12.7841 16.568 12.8565 16.6207C12.9288 16.6733 13.0129 16.7075 13.1015 16.7202L14.9687 16.9927C15.1 17.0119 15.2234 17.0674 15.3248 17.153C15.4263 17.2386 15.5018 17.3509 15.5428 17.4772C15.5838 17.6034 15.5887 17.7387 15.5569 17.8676C15.5252 17.9965 15.458 18.1139 15.363 18.2067L14.0076 19.525C13.9432 19.5873 13.895 19.6644 13.8673 19.7497C13.8395 19.8349 13.833 19.9256 13.8484 20.0139L14.168 21.8815C14.1904 22.0124 14.1757 22.147 14.1257 22.2699C14.0756 22.3929 13.9922 22.4995 13.8848 22.5775C13.7774 22.6556 13.6503 22.702 13.5179 22.7116C13.3855 22.7213 13.2531 22.6936 13.1356 22.6319L11.4606 21.753C11.3814 21.7111 11.2932 21.6891 11.2036 21.6891C11.114 21.6891 11.0258 21.7111 10.9466 21.753L9.27166 22.6319C9.15413 22.6936 9.02168 22.7213 8.88928 22.7116C8.75687 22.702 8.62979 22.6556 8.52239 22.5775C8.415 22.4995 8.33157 22.3929 8.28153 22.2699C8.23149 22.147 8.21684 22.0124 8.23923 21.8815L8.55884 20.0139C8.57419 19.9256 8.56769 19.8349 8.53993 19.7497C8.51217 19.6644 8.464 19.5873 8.39959 19.525L7.04426 18.2067C6.94926 18.1139 6.88207 17.9965 6.85029 17.8676C6.81851 17.7387 6.8234 17.6034 6.86442 17.4772C6.90543 17.3509 6.98093 17.2386 7.08239 17.153C7.18384 17.0674 7.30721 17.0119 7.43856 16.9927L9.30571 16.7202C9.39428 16.7075 9.4784 16.6733 9.55076 16.6207C9.62311 16.568 9.68151 16.4985 9.72087 16.4181L10.5578 14.7208C10.6149 14.5975 10.706 14.4932 10.8204 14.42C10.9349 14.3469 11.0678 14.308 11.2036 14.308C11.3394 14.308 11.4724 14.3469 11.5868 14.42C11.7012 14.4932 11.7924 14.5975 11.8494 14.7208Z" stroke="#032146" stroke-linecap="round" stroke-linejoin="round"/>
</svg>
