<svg width="24" height="28" viewBox="0 0 24 28" fill="none" xmlns="http://www.w3.org/2000/svg">
<path d="M2.96484 21.9241H21.04" stroke="#032146" stroke-linecap="round" stroke-linejoin="round" stroke-dasharray="0.77 4.45"/>
<path d="M12.6178 6.31905L13.9868 9.09572C14.0364 9.19553 14.1095 9.28181 14.1998 9.34719C14.2901 9.41257 14.3949 9.45509 14.5052 9.47111L17.5664 9.918C17.6931 9.93669 17.8122 9.9904 17.9101 10.0731C18.008 10.1558 18.0808 10.2641 18.1204 10.386C18.1601 10.5078 18.1649 10.6383 18.1344 10.7627C18.1039 10.8872 18.0392 11.0006 17.9477 11.0903L15.7252 13.2548C15.6449 13.3324 15.5849 13.4286 15.5504 13.5348C15.5158 13.641 15.5078 13.754 15.5271 13.864L16.0499 16.9118C16.072 17.0382 16.0581 17.1683 16.01 17.2873C15.9618 17.4062 15.8813 17.5093 15.7776 17.5849C15.6738 17.6604 15.551 17.7053 15.423 17.7146C15.295 17.7239 15.1669 17.6971 15.0534 17.6373L12.3139 16.1968C12.215 16.1453 12.1052 16.1185 11.9937 16.1185C11.8822 16.1185 11.7723 16.1453 11.6734 16.1968L8.93398 17.6373C8.82033 17.6969 8.69228 17.7235 8.56429 17.7142C8.4363 17.7049 8.31346 17.66 8.20965 17.5845C8.10585 17.509 8.0252 17.4061 7.97684 17.2872C7.92847 17.1683 7.9143 17.0383 7.93593 16.9118L8.45879 13.864C8.47803 13.754 8.47004 13.641 8.4355 13.5348C8.40096 13.4286 8.34094 13.3324 8.26067 13.2548L6.04261 11.0874C5.91371 10.9583 5.84131 10.7834 5.84131 10.601C5.84131 10.4186 5.91371 10.2437 6.04261 10.1146C6.14864 10.0084 6.28596 9.93894 6.43438 9.91651L9.49706 9.46962C9.60731 9.45399 9.7121 9.4118 9.80241 9.34666C9.89272 9.28152 9.96583 9.1954 10.0155 9.09572L11.3844 6.32054C11.4405 6.20396 11.5283 6.10557 11.6378 6.0367C11.7473 5.96784 11.874 5.9313 12.0034 5.9313C12.1327 5.9313 12.2594 5.96784 12.3689 6.0367C12.4784 6.10557 12.5663 6.20396 12.6223 6.32054L12.6178 6.31905Z" stroke="#032146" stroke-linecap="round" stroke-linejoin="round"/>
<path d="M12.0635 3.95815V3.68257" stroke="#032146" stroke-linecap="round" stroke-linejoin="round"/>
<path d="M12.0635 19.6341V19.3585" stroke="#032146" stroke-linecap="round" stroke-linejoin="round"/>
<path d="M20.0755 11.8252H19.7061" stroke="#032146" stroke-linecap="round" stroke-linejoin="round"/>
<path d="M18.6112 18.3733L18.063 17.8251" stroke="#032146" stroke-linecap="round" stroke-linejoin="round"/>
<path d="M17.9508 5.93462L17.3892 6.49621" stroke="#032146" stroke-linecap="round" stroke-linejoin="round"/>
<path d="M3.92627 11.8252H4.2957" stroke="#032146" stroke-linecap="round" stroke-linejoin="round"/>
<path d="M5.39307 18.3733L5.94125 17.8251" stroke="#032146" stroke-linecap="round" stroke-linejoin="round"/>
<path d="M6.05225 5.93462L6.61384 6.49621" stroke="#032146" stroke-linecap="round" stroke-linejoin="round"/>
<path d="M0.99707 27L2.83825 24.697L4.67199 27L6.50572 24.697L8.33946 27L10.1672 24.697L12.001 27L13.8347 24.697L15.6684 27L17.5022 24.697L19.3359 27L21.1696 24.697L23.0034 27V3.66644C22.3267 3.62348 21.6921 3.32338 21.2296 2.82762C20.7671 2.33187 20.5117 1.678 20.5157 1H3.48475C3.48878 1.678 3.23336 2.33187 2.77084 2.82762C2.30832 3.32338 1.67372 3.62348 0.99707 3.66644V27Z" stroke="#032146" stroke-linecap="round" stroke-linejoin="round"/>
</svg>
