<svg width="24" height="28" viewBox="0 0 24 28" fill="none" xmlns="http://www.w3.org/2000/svg">
<path d="M4.51172 15.368L4.96922 6.47831C4.97813 6.30876 5.05364 6.14901 5.18017 6.03202C5.30671 5.91504 5.4746 5.84973 5.64921 5.84961H21.2C21.3746 5.84973 21.5425 5.91504 21.669 6.03202C21.7955 6.14901 21.871 6.30876 21.88 6.47831L22.8325 25.008C22.837 25.0976 22.8228 25.1871 22.7907 25.2712C22.7585 25.3552 22.7092 25.4321 22.6456 25.4971C22.582 25.562 22.5055 25.6138 22.4208 25.6492C22.336 25.6846 22.2447 25.7028 22.1525 25.7029H16.4275" stroke="#032146" stroke-linecap="round" stroke-linejoin="round"/>
<path d="M9.33838 5.83624V5.82542C9.33838 3.16056 11.1614 1 13.41 1H13.4336C15.6822 1 17.5052 3.16326 17.5052 5.82542V5.83894" stroke="#032146" stroke-linecap="round" stroke-linejoin="round"/>
<path d="M4.86182 8.57275H21.9895" stroke="#032146" stroke-linecap="round" stroke-linejoin="round"/>
<path d="M6.78099 26.1356L5.36122 26.8617C5.15894 26.9653 4.93087 27.0118 4.70282 26.9959C4.47477 26.9801 4.25583 26.9025 4.07078 26.7719C3.88572 26.6414 3.74193 26.4631 3.65567 26.2572C3.56941 26.0514 3.54413 25.8261 3.58268 25.607L4.13891 22.4838C4.1643 22.3358 4.15225 22.1839 4.1038 22.0414C4.05535 21.8989 3.97194 21.77 3.86079 21.6658L1.53298 19.4512C1.37037 19.2958 1.25556 19.0994 1.20148 18.8841C1.1474 18.6688 1.15618 18.4431 1.22683 18.2324C1.29749 18.0216 1.42723 17.8342 1.60144 17.6913C1.77565 17.5483 1.98743 17.4554 2.21297 17.4231L5.42658 16.9634C5.57916 16.9419 5.72407 16.8846 5.84883 16.7965C5.97358 16.7084 6.07444 16.5922 6.14272 16.4578L7.58474 13.6185C7.68577 13.4188 7.8423 13.2507 8.03658 13.1331C8.23087 13.0155 8.45514 12.9532 8.68399 12.9532C8.91284 12.9532 9.13711 13.0155 9.3314 13.1331C9.52568 13.2507 9.68221 13.4188 9.78324 13.6185L11.2253 16.4578C11.2935 16.5922 11.3944 16.7084 11.5192 16.7965C11.6439 16.8846 11.7888 16.9419 11.9414 16.9634L15.1661 17.4191C15.3917 17.4514 15.6034 17.5443 15.7777 17.6872C15.9519 17.8302 16.0816 18.0175 16.1523 18.2283C16.2229 18.439 16.2317 18.6648 16.1776 18.8801C16.1235 19.0954 16.0087 19.2918 15.8461 19.4471L15.6361 19.6459" stroke="#032146" stroke-linecap="round" stroke-linejoin="round"/>
<path d="M12.2512 19.0552L13.1078 20.7425C13.1483 20.8224 13.2083 20.8914 13.2824 20.9437C13.3565 20.996 13.4426 21.03 13.5333 21.0427L15.4481 21.3131C15.5827 21.3318 15.7091 21.3869 15.8131 21.4721C15.9172 21.5572 15.9945 21.6689 16.0365 21.7946C16.0785 21.9204 16.0834 22.055 16.0507 22.1833C16.018 22.3116 15.9489 22.4284 15.8513 22.5205L14.4608 23.8333C14.3952 23.8953 14.3462 23.9719 14.3179 24.0565C14.2895 24.141 14.2827 24.231 14.2981 24.3187L14.6249 26.1723C14.648 26.3025 14.6333 26.4363 14.5822 26.5587C14.5312 26.6811 14.4459 26.7871 14.336 26.8648C14.2262 26.9425 14.0961 26.9887 13.9606 26.9983C13.8251 27.0078 13.6896 26.9802 13.5694 26.9186L11.8562 26.0439C11.7752 26.0024 11.685 25.9808 11.5934 25.9808C11.5018 25.9808 11.4117 26.0024 11.3306 26.0439L9.61743 26.9186C9.49723 26.9802 9.36169 27.0078 9.2262 26.9983C9.09072 26.9887 8.96069 26.9425 8.85083 26.8648C8.74097 26.7871 8.65568 26.6811 8.60463 26.5587C8.55358 26.4363 8.53881 26.3025 8.56198 26.1723L8.88877 24.3187C8.90411 24.231 8.89731 24.141 8.86897 24.0565C8.84063 23.9719 8.79159 23.8953 8.72606 23.8333L7.33549 22.5205C7.23794 22.4284 7.16888 22.3116 7.13615 22.1833C7.10341 22.055 7.10831 21.9204 7.1503 21.7946C7.19229 21.6689 7.26969 21.5572 7.37371 21.4721C7.47772 21.3869 7.60418 21.3318 7.73875 21.3131L9.65356 21.0427C9.74421 21.03 9.83032 20.996 9.90445 20.9437C9.97858 20.8914 10.0385 20.8224 10.0791 20.7425L10.9357 19.0552C10.9945 18.934 11.0876 18.8315 11.204 18.7597C11.3205 18.6879 11.4555 18.6498 11.5934 18.6498C11.7313 18.6498 11.8663 18.6879 11.9828 18.7597C12.0993 18.8315 12.1923 18.934 12.2512 19.0552Z" stroke="#032146" stroke-linecap="round" stroke-linejoin="round"/>
</svg>
