<svg width="22" height="28" viewBox="0 0 22 28" fill="none" xmlns="http://www.w3.org/2000/svg">
<path d="M10.9876 24.9598C8.30048 24.9598 4.54354 21.9742 3.67273 18.1426C3.62297 17.9187 3.77225 17.6947 3.9713 17.645C4.19522 17.5952 4.41914 17.7445 4.4689 17.9435C5.24019 21.3522 8.64881 24.1139 10.9876 24.1139C13.3263 24.1139 11.3857 24.288 11.3857 24.512C11.3857 24.7359 11.2115 24.91 10.9876 24.91V24.9598Z" fill="#032146"/>
<path fill-rule="evenodd" clip-rule="evenodd" d="M11.0875 25.0598H10.9875C9.61091 25.0598 7.97726 24.2977 6.58268 23.0629C5.18612 21.8264 4.01602 20.1046 3.57514 18.1647L3.57504 18.1643L3.57504 18.1643C3.51344 17.8871 3.69569 17.6108 3.94697 17.548L3.94952 17.5473L3.94953 17.5474C4.22671 17.4858 4.50302 17.668 4.56584 17.9193L4.56639 17.9215L4.56636 17.9215C4.94652 19.6015 5.97829 21.1268 7.20725 22.2326C8.43855 23.3405 9.85248 24.0139 10.9875 24.0139C11.5704 24.0139 11.8948 24.0246 12.0497 24.0455C12.0883 24.0507 12.1227 24.0573 12.1497 24.0669C12.1628 24.0716 12.1808 24.0792 12.1973 24.0924C12.2143 24.106 12.2397 24.1339 12.2412 24.1774C12.2426 24.2184 12.2215 24.2466 12.2095 24.2596C12.1968 24.2734 12.1825 24.283 12.1719 24.2893C12.1504 24.3022 12.1239 24.3132 12.0983 24.3227C12.0461 24.3421 11.9759 24.3628 11.9042 24.3836C11.8982 24.3854 11.8922 24.3871 11.8861 24.3889C11.8184 24.4086 11.7484 24.4289 11.6835 24.4503C11.6119 24.4738 11.5522 24.4968 11.5119 24.5186C11.4995 24.5253 11.4908 24.5309 11.4851 24.5351C11.4748 24.7692 11.3099 24.9567 11.0875 25.0004V25.0598ZM10.9875 24.91C11.2114 24.91 11.3856 24.7359 11.3856 24.512C11.3856 24.4303 11.6435 24.3553 11.858 24.2929C11.9182 24.2754 11.975 24.2589 12.0217 24.2435C12.0341 24.2394 12.0458 24.2354 12.0567 24.2315C12.156 24.1955 12.1851 24.1665 12.0483 24.1463C12.0371 24.1446 12.0248 24.143 12.0113 24.1415C11.8546 24.1236 11.5409 24.1139 10.9875 24.1139C8.64873 24.1139 5.24012 21.3522 4.46883 17.9435C4.41907 17.7445 4.19514 17.5952 3.97122 17.645C3.77218 17.6947 3.62289 17.9187 3.67266 18.1426C4.53272 21.9269 8.20809 24.886 10.8875 24.9584C10.921 24.9594 10.9543 24.9598 10.9875 24.9598V24.91Z" fill="#032146"/>
<path d="M15.2917 20.9043C15.1673 20.9043 15.018 20.9043 14.8687 20.9043C14.6697 20.9043 14.4706 20.9043 14.2467 20.9043C14.0228 20.9043 13.8486 20.7301 13.8486 20.5062C13.8486 20.2823 14.0228 20.1081 14.2467 20.1081C14.4706 20.1081 14.6697 20.1081 14.8936 20.1081C17.108 20.1081 17.8295 20.0584 18.1281 18.6153C18.1778 18.3914 18.3769 18.2421 18.6008 18.2919C18.8247 18.3416 18.974 18.5407 18.9242 18.7646C18.5261 20.7799 17.1826 20.9292 15.3166 20.9292L15.2917 20.9043Z" fill="#032146"/>
<path fill-rule="evenodd" clip-rule="evenodd" d="M15.3165 20.9292C17.1825 20.9292 18.526 20.7799 18.9241 18.7646C18.9739 18.5407 18.8246 18.3416 18.6007 18.2919C18.3768 18.2421 18.1777 18.3914 18.128 18.6153C17.8294 20.0584 17.1079 20.1081 14.8935 20.1081H14.2466C14.0227 20.1081 13.8485 20.2823 13.8485 20.5062C13.8485 20.7301 14.0227 20.9043 14.2466 20.9043H15.2916L15.3165 20.9292ZM15.2499 21.0043H14.2466C13.9675 21.0043 13.7485 20.7854 13.7485 20.5062C13.7485 20.2271 13.9675 20.0081 14.2466 20.0081H14.8935C15.4476 20.0081 15.9044 20.005 16.284 19.9781C16.664 19.9511 16.9594 19.9007 17.1928 19.8097C17.4234 19.7198 17.5941 19.59 17.7259 19.4003C17.8593 19.2082 17.9568 18.9492 18.03 18.5951L18.0303 18.5936C18.0901 18.3245 18.3362 18.1307 18.6224 18.1942C18.8911 18.254 19.0848 18.4994 19.022 18.7851C18.8181 19.8161 18.3667 20.3878 17.7131 20.6932C17.0711 20.9932 16.2467 21.0292 15.3165 21.0292H15.2751L15.2499 21.0043Z" fill="#032146"/>
<path d="M4.91654 11.5742C4.86678 11.5742 4.81702 11.5742 4.76726 11.5493C4.56822 11.4746 4.4687 11.2258 4.54334 11.0268C5.31463 9.11101 7.42946 8.6134 10.1165 7.94163C10.3653 7.86699 10.639 7.81723 10.9127 7.74258C12.8285 7.26986 13.2764 5.77703 13.2764 5.77703C13.3261 5.57799 13.5252 5.47847 13.6993 5.47847C13.8984 5.47847 14.0476 5.65263 14.0725 5.85168C14.0725 5.85168 14.1969 7.41914 15.1424 8.63828C16.2122 10.0813 17.307 10.8029 17.3319 10.8278C17.506 10.9522 17.5807 11.201 17.4314 11.4C17.307 11.599 17.0582 11.6488 16.8591 11.5244C16.8094 11.4995 15.64 10.7034 14.4706 9.16077C13.9481 8.46412 13.6247 7.69282 13.4505 7.07081C13.0027 7.61818 12.2811 8.26507 11.062 8.56364C10.7883 8.63828 10.5146 8.68804 10.2658 8.76268C7.70315 9.38469 5.862 9.83254 5.23999 11.3502C5.16535 11.4995 5.01606 11.599 4.86678 11.599L4.91654 11.5742Z" fill="#032146"/>
<path fill-rule="evenodd" clip-rule="evenodd" d="M4.91676 11.5954C4.92005 11.5949 4.92333 11.5944 4.9266 11.5938C4.93248 11.5928 4.93835 11.5916 4.94419 11.5903C5.06576 11.5631 5.1785 11.4737 5.24021 11.3502C5.86222 9.83253 7.70337 9.38468 10.266 8.76267C10.4034 8.72147 10.5483 8.68786 10.6966 8.65345C10.817 8.62552 10.9396 8.59707 11.0622 8.56363C12.2133 8.28173 12.9208 7.68928 13.3732 7.16328C13.3999 7.1322 13.4257 7.10135 13.4507 7.07081C13.4614 7.10893 13.4726 7.14761 13.4845 7.18679C13.6653 7.78707 13.9804 8.5068 14.4708 9.16076C15.6402 10.7033 16.8096 11.4995 16.8593 11.5244C17.0584 11.6488 17.3072 11.599 17.4316 11.4C17.5809 11.201 17.5062 10.9521 17.3321 10.8277C17.3298 10.8255 17.3184 10.8172 17.2987 10.8031C17.1054 10.6636 16.1138 9.94822 15.1426 8.63827C14.1971 7.41913 14.0727 5.85167 14.0727 5.85167C14.0479 5.65263 13.8986 5.47846 13.6995 5.47846C13.5254 5.47846 13.3263 5.57799 13.2766 5.77703C13.2766 5.77703 12.8287 7.26985 10.9129 7.74258C10.7903 7.77602 10.6677 7.80447 10.5473 7.83239C10.399 7.8668 10.2541 7.90042 10.1168 7.94162C10.0698 7.95337 10.023 7.96506 9.97632 7.97671C7.35612 8.63123 5.30136 9.1445 4.54356 11.0268C4.46892 11.2258 4.56844 11.4746 4.76748 11.5493C4.79053 11.5608 4.81357 11.567 4.83661 11.5703C4.84228 11.5711 4.84795 11.5718 4.85362 11.5723C4.85808 11.5727 4.86254 11.573 4.867 11.5732C4.88359 11.5742 4.90018 11.5742 4.91676 11.5742L4.867 11.599C4.88362 11.599 4.90025 11.5978 4.91676 11.5954ZM10.0903 7.84517C10.0423 7.85716 9.99445 7.86911 9.9468 7.88101C8.66469 8.20125 7.50582 8.49071 6.5695 8.92706C5.59381 9.38175 4.84886 10.0007 4.45079 10.9894L4.45077 10.9894L4.44993 10.9917C4.35844 11.2356 4.47502 11.5431 4.72765 11.6411C4.77479 11.6636 4.82137 11.6708 4.86088 11.6731L4.867 11.699C5.05941 11.699 5.24055 11.5732 5.32965 11.395L5.3299 11.3951L5.33274 11.3882C5.63022 10.6623 6.22023 10.1858 7.06581 9.81203C7.91423 9.437 9.00532 9.17158 10.2896 8.85985L10.2897 8.85999L10.2948 8.85846C10.4158 8.82215 10.5436 8.79168 10.6775 8.76055C10.6913 8.75733 10.7053 8.75409 10.7193 8.75084C10.839 8.72307 10.9631 8.69428 11.0873 8.66045C12.2278 8.38084 12.9434 7.80166 13.4073 7.27632C13.5935 7.87303 13.9085 8.57763 14.3908 9.22076L14.3911 9.22117C14.9804 9.99855 15.5698 10.588 16.0185 10.9865C16.2429 11.1858 16.4323 11.3375 16.5692 11.4412C16.6376 11.4931 16.693 11.533 16.7333 11.561C16.7656 11.5835 16.7929 11.6018 16.8087 11.6107C17.0502 11.76 17.3585 11.7015 17.5141 11.4566C17.6988 11.2065 17.6014 10.9 17.3939 10.749C17.3904 10.7461 17.3876 10.7441 17.3869 10.7436L17.3739 10.734L17.3334 10.7047C17.2994 10.6801 17.2512 10.6448 17.1906 10.5986C17.0694 10.5061 16.8987 10.3701 16.6955 10.19C16.2891 9.82975 15.753 9.29363 15.2229 8.57872L15.223 8.5787L15.2216 8.57699C14.7597 7.98141 14.4969 7.29831 14.3496 6.76134C14.2761 6.49333 14.2317 6.26295 14.2057 6.09991C14.1927 6.01842 14.1844 5.95383 14.1793 5.90988C14.1767 5.88791 14.175 5.8711 14.1739 5.85992L14.1727 5.84744L14.1725 5.84448L14.1724 5.84383L14.1724 5.84376L14.1725 5.84375L14.172 5.83927C14.1428 5.60597 13.9635 5.37846 13.6995 5.37846C13.497 5.37846 13.2459 5.49392 13.1803 5.74987L13.18 5.75093L13.1764 5.76179C13.173 5.77167 13.1677 5.78672 13.1602 5.80633C13.1452 5.84557 13.1214 5.903 13.0868 5.9738C13.0177 6.11546 12.9057 6.31015 12.7356 6.51945C12.396 6.93717 11.8231 7.415 10.889 7.64549L10.889 7.64546L10.8866 7.6461C10.766 7.67901 10.6453 7.70701 10.5246 7.735C10.5107 7.73823 10.4968 7.74146 10.4829 7.7447C10.35 7.77559 10.2174 7.80714 10.0903 7.84517Z" fill="#032146"/>
<path d="M1.65719 27C1.45814 27 1.28398 26.8507 1.2591 26.6766C1.20934 26.4526 1.35862 26.2536 1.58255 26.2038L5.38924 25.5072C5.58829 25.4823 5.71269 25.3081 5.71269 25.1091V24.1636C5.71269 23.9397 5.88685 23.7655 6.11078 23.7655C6.3347 23.7655 6.50886 23.9397 6.50886 24.1636V25.1091C6.50886 25.7062 6.0859 26.2038 5.51365 26.3033L1.70695 27C1.70695 27 1.65719 27 1.63231 27H1.65719Z" fill="#032146"/>
<path fill-rule="evenodd" clip-rule="evenodd" d="M1.56463 26.1055L5.3769 25.4078C5.51582 25.3904 5.61277 25.2686 5.61277 25.1091V24.1636C5.61277 23.8845 5.83171 23.6655 6.11086 23.6655C6.39001 23.6655 6.60894 23.8845 6.60894 24.1636V25.1091C6.60894 25.7544 6.15152 26.2937 5.53131 26.4018C5.53116 26.4018 5.53146 26.4018 5.53131 26.4018L1.7161 27.1H1.63239C1.39936 27.0883 1.19401 26.9126 1.16076 26.6946C1.09963 26.4099 1.29301 26.1657 1.56093 26.1062L1.56463 26.1055ZM1.25918 26.6765C1.28302 26.8434 1.44389 26.9874 1.63239 26.9992C1.64063 26.9997 1.64893 27 1.65727 27H1.70703L5.51373 26.3033C6.08598 26.2038 6.50894 25.7062 6.50894 25.1091V24.1636C6.50894 23.9397 6.33478 23.7655 6.11086 23.7655C5.88693 23.7655 5.71277 23.9397 5.71277 24.1636V25.1091C5.71277 25.3081 5.58837 25.4823 5.38933 25.5072L1.58263 26.2038C1.3587 26.2536 1.20942 26.4526 1.25918 26.6765Z" fill="#032146"/>
<path d="M20.3424 27C20.3424 27 20.2926 27 20.2677 27L16.461 26.3033C15.8888 26.2038 15.4658 25.7062 15.4658 25.1091V24.1636C15.4658 23.9397 15.64 23.7655 15.8639 23.7655C16.0878 23.7655 16.262 23.9397 16.262 24.1636V25.1091C16.262 25.3081 16.4113 25.4823 16.5854 25.5072L20.3921 26.2038C20.6161 26.2536 20.7653 26.4526 20.7156 26.6766C20.6907 26.8756 20.5165 27 20.3175 27H20.3424Z" fill="#032146"/>
<path fill-rule="evenodd" clip-rule="evenodd" d="M20.2586 27.1L16.4438 26.4019C16.4437 26.4018 16.444 26.4019 16.4438 26.4019C15.8236 26.2938 15.3657 25.7544 15.3657 25.1091V24.1636C15.3657 23.8845 15.5847 23.6655 15.8638 23.6655C16.143 23.6655 16.3619 23.8845 16.3619 24.1636V25.1091C16.3619 25.2627 16.4787 25.3909 16.5995 25.4082L16.6034 25.4087L20.4137 26.1061C20.6814 26.1656 20.8746 26.4094 20.8141 26.6937C20.7808 26.941 20.5701 27.0893 20.3423 27.0994L20.2586 27.1ZM20.3174 27C20.3257 27 20.334 26.9998 20.3423 26.9993C20.5308 26.9894 20.6916 26.8672 20.7155 26.6765C20.7652 26.4526 20.616 26.2536 20.392 26.2038L16.5853 25.5072C16.4112 25.4823 16.2619 25.3081 16.2619 25.1091V24.1636C16.2619 23.9397 16.0877 23.7655 15.8638 23.7655C15.6399 23.7655 15.4657 23.9397 15.4657 24.1636V25.1091C15.4657 25.7062 15.8887 26.2038 16.4609 26.3033L20.2676 27H20.3174Z" fill="#032146"/>
<path d="M13.0279 21.7254C12.6298 21.7254 11.4106 21.7254 11.4106 20.5062C11.4106 19.2871 12.6298 19.2871 13.0279 19.2871C13.6748 19.2871 14.6451 19.7847 14.6451 20.5062C14.6451 21.2277 13.6748 21.7254 13.0279 21.7254ZM13.0279 20.0833C12.3063 20.0833 12.2068 20.2077 12.2068 20.4813C12.2068 20.755 12.2815 20.8794 13.0279 20.8794C13.7743 20.8794 13.824 20.6057 13.8489 20.4813C13.8489 20.3569 13.3762 20.0833 13.0279 20.0833Z" fill="#032146"/>
<path fill-rule="evenodd" clip-rule="evenodd" d="M11.5254 21.2685C11.3914 21.0778 11.3105 20.8284 11.3105 20.5062C11.3105 20.184 11.3914 19.9346 11.5254 19.7439C11.6591 19.5538 11.8405 19.4292 12.0304 19.3476C12.4039 19.1871 12.8249 19.1871 13.024 19.1871L13.0278 19.1871C13.373 19.1871 13.7962 19.3185 14.1343 19.5427C14.4709 19.7661 14.745 20.0975 14.745 20.5062C14.745 20.915 14.4709 21.2463 14.1343 21.4697C13.7962 21.6939 13.373 21.8254 13.0278 21.8254H13.024C12.8249 21.8254 12.4039 21.8254 12.0304 21.6648C11.8405 21.5832 11.6591 21.4586 11.5254 21.2685ZM12.326 20.3417C12.3129 20.3737 12.3067 20.4172 12.3067 20.4813C12.3067 20.5474 12.3116 20.5915 12.3238 20.6241C12.3342 20.6522 12.3513 20.6754 12.3877 20.6966C12.4277 20.72 12.4925 20.7416 12.5987 20.7567C12.704 20.7717 12.8433 20.7794 13.0278 20.7794C13.3919 20.7794 13.5645 20.7121 13.6478 20.6478C13.7154 20.5957 13.7343 20.5384 13.7458 20.4857C13.7384 20.4753 13.7251 20.4605 13.704 20.4422C13.6618 20.4056 13.599 20.3639 13.5228 20.3244C13.3689 20.2445 13.1799 20.1832 13.0278 20.1832C12.8497 20.1832 12.7135 20.191 12.6093 20.2059C12.5045 20.221 12.4382 20.2427 12.396 20.2666C12.3569 20.2889 12.3377 20.3133 12.326 20.3417ZM13.8488 20.4813L13.8483 20.4838C13.8233 20.6093 13.7693 20.8794 13.0278 20.8794C12.2814 20.8794 12.2067 20.755 12.2067 20.4813C12.2067 20.2076 12.3062 20.0832 13.0278 20.0832C13.3761 20.0832 13.8488 20.3569 13.8488 20.4813ZM11.4105 20.5062C11.4105 21.7254 12.6297 21.7254 13.0278 21.7254C13.6747 21.7254 14.645 21.2277 14.645 20.5062C14.645 19.7847 13.6747 19.2871 13.0278 19.2871C12.6297 19.2871 11.4105 19.2871 11.4105 20.5062Z" fill="#032146"/>
<path d="M10.9874 24.9598C10.7635 24.9598 10.5894 24.7856 10.5894 24.5617C10.5894 24.3378 10.7635 24.1636 10.9874 24.1636C12.2812 24.1636 13.9731 23.2431 15.3415 21.8498C15.4908 21.6756 15.7645 21.6756 15.9138 21.8498C16.0879 21.999 16.0879 22.2727 15.9138 22.422C14.3961 24.0143 12.5051 24.9847 10.9874 24.9847V24.9598Z" fill="#032146"/>
<path fill-rule="evenodd" clip-rule="evenodd" d="M11.0873 24.9833C11.0538 24.9842 11.0205 24.9847 10.9873 24.9847V24.9598C10.7634 24.9598 10.5893 24.7856 10.5893 24.5617C10.5893 24.3378 10.7634 24.1636 10.9873 24.1636C12.2811 24.1636 13.973 23.2431 15.3414 21.8498C15.4907 21.6756 15.7644 21.6756 15.9137 21.8498C16.0878 21.999 16.0878 22.2727 15.9137 22.422C14.4291 23.9796 12.5875 24.942 11.0873 24.9833ZM15.9828 22.4945C14.4547 24.0962 12.541 25.0847 10.9873 25.0847H10.8873V25.0502C10.6576 25.005 10.4893 24.8065 10.4893 24.5617C10.4893 24.2826 10.7082 24.0636 10.9873 24.0636C11.6122 24.0636 12.3421 23.8407 13.0892 23.441C13.8344 23.0424 14.5906 22.4711 15.2678 21.782C15.4558 21.5659 15.7951 21.5649 15.9845 21.7789C16.1981 21.968 16.1975 22.3062 15.9828 22.4945Z" fill="#032146"/>
<path d="M19.9444 11.5742C19.9444 11.5742 19.9195 11.5742 19.8947 11.5742C19.6707 11.5493 19.5214 11.3502 19.5463 11.1263C19.5463 11.0766 20.0191 7.02105 17.6305 4.30909C16.1626 2.66699 13.9482 1.82105 11.0124 1.82105C8.07647 1.82105 5.86212 2.66699 4.39418 4.30909C2.00566 7.02105 2.45351 11.0766 2.47839 11.1263C2.50327 11.3502 2.34767 11.4894 2.12375 11.5143C1.89982 11.5392 1.70709 11.4498 1.68221 11.2258C1.68221 11.0517 1.15973 6.77225 3.79705 3.7866C5.38939 1.92057 7.82767 1 10.9875 1C14.1473 1 16.5856 1.92057 18.2028 3.76172C20.8401 6.74737 20.3425 11.0268 20.3176 11.201C20.2927 11.4 20.1186 11.5493 19.9195 11.5493L19.9444 11.5742Z" fill="#032146"/>
<path fill-rule="evenodd" clip-rule="evenodd" d="M20.1858 11.6742H19.8834C19.6011 11.6428 19.4163 11.3905 19.4468 11.1153C19.4473 11.1098 19.448 11.1025 19.4488 11.0934C19.4827 10.6988 19.8063 6.93117 17.5557 4.37547C16.1121 2.76082 13.9288 1.92105 11.0123 1.92105C8.09571 1.92105 5.91243 2.76082 4.46888 4.37545C3.29286 5.71088 2.81234 7.38076 2.63026 8.7294C2.53932 9.40298 2.52315 9.99413 2.53123 10.4196C2.53527 10.6323 2.54537 10.8033 2.55516 10.9221C2.56006 10.9816 2.56485 11.0277 2.56872 11.0592C2.57056 11.0742 2.57213 11.0853 2.57332 11.0928L2.57571 11.0975L2.57768 11.1153C2.59316 11.2546 2.55217 11.3756 2.46612 11.4645C2.3822 11.5512 2.2634 11.5994 2.13469 11.6137C2.00811 11.6277 1.88035 11.6108 1.77706 11.5493C1.67006 11.4855 1.59852 11.379 1.58273 11.2369L1.5815 11.2258C1.5815 11.2256 1.5821 11.225 1.58208 11.2243L1.58188 11.2198L1.58093 11.2045L1.57718 11.154L1.57698 11.1513C1.57381 11.1099 1.56954 11.054 1.56503 10.9852C1.55581 10.8444 1.54562 10.6496 1.5417 10.4115C1.53386 9.93534 1.5511 9.28558 1.65145 8.54705C1.85196 7.07142 2.38537 5.23391 3.72144 3.72103C5.33852 1.82647 7.80882 0.899994 10.9874 0.899994C14.1665 0.899994 16.6362 1.82674 18.2778 3.69572C19.614 5.20854 20.1538 7.0461 20.3575 8.52197C20.5606 9.99375 20.4307 11.1145 20.4166 11.2142C20.3939 11.3934 20.2756 11.5393 20.1191 11.6075L20.1858 11.6742ZM20.3175 11.201C20.3424 11.0268 20.84 6.74736 18.2027 3.76172C16.5855 1.92057 14.1472 0.999994 10.9874 0.999994C7.82757 0.999994 5.38929 1.92057 3.79695 3.7866C1.32793 6.58171 1.6283 10.5108 1.67669 11.1437C1.67999 11.1869 1.68212 11.2147 1.68212 11.2258C1.707 11.4498 1.89972 11.5392 2.12365 11.5143C2.34757 11.4894 2.50317 11.3502 2.47829 11.1263C2.45341 11.0765 2.00556 7.02105 4.39408 4.30908C5.86202 2.66698 8.07638 1.82105 11.0123 1.82105C13.9481 1.82105 16.1625 2.66698 17.6304 4.30908C19.9244 6.91371 19.5792 10.7576 19.5482 11.1019C19.547 11.1161 19.5462 11.1243 19.5462 11.1263C19.5265 11.3042 19.6166 11.4663 19.7667 11.538C19.8056 11.5566 19.8485 11.569 19.8946 11.5742H19.9443L19.9194 11.5493C19.9278 11.5493 19.9361 11.549 19.9443 11.5485C19.9539 11.5479 19.9634 11.547 19.9728 11.5457C19.9964 11.5425 20.0194 11.5372 20.0416 11.53C20.1857 11.4837 20.2979 11.3577 20.3175 11.201ZM2.57459 11.1001C2.57504 11.1021 2.57513 11.1022 2.57459 11.1001V11.1001Z" fill="#032146"/>
<path d="M2.95128 18.7895C2.25463 18.7895 1.6575 18.466 1.20965 17.8191C0.786682 17.222 0.488118 16.3512 0.264194 15.1818C-0.208533 12.5196 0.363716 11.0268 1.95606 10.7531C2.45367 10.6785 2.85175 10.7531 3.1752 10.977C3.82209 11.4249 3.94649 12.3703 4.12065 13.5646C4.17042 13.8632 4.22018 14.1617 4.26994 14.4852C4.26994 14.4852 4.26994 14.51 4.26994 14.5349C4.3197 14.8335 4.39434 15.1321 4.4441 15.4057C4.6929 16.5751 4.86707 17.4957 4.4441 18.1675C4.22018 18.4909 3.87185 18.6899 3.37424 18.7895C3.22496 18.8143 3.10056 18.8392 2.95128 18.8392V18.7895ZM2.08046 11.5244C1.68238 11.599 0.488118 11.7981 1.03549 15.0076C1.20965 16.0526 1.48333 16.8239 1.83166 17.3215C2.20486 17.844 2.62783 18.0431 3.20008 17.9187C3.59817 17.844 3.69769 17.6947 3.72257 17.645C3.97137 17.2718 3.79721 16.4258 3.59817 15.5053C3.54841 15.2067 3.47376 14.8832 3.424 14.5598C3.424 14.5598 3.424 14.5349 3.424 14.51C3.37424 14.2115 3.32448 13.888 3.27472 13.6143C3.15032 12.6938 3.02592 11.8478 2.65271 11.5742C2.60295 11.5493 2.52831 11.4746 2.30439 11.4746C2.23437 11.5034 2.15689 11.5244 2.08046 11.5244Z" fill="#032146"/>
<path fill-rule="evenodd" clip-rule="evenodd" d="M3.05119 18.8356C3.01877 18.8379 2.98564 18.8392 2.95119 18.8392V18.7895C2.25453 18.7895 1.6574 18.466 1.20956 17.8191C0.786591 17.222 0.488027 16.3512 0.264103 15.1818C-0.208624 12.5196 0.363625 11.0268 1.95597 10.7531C2.45358 10.6785 2.85166 10.7531 3.17511 10.977C3.8076 11.4149 3.94061 12.3285 4.109 13.4852C4.11284 13.5116 4.11669 13.538 4.12056 13.5646C4.17032 13.8632 4.22008 14.1617 4.26985 14.4852V14.5349C4.2977 14.702 4.33334 14.8691 4.36805 15.0319C4.39536 15.1599 4.4221 15.2852 4.44401 15.4057C4.69281 16.5751 4.86698 17.4957 4.44401 18.1675C4.22009 18.4909 3.87176 18.69 3.37415 18.7895C3.35519 18.7926 3.33664 18.7958 3.31838 18.7989C3.22605 18.8146 3.14138 18.829 3.05119 18.8356ZM4.54213 15.3864C4.6661 15.9691 4.77361 16.4991 4.79581 16.9685C4.81809 17.4396 4.75521 17.8609 4.52863 18.2207L4.52631 18.2244C4.28333 18.5754 3.90826 18.7846 3.39376 18.8875L3.3906 18.8882C3.37214 18.8912 3.35385 18.8943 3.33568 18.8974C3.21061 18.9187 3.09054 18.9392 2.95119 18.9392H2.85119V18.8873C2.1615 18.8574 1.57088 18.5165 1.12765 17.8765C0.692401 17.2618 0.39063 16.3743 0.165888 15.2006L0.165635 15.1993C-0.0719499 13.8613 -0.0503391 12.8012 0.242229 12.0361C0.538095 11.2623 1.10874 10.7973 1.93903 10.6546L1.94113 10.6542C2.45704 10.5768 2.88258 10.6529 3.23203 10.8948C3.58186 11.137 3.78396 11.51 3.92082 11.9619C4.05084 12.3913 4.12566 12.9054 4.20743 13.4672C4.21139 13.4944 4.21537 13.5217 4.21937 13.5492C4.26906 13.8473 4.31887 14.1462 4.36868 14.47L4.36985 14.4775V14.5256C4.3941 14.6698 4.42422 14.8154 4.45474 14.9589C4.45844 14.9762 4.46214 14.9936 4.46585 15.011C4.49301 15.1383 4.51998 15.2647 4.54213 15.3864ZM1.13404 14.9912C1.30706 16.0294 1.5773 16.7837 1.91321 17.2638C2.09319 17.5157 2.27936 17.6813 2.48175 17.7713C2.6828 17.8607 2.90937 17.8795 3.17875 17.8209L3.18155 17.8203C3.55642 17.75 3.62525 17.6158 3.63303 17.6003L3.63862 17.5891C3.68854 17.5142 3.72194 17.4095 3.73656 17.2721C3.7511 17.1353 3.74701 16.9733 3.72872 16.7903C3.69206 16.4238 3.60012 15.9879 3.50033 15.5264L3.49932 15.5217C3.47741 15.3902 3.45071 15.2538 3.42302 15.1129C3.41965 15.0957 3.41626 15.0784 3.41286 15.0611C3.38176 14.9025 3.3503 14.739 3.32508 14.575L3.32391 14.5675V14.5183C3.30762 14.4204 3.2914 14.3204 3.27522 14.2206C3.24215 14.0166 3.20925 13.8138 3.17624 13.6322L3.17543 13.6278C3.11306 13.1662 3.05166 12.7307 2.96011 12.3767C2.86815 12.0211 2.75202 11.7749 2.59894 11.6589C2.58812 11.6529 2.57634 11.6456 2.56708 11.6399C2.5633 11.6376 2.55994 11.6355 2.55724 11.6339C2.54224 11.6249 2.52591 11.6159 2.50569 11.6075C2.46857 11.5923 2.41224 11.5767 2.32295 11.5748C2.25288 11.6018 2.17282 11.6228 2.09014 11.6243C1.89341 11.6611 1.5411 11.7275 1.28878 12.1424C1.02787 12.5714 0.861649 13.394 1.13404 14.9912ZM2.08037 11.5244C2.07747 11.5249 2.07452 11.5255 2.07153 11.5261C1.66495 11.6021 0.492021 11.8215 1.0354 15.0077C1.20956 16.0526 1.48324 16.8239 1.83157 17.3215C2.20477 17.844 2.62774 18.0431 3.19999 17.9187C3.59808 17.844 3.6976 17.6947 3.72248 17.645C3.97128 17.2718 3.79712 16.4258 3.59808 15.5053C3.57591 15.3722 3.5488 15.2343 3.52115 15.0936C3.48674 14.9185 3.4515 14.7392 3.42391 14.5598V14.51C3.40733 14.4105 3.39074 14.3082 3.37415 14.206C3.34098 14.0014 3.3078 13.7968 3.27463 13.6144C3.15023 12.6938 3.02583 11.8478 2.65262 11.5742C2.64412 11.5699 2.63489 11.5642 2.62432 11.5577C2.573 11.526 2.48997 11.4746 2.30429 11.4746C2.23428 11.5034 2.1568 11.5244 2.08037 11.5244Z" fill="#032146"/>
<path d="M19.0487 18.7895C18.9243 18.7895 18.7751 18.7895 18.6258 18.7397C18.1282 18.6651 17.7799 18.4411 17.5559 18.1177C17.1081 17.4708 17.3071 16.5502 17.5559 15.356C17.6057 15.0823 17.6803 14.7837 17.7301 14.4852C17.7301 14.4852 17.7301 14.4603 17.7301 14.4354C17.7799 14.112 17.8296 13.8134 17.8794 13.5148C18.0535 12.3206 18.1779 11.4 18.8248 10.9273C19.1483 10.7033 19.5464 10.6287 20.044 10.7033C21.6363 10.977 22.2086 12.4699 21.7358 15.1321C21.5368 16.3014 21.2133 17.1722 20.7904 17.7694C20.3425 18.4163 19.7454 18.7397 19.0487 18.7397V18.7895ZM18.5511 14.5598C18.5511 14.5598 18.5511 14.5847 18.5511 14.6096C18.5014 14.933 18.4267 15.2565 18.377 15.555C18.1779 16.4507 18.0038 17.3215 18.2526 17.6947C18.2775 17.7445 18.4019 17.8938 18.7751 17.9684C19.3473 18.0679 19.7703 17.8689 20.1435 17.3713C20.4918 16.8737 20.7655 16.1024 20.9397 15.0574C21.5119 11.8478 20.2928 11.6488 19.8947 11.5742C19.4966 11.4995 19.3473 11.6239 19.2976 11.6488C18.9492 11.8976 18.8248 12.7684 18.6755 13.689C18.6258 13.9876 18.6009 14.2861 18.5263 14.5847L18.5511 14.5598Z" fill="#032146"/>
<path fill-rule="evenodd" clip-rule="evenodd" d="M19.1486 18.8895H19.0441C18.9238 18.8895 18.7643 18.8895 18.6025 18.8373C18.0848 18.7577 17.7135 18.5211 17.4736 18.1746C17.2319 17.8255 17.1693 17.4079 17.1947 16.9367C17.2194 16.4799 17.328 15.9592 17.4479 15.3839C17.4511 15.3683 17.4544 15.3526 17.4577 15.3368C17.4798 15.2151 17.5068 15.0886 17.534 14.9612C17.5377 14.9439 17.5414 14.9265 17.5451 14.9091C17.5756 14.7657 17.6057 14.621 17.63 14.4769V14.4278L17.6312 14.4202C17.681 14.0964 17.7308 13.7976 17.7805 13.4994C17.7835 13.4785 17.7865 13.4578 17.7896 13.437C17.8725 12.8679 17.9475 12.3528 18.0791 11.9213C18.2161 11.472 18.418 11.1007 18.7657 10.8465L18.7678 10.845C19.1172 10.6031 19.5428 10.5271 20.0587 10.6045L20.0608 10.6048C20.8911 10.7475 21.4617 11.2125 21.7576 11.9863C22.0501 12.7514 22.0718 13.8114 21.8343 15.1492C21.6339 16.3261 21.3069 17.2129 20.8722 17.8267C20.429 18.4667 19.8383 18.8077 19.1486 18.8376V18.8895ZM20.7903 17.7694C21.2132 17.1723 21.5367 16.3014 21.7357 15.1321C22.2085 12.4699 21.6362 10.977 20.0439 10.7034C19.5463 10.6287 19.1482 10.7034 18.8247 10.9273C18.1885 11.3922 18.0577 12.2902 17.8879 13.4558C17.885 13.4754 17.8822 13.4951 17.8793 13.5148C17.8295 13.8134 17.7798 14.112 17.73 14.4354V14.4852C17.7021 14.6523 17.6665 14.8194 17.6318 14.9821C17.6045 15.1101 17.5777 15.2355 17.5558 15.356C17.5528 15.3705 17.5498 15.3851 17.5468 15.3995C17.3023 16.5726 17.1134 17.4787 17.5558 18.1177C17.7798 18.4412 18.1281 18.6651 18.6257 18.7397C18.7368 18.7767 18.8478 18.7862 18.9486 18.7886C18.9833 18.7895 19.0168 18.7895 19.0486 18.7895L19.0486 18.7397C19.7453 18.7397 20.3424 18.4163 20.7903 17.7694ZM18.651 14.4873V14.6172L18.6499 14.6248C18.6247 14.7887 18.5932 14.9522 18.5621 15.1109C18.5587 15.1282 18.5553 15.1454 18.5519 15.1626C18.5242 15.3035 18.4974 15.44 18.4755 15.5715L18.4746 15.5768C18.375 16.0253 18.2829 16.4612 18.2462 16.8307C18.2279 17.0152 18.2238 17.1796 18.2384 17.3185C18.2531 17.4581 18.2859 17.5646 18.3357 17.6393L18.3426 17.6497C18.3492 17.6628 18.44 17.7992 18.7933 17.8701C19.0629 17.9168 19.2907 17.8924 19.4932 17.8024C19.6967 17.712 19.8829 17.5516 20.0624 17.3126C20.398 16.8325 20.668 16.0784 20.8409 15.041L20.8411 15.0399C21.1258 13.4429 20.9593 12.6212 20.6958 12.1926C20.4409 11.7781 20.0832 11.7112 19.8856 11.6742C19.8824 11.6736 19.8793 11.673 19.8762 11.6725C19.6896 11.6375 19.568 11.6503 19.4912 11.6708C19.4323 11.6865 19.401 11.7048 19.3728 11.7212C19.3653 11.7257 19.3579 11.73 19.3503 11.734C19.2845 11.783 19.2223 11.8661 19.1644 11.9864C19.1055 12.1091 19.0545 12.263 19.0087 12.4418C18.9258 12.765 18.8627 13.1564 18.7961 13.5695C18.7888 13.6144 18.7815 13.6596 18.7742 13.705C18.7585 13.7989 18.745 13.8959 18.7313 13.9941C18.7088 14.1563 18.6856 14.3226 18.651 14.4873ZM18.566 14.4035C18.5569 14.4505 18.547 14.4976 18.5359 14.5446C18.5347 14.5497 18.5335 14.5548 18.5323 14.5598C18.5303 14.5681 18.5282 14.5764 18.5262 14.5847L18.551 14.5598V14.6096C18.5454 14.646 18.5395 14.6825 18.5333 14.7189C18.5092 14.8617 18.4812 15.0039 18.4538 15.1434C18.4262 15.2841 18.399 15.422 18.3769 15.555C18.1778 16.4507 18.0037 17.3215 18.2525 17.6947C18.2774 17.7445 18.4018 17.8938 18.775 17.9684C19.3472 18.0679 19.7702 17.8689 20.1434 17.3713C20.4917 16.8737 20.7654 16.1024 20.9396 15.0574C21.5069 11.8755 20.3135 11.6525 19.905 11.5761C19.9015 11.5755 19.898 11.5748 19.8946 11.5742C19.5388 11.5075 19.3817 11.5997 19.3169 11.6379C19.3092 11.6424 19.3027 11.6462 19.2975 11.6488C18.9663 11.8853 18.8376 12.6839 18.6974 13.5529C18.6901 13.5981 18.6828 13.6435 18.6754 13.689C18.6589 13.7885 18.645 13.888 18.6312 13.9876C18.612 14.1262 18.5927 14.2648 18.566 14.4035Z" fill="#032146"/>
</svg>
