<?xml version="1.0" encoding="UTF-8"?>
<svg id="Layer_2" xmlns="http://www.w3.org/2000/svg" xmlns:xlink="http://www.w3.org/1999/xlink" viewBox="0 0 246 71">
  <defs>
    <style>
      .cls-1 {
        fill: url(#linear-gradient);
      }

      .cls-2 {
        isolation: isolate;
      }

      .cls-3 {
        fill: none;
        stroke: #707071;
      }
    </style>
    <linearGradient id="linear-gradient" x1="-705.35" y1="404.79" x2="-705.35" y2="403.79" gradientTransform="translate(173639.27 28739.85) scale(246 -71)" gradientUnits="userSpaceOnUse">
      <stop offset="0" stop-color="#f7eba1"/>
      <stop offset=".49" stop-color="#fff3a6"/>
      <stop offset="1" stop-color="#c29543"/>
    </linearGradient>
  </defs>
  <g id="Layer_1-2" data-name="Layer_1">
    <g id="Group_26687">
      <g id="Rectangle_8557-2">
        <path class="cls-1" d="M35.5,0h175c19.61,0,35.5,15.89,35.5,35.5h0c0,19.61-15.89,35.5-35.5,35.5H35.5C15.89,71,0,55.11,0,35.5h0C0,15.89,15.89,0,35.5,0Z"/>
        <path class="cls-3" d="M35.5.5h175c19.33,0,35,15.67,35,35h0c0,19.33-15.67,35-35,35H35.5C16.17,70.5.5,54.83.5,35.5h0C.5,16.17,16.17.5,35.5.5Z"/>
      </g>
      <g id="Group_26599">
        <g id="Group_26597">
          <g id="Group_26598">
            <path id="Path_18824" d="M110.38,49.73l-3.52-13.69h-3.25l-3.74,13.61-3.43-13.61h-3.22l4.75,17.11h3.62l3.5-13.16,3.46,13.16h3.55l4.64-17.11h-3.11l-3.26,13.69Z"/>
            <path id="Path_18825" d="M119.56,35.63c-.45,0-.89.16-1.22.48-.33.3-.51.73-.5,1.18,0,.44.17.86.5,1.16.69.62,1.74.62,2.44,0,.33-.29.52-.71.51-1.16,0-.44-.18-.87-.5-1.17-.32-.32-.77-.5-1.23-.49"/>
            <rect id="Rectangle_8550" x="118.08" y="40.82" width="2.88" height="12.33"/>
            <path id="Path_18826" d="M130.8,40.61c-1.6-.15-3.16.6-4.04,1.95h-.05v-1.74h-2.81v12.33h2.81v-6.95c-.09-1.71,1.22-3.17,2.93-3.26,0,0,.01,0,.02,0,1.81,0,2.37,1.55,2.37,3.35v6.87h2.89v-7.52c.12-1.37-.25-2.73-1.05-3.85-.79-.84-1.92-1.27-3.07-1.17"/>
            <path id="Path_18827" d="M146.14,42.1h-.05s-.73-1.5-3.44-1.5c-1.59-.09-3.13.57-4.16,1.79-1.09,1.42-1.64,3.18-1.55,4.97,0,3.12,1.39,6.05,5.16,6.05,1.56.12,3.07-.58,3.99-1.85h.05v1.59h2.92v-18.18h-2.92v7.13ZM146.16,47.4c-.02,1.7-.98,3.76-3.14,3.76-2.2-.03-3.05-1.87-3.05-3.89,0-2.32.9-4.33,3.21-4.33,1.66,0,2.99,1.36,2.98,3.02,0,.06,0,.11,0,.17v1.28Z"/>
            <path id="Path_18828" d="M157.69,40.55c-4.05,0-6.61,2.27-6.61,6.65,0,3.82,2.14,6.32,6.3,6.32,3.83,0,6.39-2.31,6.39-6.58,0-4.01-2.37-6.38-6.08-6.38M157.51,51.1c-2.26,0-3.41-1.55-3.41-4,0-2.25.96-4.08,3.43-4.08s3.25,2.11,3.25,4.01h0c-.02,2.22-.85,4.07-3.26,4.07"/>
            <path id="Path_18829" d="M177.69,50.38l-2.44-9.52h-2.82l-2.74,9.55-2.34-9.55h-3.01l3.59,12.29h3.08l2.6-8.92,2.43,8.92h3.17l3.53-12.29h-2.76l-2.28,9.52Z"/>
            <path id="Path_18830" d="M191.77,49.71c.06-.78-.19-1.54-.69-2.14-.7-.7-1.56-1.24-2.5-1.55-.8-.33-2.15-.86-2.14-1.96.01-.85.8-1.23,1.83-1.23,1.01.07,1.99.41,2.83.97v-2.77c-.88-.38-1.84-.54-2.8-.48-2.96,0-4.8,1.57-4.8,3.78,0,.52.11,1.03.32,1.5.2.44.5.84.88,1.14.56.42,1.17.75,1.81,1.01.52.2,1.03.44,1.52.72.52.21.85.72.83,1.27,0,.81-.61,1.23-1.95,1.23-1.23-.04-2.41-.47-3.37-1.24v2.92c1.04.38,2.14.59,3.24.63,2.5,0,4.99-1.07,4.99-3.82h0Z"/>
            <rect id="Rectangle_8551" x="54.73" y="20.62" width="15.59" height="15.59"/>
            <rect id="Rectangle_8552" x="72.03" y="20.62" width="15.59" height="15.59"/>
            <rect id="Rectangle_8553" x="54.73" y="37.92" width="15.59" height="15.59"/>
            <rect id="Rectangle_8554" x="72.03" y="37.92" width="15.59" height="15.59"/>
          </g>
        </g>
        <g id="Download_for" class="cls-2">
          <g class="cls-2">
            <path d="M94.41,18.83h3.81c2.75,0,4.63,1.66,4.63,4.2s-1.88,4.2-4.63,4.2h-3.81v-8.4ZM98.13,25.63c1.67,0,2.76-1,2.76-2.6s-1.09-2.6-2.76-2.6h-1.78v5.21h1.78Z"/>
          </g>
          <g class="cls-2">
            <path d="M103.36,24c0-1.94,1.5-3.32,3.55-3.32s3.54,1.38,3.54,3.32-1.49,3.32-3.54,3.32-3.55-1.38-3.55-3.32ZM108.55,24c0-1.12-.71-1.79-1.64-1.79s-1.66.67-1.66,1.79.72,1.79,1.66,1.79,1.64-.67,1.64-1.79Z"/>
          </g>
          <g class="cls-2">
            <path d="M121.52,20.77l-2.34,6.45h-1.8l-1.45-4.01-1.5,4.01h-1.8l-2.33-6.45h1.76l1.52,4.37,1.58-4.37h1.58l1.54,4.37,1.57-4.37h1.65Z"/>
          </g>
          <g class="cls-2">
            <path d="M128.65,23.53v3.69h-1.87v-3.41c0-1.04-.48-1.52-1.31-1.52-.9,0-1.55.55-1.55,1.74v3.19h-1.87v-6.45h1.79v.75c.5-.55,1.26-.85,2.13-.85,1.52,0,2.67.89,2.67,2.85Z"/>
          </g>
          <g class="cls-2">
            <path d="M129.99,18.32h1.87v8.9h-1.87v-8.9Z"/>
          </g>
          <g class="cls-2">
            <path d="M132.77,24c0-1.94,1.5-3.32,3.55-3.32s3.54,1.38,3.54,3.32-1.49,3.32-3.54,3.32-3.55-1.38-3.55-3.32ZM137.97,24c0-1.12-.71-1.79-1.64-1.79s-1.65.67-1.65,1.79.72,1.79,1.65,1.79,1.64-.67,1.64-1.79Z"/>
          </g>
          <g class="cls-2">
            <path d="M146.35,23.54v3.68h-1.75v-.8c-.35.59-1.02.9-1.97.9-1.51,0-2.41-.84-2.41-1.96s.8-1.93,2.77-1.93h1.49c0-.8-.48-1.27-1.49-1.27-.68,0-1.39.23-1.86.6l-.67-1.31c.71-.5,1.75-.78,2.78-.78,1.97,0,3.11.91,3.11,2.87ZM144.48,25.18v-.66h-1.28c-.88,0-1.15.32-1.15.75,0,.47.4.78,1.06.78.62,0,1.16-.29,1.38-.88Z"/>
          </g>
          <g class="cls-2">
            <path d="M154.35,18.32v8.9h-1.79v-.74c-.47.56-1.15.84-2.01.84-1.82,0-3.23-1.29-3.23-3.32s1.4-3.32,3.23-3.32c.79,0,1.46.25,1.93.78v-3.13h1.87ZM152.51,24c0-1.12-.72-1.79-1.64-1.79s-1.66.67-1.66,1.79.72,1.79,1.66,1.79,1.64-.67,1.64-1.79Z"/>
          </g>
          <g class="cls-2">
            <path d="M160.83,20.92h1.65v1.44h-1.61v4.87h-1.87v-4.87h-1v-1.44h1v-.29c0-1.45.89-2.4,2.49-2.4.53,0,1.08.11,1.43.35l-.49,1.36c-.2-.14-.47-.23-.75-.23-.55,0-.85.3-.85.94v.28Z"/>
          </g>
          <g class="cls-2">
            <path d="M162.5,24c0-1.94,1.5-3.32,3.55-3.32s3.54,1.38,3.54,3.32-1.49,3.32-3.54,3.32-3.55-1.38-3.55-3.32ZM167.69,24c0-1.12-.71-1.79-1.64-1.79s-1.65.67-1.65,1.79.72,1.79,1.65,1.79,1.64-.67,1.64-1.79Z"/>
          </g>
          <g class="cls-2">
            <path d="M174.49,20.67v1.73c-.16-.01-.28-.02-.42-.02-1.03,0-1.72.56-1.72,1.8v3.05h-1.87v-6.45h1.79v.85c.46-.62,1.22-.95,2.22-.95Z"/>
          </g>
        </g>
      </g>
    </g>
  </g>
</svg>