<?xml version="1.0" encoding="UTF-8"?>
<svg id="Layer_2" xmlns="http://www.w3.org/2000/svg" xmlns:xlink="http://www.w3.org/1999/xlink" viewBox="0 0 246 71">
  <defs>
    <style>
      .cls-1 {
        fill: url(#linear-gradient);
      }

      .cls-2 {
        isolation: isolate;
      }

      .cls-3 {
        fill: none;
        stroke: #707071;
      }
    </style>
    <linearGradient id="linear-gradient" x1="-442.53" y1="405.25" x2="-442.53" y2="404.25" gradientTransform="translate(108986.5 28773.06) scale(246 -71)" gradientUnits="userSpaceOnUse">
      <stop offset="0" stop-color="#f7eba1"/>
      <stop offset=".49" stop-color="#fff3a6"/>
      <stop offset="1" stop-color="#c29543"/>
    </linearGradient>
  </defs>
  <g id="Layer_1-2" data-name="Layer_1">
    <g id="Group_26688">
      <g id="Rectangle_8556-2">
        <path class="cls-1" d="M35.5,0h175c19.61,0,35.5,15.89,35.5,35.5h0c0,19.61-15.89,35.5-35.5,35.5H35.5C15.89,71,0,55.11,0,35.5h0C0,15.89,15.89,0,35.5,0Z"/>
        <path class="cls-3" d="M35.5.5h175c19.33,0,35,15.67,35,35h0c0,19.33-15.67,35-35,35H35.5C16.17,70.5.5,54.83.5,35.5h0C.5,16.17,16.17.5,35.5.5Z"/>
      </g>
      <g id="Group_26517">
        <g id="Download_for" class="cls-2">
          <g class="cls-2">
            <path d="M96.48,16.88h3.81c2.75,0,4.63,1.66,4.63,4.2s-1.88,4.2-4.63,4.2h-3.81v-8.4ZM100.2,23.68c1.67,0,2.76-1,2.76-2.6s-1.09-2.6-2.76-2.6h-1.77v5.21h1.77Z"/>
          </g>
          <g class="cls-2">
            <path d="M105.43,22.05c0-1.94,1.5-3.32,3.55-3.32s3.54,1.38,3.54,3.32-1.49,3.32-3.54,3.32-3.55-1.38-3.55-3.32ZM110.62,22.05c0-1.12-.71-1.79-1.64-1.79s-1.65.67-1.65,1.79.72,1.79,1.65,1.79,1.64-.67,1.64-1.79Z"/>
          </g>
          <g class="cls-2">
            <path d="M123.59,18.82l-2.34,6.45h-1.8l-1.45-4.01-1.5,4.01h-1.8l-2.33-6.45h1.76l1.52,4.37,1.58-4.37h1.58l1.54,4.37,1.57-4.37h1.66Z"/>
            <path d="M130.72,21.58v3.69h-1.87v-3.41c0-1.04-.48-1.52-1.31-1.52-.9,0-1.55.55-1.55,1.74v3.19h-1.87v-6.45h1.79v.75c.5-.55,1.26-.85,2.13-.85,1.52,0,2.67.89,2.67,2.85Z"/>
            <path d="M132.07,16.38h1.87v8.9h-1.87v-8.9Z"/>
          </g>
          <g class="cls-2">
            <path d="M134.86,22.05c0-1.94,1.5-3.32,3.55-3.32s3.54,1.38,3.54,3.32-1.49,3.32-3.54,3.32-3.55-1.38-3.55-3.32ZM140.05,22.05c0-1.12-.71-1.79-1.64-1.79s-1.66.67-1.66,1.79.72,1.79,1.66,1.79,1.64-.67,1.64-1.79Z"/>
          </g>
          <g class="cls-2">
            <path d="M148.44,21.59v3.68h-1.75v-.8c-.35.59-1.02.9-1.97.9-1.51,0-2.41-.84-2.41-1.96s.8-1.93,2.77-1.93h1.49c0-.8-.48-1.27-1.49-1.27-.68,0-1.39.23-1.86.6l-.67-1.31c.71-.5,1.75-.78,2.78-.78,1.97,0,3.11.91,3.11,2.87ZM146.56,23.24v-.66h-1.28c-.88,0-1.15.32-1.15.75,0,.47.4.78,1.06.78.62,0,1.16-.29,1.38-.88Z"/>
          </g>
          <g class="cls-2">
            <path d="M156.43,16.38v8.9h-1.79v-.74c-.47.56-1.15.84-2.02.84-1.82,0-3.23-1.29-3.23-3.32s1.4-3.32,3.23-3.32c.79,0,1.46.25,1.93.78v-3.13h1.87ZM154.59,22.05c0-1.12-.72-1.79-1.64-1.79s-1.66.67-1.66,1.79.72,1.79,1.66,1.79,1.64-.67,1.64-1.79Z"/>
          </g>
          <g class="cls-2">
            <path d="M162.91,18.97h1.65v1.44h-1.61v4.87h-1.87v-4.87h-1v-1.44h1v-.29c0-1.45.89-2.4,2.49-2.4.53,0,1.08.11,1.43.35l-.49,1.36c-.2-.14-.47-.23-.75-.23-.55,0-.85.3-.85.94v.28Z"/>
          </g>
          <g class="cls-2">
            <path d="M164.58,22.05c0-1.94,1.5-3.32,3.55-3.32s3.54,1.38,3.54,3.32-1.49,3.32-3.54,3.32-3.55-1.38-3.55-3.32ZM169.77,22.05c0-1.12-.71-1.79-1.64-1.79s-1.66.67-1.66,1.79.72,1.79,1.66,1.79,1.64-.67,1.64-1.79Z"/>
          </g>
          <g class="cls-2">
            <path d="M176.58,18.73v1.73c-.16-.01-.28-.02-.42-.02-1.03,0-1.72.56-1.72,1.8v3.05h-1.87v-6.45h1.79v.85c.46-.62,1.22-.95,2.22-.95Z"/>
          </g>
        </g>
        <g id="Group_26515">
          <g id="Group_26516">
            <path id="Path_18831" d="M161.88,30.83c-6.31,0-10.26,4.3-10.26,11.18s3.96,11.16,10.26,11.16,10.25-4.29,10.25-11.16-3.96-11.18-10.25-11.18M161.88,49.88c-3.87,0-6.31-3.06-6.31-7.87s2.44-7.88,6.31-7.88,6.31,3.06,6.31,7.88-2.46,7.87-6.31,7.87"/>
            <path id="Path_18832" d="M127.48,36.6c-4.05,0-6.58,2.13-6.74,5.09h3.46c.24-1.32,1.36-2.17,3.13-2.17s2.97.96,2.97,2.62v1.14l-4.2.24c-3.87.24-6.04,1.93-6.04,4.75s2.23,4.8,5.3,4.8h0c2.03.03,3.92-1.03,4.95-2.79h.08v2.53h3.6v-10.94c0-3.19-2.56-5.27-6.5-5.27M130.29,46.92c-.11,1.95-1.77,3.44-3.72,3.33-.03,0-.06,0-.09,0-1.62,0-2.7-.82-2.7-2.13s1.03-2.07,2.83-2.19l3.67-.23v1.21Z"/>
            <path id="Path_18833" d="M113.13,36.63c-2.16-.08-4.13,1.19-4.95,3.19h-.09c-.52-1.99-2.38-3.33-4.43-3.19-2.01-.06-3.83,1.17-4.53,3.06h-.08v-2.76h-3.58v15.88h3.73v-9.73c-.13-1.69,1.13-3.17,2.82-3.3.08,0,.16,0,.23,0,1.45-.11,2.71.98,2.82,2.43.01.14,0,.29,0,.43v10.17h3.63v-9.81c-.13-1.64,1.09-3.08,2.73-3.21.1,0,.2-.01.3,0,1.83,0,2.85,1.11,2.85,3.06v9.98h3.73v-10.89c.2-2.72-1.84-5.08-4.56-5.28-.21-.02-.41-.02-.62,0"/>
            <path id="Path_18834" d="M184.39,40.45l-2.49-.57c-2.65-.63-3.75-1.47-3.75-2.91,0-1.8,1.65-3,4.09-3s4.17,1.21,4.34,3.24h3.69c-.09-3.81-3.24-6.38-8-6.38s-8.05,2.59-8.05,6.43c0,3.09,1.89,5,5.87,5.92l2.8.66c2.73.64,3.84,1.54,3.84,3.1,0,1.8-1.81,3.09-4.42,3.09s-4.63-1.3-4.87-3.3h-3.75c.17,3.99,3.43,6.44,8.41,6.44,5.23,0,8.53-2.58,8.53-6.68,0-3.22-1.86-5.03-6.25-6.04"/>
            <path id="Path_18836" d="M143.39,50.11c-2.37,0-3.9-1.92-3.9-5.24s1.51-5.24,3.87-5.24c1.76-.07,3.27,1.22,3.48,2.97h3.52c-.26-3.34-2.85-5.99-7.04-5.99-4.61,0-7.61,3.19-7.61,8.27s3,8.26,7.64,8.26c3.99,0,6.73-2.34,7.03-5.89h-3.52c-.22,1.72-1.73,2.98-3.46,2.88"/>
            <path id="Path_18837" d="M71.96,26.15c2.02-.16,3.89-1.14,5.17-2.72,1.26-1.49,1.98-3.36,2.03-5.31,0-.26-.02-.51-.07-.77-2.17.21-4.18,1.25-5.61,2.89-1.28,1.43-2.02,3.25-2.1,5.17,0,.23.03.46.07.69.17.03.34.05.52.05"/>
            <path id="Path_18838" d="M81.93,37.62c.03-2.97,1.59-5.71,4.13-7.26-1.73-2.44-4.57-3.86-7.56-3.78-2.87,0-5.22,1.75-6.72,1.75-1.58,0-3.68-1.65-6.2-1.65-4.74,0-9.56,3.93-9.56,11.35.08,4.5,1.47,8.89,3.98,12.63,1.9,2.67,3.56,4.84,5.93,4.84s3.41-1.56,6.33-1.56,3.66,1.51,6.25,1.51,4.3-2.35,5.93-4.69c1.14-1.66,2.02-3.49,2.62-5.41-3.09-1.32-5.11-4.35-5.12-7.71"/>
          </g>
        </g>
      </g>
    </g>
  </g>
</svg>