<svg xmlns="http://www.w3.org/2000/svg" xmlns:xlink="http://www.w3.org/1999/xlink" width="110" height="110" viewBox="0 0 110 110">
  <defs>
    <linearGradient id="linear-gradient" x1="0.5" x2="0.5" y2="1" gradientUnits="objectBoundingBox">
      <stop offset="0" stop-color="#f8eca2"/>
      <stop offset="0.493" stop-color="#fff3a6"/>
      <stop offset="1" stop-color="#c39645"/>
    </linearGradient>
    <linearGradient id="linear-gradient-2" x1="0.919" x2="0.585" y2="0.961" xlink:href="#linear-gradient"/>
  </defs>
  <g id="Group_26678" data-name="Group 26678" transform="translate(-598 -810)">
    <g id="Group_26620" data-name="Group 26620" transform="translate(598.19 810)">
      <circle id="Ellipse_2730" data-name="Ellipse 2730" cx="55" cy="55" r="55" transform="translate(-0.19 0)" fill="url(#linear-gradient)"/>
      <circle id="Ellipse_2731" data-name="Ellipse 2731" cx="52.5" cy="52.5" r="52.5" transform="translate(1.81 3)" fill="#014451"/>
    </g>
    <g id="Group_26605" data-name="Group 26605" transform="translate(630 842)">
      <path id="Path_18908" data-name="Path 18908" d="M9.06,17.553H4.915A4.113,4.113,0,0,0,.846,21.7v4.223A4.113,4.113,0,0,0,4.915,30.07H9.06a4.114,4.114,0,0,0,4.069-4.147V21.7A4.114,4.114,0,0,0,9.06,17.553m.55,8.37a.556.556,0,0,1-.55.561H4.915a.556.556,0,0,1-.55-.561V21.7a.556.556,0,0,1,.55-.561H9.06a.556.556,0,0,1,.55.561v4.223Zm14.984-7.508H22.141a4.114,4.114,0,0,0-4.069,4.147v2.5a4.114,4.114,0,0,0,4.069,4.147h2.453a4.113,4.113,0,0,0,4.069-4.147v-2.5a4.113,4.113,0,0,0-4.069-4.147m.55,6.645a.556.556,0,0,1-.55.561H22.141a.556.556,0,0,1-.55-.561v-2.5a.556.556,0,0,1,.55-.561h2.453a.556.556,0,0,1,.55.561ZM8.214,35.106H5.761a4.113,4.113,0,0,0-4.069,4.147v2.5A4.113,4.113,0,0,0,5.761,45.9H8.214a4.113,4.113,0,0,0,4.069-4.147v-2.5a4.113,4.113,0,0,0-4.069-4.147m.55,6.645a.556.556,0,0,1-.55.561H5.761a.556.556,0,0,1-.55-.561v-2.5a.556.556,0,0,1,.55-.561H8.214a.556.556,0,0,1,.55.561ZM25.44.862H21.3a4.113,4.113,0,0,0-4.069,4.147V9.232A4.113,4.113,0,0,0,21.3,13.379H25.44a4.113,4.113,0,0,0,4.069-4.147V5.009A4.113,4.113,0,0,0,25.44.862m.55,8.37a.556.556,0,0,1-.55.561H21.3a.556.556,0,0,1-.55-.561V5.009a.556.556,0,0,1,.55-.561H25.44a.556.556,0,0,1,.55.561ZM40.974,1.724H38.521a4.113,4.113,0,0,0-4.069,4.147v2.5a4.113,4.113,0,0,0,4.069,4.147h2.453A4.113,4.113,0,0,0,45.043,8.37v-2.5a4.113,4.113,0,0,0-4.069-4.147m.55,6.645a.556.556,0,0,1-.55.561H38.521a.556.556,0,0,1-.55-.561v-2.5a.556.556,0,0,1,.55-.561h2.453a.556.556,0,0,1,.55.561Zm-1.13,17.108a1.753,1.753,0,0,1-1.988-.507,1.842,1.842,0,0,1-.167-2.081,1.76,1.76,0,0,1,1.853-.837,1.793,1.793,0,0,1,1.381,1.408,1.819,1.819,0,0,1-1.079,2.017m-16.38,16.26a1.752,1.752,0,0,1-1.97-.485A1.84,1.84,0,0,1,21.83,39.2a1.762,1.762,0,0,1,1.825-.9,1.793,1.793,0,0,1,1.438,1.418,1.816,1.816,0,0,1-1.079,2.018m16.406-.011a1.753,1.753,0,0,1-2-.474,1.839,1.839,0,0,1-.228-2.027,1.764,1.764,0,0,1,1.839-.925,1.793,1.793,0,0,1,1.438,1.419A1.822,1.822,0,0,1,40.421,41.727ZM13.782,2.881a1.8,1.8,0,0,1-1.138,2.255,1.753,1.753,0,0,1-2.213-1.16.551.551,0,0,0-.524-.389H4.069a.556.556,0,0,0-.55.561v5.947a.556.556,0,0,0,.55.561H9.907a1.794,1.794,0,0,1,0,3.587H4.069A4.113,4.113,0,0,1,0,10.094V4.147A4.113,4.113,0,0,1,4.069,0H9.907a4.065,4.065,0,0,1,3.875,2.881" fill="url(#linear-gradient-2)"/>
    </g>
  </g>
</svg>
