<svg xmlns="http://www.w3.org/2000/svg" xmlns:xlink="http://www.w3.org/1999/xlink" width="110" height="110" viewBox="0 0 110 110">
  <defs>
    <linearGradient id="linear-gradient" x1="0.5" x2="0.5" y2="1" gradientUnits="objectBoundingBox">
      <stop offset="0" stop-color="#f8eca2"/>
      <stop offset="0.493" stop-color="#fff3a6"/>
      <stop offset="1" stop-color="#c39645"/>
    </linearGradient>
    <linearGradient id="linear-gradient-2" x1="0.938" y1="-0.183" x2="0.343" y2="1.052" gradientUnits="objectBoundingBox">
      <stop offset="0" stop-color="#f8eca2"/>
      <stop offset="0.581" stop-color="#fff3a6"/>
      <stop offset="1" stop-color="#c39645"/>
    </linearGradient>
  </defs>
  <g id="Group_26677" data-name="Group 26677" transform="translate(-397 -810)">
    <g id="Group_26619" data-name="Group 26619" transform="translate(397 810)">
      <circle id="Ellipse_2730" data-name="Ellipse 2730" cx="55" cy="55" r="55" transform="translate(0 0)" fill="url(#linear-gradient)"/>
      <circle id="Ellipse_2731" data-name="Ellipse 2731" cx="52.5" cy="52.5" r="52.5" transform="translate(3 3)" fill="#014451"/>
    </g>
    <g id="Group_26623" data-name="Group 26623" transform="translate(426.951 837.639)">
      <g id="Group_26602" data-name="Group 26602">
        <path id="Path_18904" data-name="Path 18904" d="M40.006,73.751H8.081A8.024,8.024,0,0,1,0,65.8V34.4a8.024,8.024,0,0,1,8.081-7.948h18.6a1.532,1.532,0,1,1,0,3.064H8.081A4.931,4.931,0,0,0,3.115,34.4V65.8a4.931,4.931,0,0,0,4.966,4.884H40.006A4.931,4.931,0,0,0,44.971,65.8V46a1.558,1.558,0,0,1,3.115,0V65.8a8.024,8.024,0,0,1-8.081,7.948" transform="translate(0 -19.244)" fill="url(#linear-gradient-2)"/>
        <path id="Path_18905" data-name="Path 18905" d="M103.381,18.578C92.114,20.57,89.174,23.461,87.149,34.543a.953.953,0,0,1-1.871,0C83.252,23.461,80.312,20.57,69.045,18.578a.932.932,0,0,1,0-1.841C80.312,14.745,83.252,11.853,85.277.771a.953.953,0,0,1,1.871,0c2.025,11.082,4.965,13.974,16.232,15.966a.932.932,0,0,1,0,1.841" transform="translate(-49.658 0)" fill="url(#linear-gradient-2)"/>
        <path id="Path_18906" data-name="Path 18906" d="M55.216,109.408c-5.515,1.032-7.089,2.579-8.137,8a.583.583,0,0,1-1.143,0c-1.049-5.425-2.623-6.972-8.137-8a.57.57,0,0,1,0-1.125c5.515-1.032,7.088-2.579,8.137-8a.583.583,0,0,1,1.143,0c1.049,5.425,2.622,6.972,8.137,8a.57.57,0,0,1,0,1.125" transform="translate(-27.152 -72.61)" fill="url(#linear-gradient-2)"/>
        <path id="Path_18907" data-name="Path 18907" d="M173.837,19.178c-1.886.391-2.5,1-2.9,2.852a.282.282,0,0,1-.551,0c-.4-1.855-1.014-2.462-2.9-2.852a.276.276,0,0,1,0-.542c1.886-.391,2.5-1,2.9-2.852a.282.282,0,0,1,.551,0c.4,1.855,1.014,2.462,2.9,2.852a.276.276,0,0,1,0,.542" transform="translate(-121.677 -11.322)" fill="url(#linear-gradient-2)"/>
      </g>
    </g>
  </g>
</svg>
