<svg xmlns="http://www.w3.org/2000/svg" xmlns:xlink="http://www.w3.org/1999/xlink" width="110.692" height="109.944" viewBox="0 0 110.692 109.944">
  <defs>
    <linearGradient id="linear-gradient" x1="0.5" x2="0.5" y2="1" gradientUnits="objectBoundingBox">
      <stop offset="0" stop-color="#f8eca2"/>
      <stop offset="0.493" stop-color="#fff3a6"/>
      <stop offset="1" stop-color="#c39645"/>
    </linearGradient>
    <clipPath id="clip-path">
      <rect id="Rectangle_8610" data-name="Rectangle 8610" width="51.708" height="54.348" fill="url(#linear-gradient)"/>
    </clipPath>
  </defs>
  <g id="Group_26679" data-name="Group 26679" transform="translate(-800.761 -810)">
    <g id="Group_26621" data-name="Group 26621" transform="translate(800.761 810)">
      <ellipse id="Ellipse_2730" data-name="Ellipse 2730" cx="55.346" cy="54.972" rx="55.346" ry="54.972" transform="translate(0 0)" fill="url(#linear-gradient)"/>
      <circle id="Ellipse_2731" data-name="Ellipse 2731" cx="52.354" cy="52.354" r="52.354" transform="translate(2.992 2.992)" fill="#014451"/>
    </g>
    <g id="Group_26641" data-name="Group 26641" transform="translate(830.253 839.798)">
      <g id="Group_26640" data-name="Group 26640" transform="translate(0 0)" clip-path="url(#clip-path)">
        <path id="Path_18910" data-name="Path 18910" d="M18.056,23.139c.647.45,1.286.9,1.9,1.335,2.268,1.624,4.056,2.785,5.152,3.47a2.866,2.866,0,0,0,1.492.447h.1a2.9,2.9,0,0,0,1.549-.444c1.1-.687,2.887-1.848,5.154-3.472.613-.439,1.252-.885,1.9-1.335,3.486-2.428,7.09-4.942,8.521-7.691A10.567,10.567,0,0,0,26.681,3.406,10.569,10.569,0,0,0,9.535,15.448c1.43,2.749,5.035,5.263,8.521,7.691M12.363,8.506A6.875,6.875,0,0,1,18.9,3.7a6.882,6.882,0,0,1,6.138,3.782,1.845,1.845,0,0,0,1.658.954h0A1.918,1.918,0,0,0,28.359,7.4a6.864,6.864,0,1,1,12.178,6.335c-1.009,1.942-4.379,4.292-7.353,6.364-.659.46-1.31.914-1.937,1.362-1.934,1.386-3.5,2.417-4.568,3.1-1.066-.676-2.632-1.709-4.569-3.1-.624-.448-1.277-.9-1.936-1.362-2.974-2.072-6.344-4.421-7.353-6.364a6.818,6.818,0,0,1-.457-5.233" transform="translate(1.951 -0.001)" fill="url(#linear-gradient)"/>
        <path id="Path_18911" data-name="Path 18911" d="M51.258,32.352a6,6,0,0,0-4.982-2.444A4.116,4.116,0,0,0,45.253,28.7a6.936,6.936,0,0,0-6.92-.818l-.248.1c-1.682.692-3.928,1.609-6.322,2.447a10.875,10.875,0,0,0-4.171-1.3c-.27-.042-.527-.08-.76-.123a54.954,54.954,0,0,1-8.952-2.507,24.1,24.1,0,0,0-7.637-1.788,21.6,21.6,0,0,0-9.134,2.1A1.851,1.851,0,1,0,2.594,30.2,17.386,17.386,0,0,1,10.127,28.4a20.731,20.731,0,0,1,6.52,1.579,58.928,58.928,0,0,0,9.506,2.655c.269.051.565.1.877.143,2.768.426,3.057.8,3.028,1.48l0,.163a2.847,2.847,0,0,1-.028.4,1.651,1.651,0,0,1-.732.3,29.715,29.715,0,0,1-11.531-1.4,1.851,1.851,0,1,0-1.107,3.533,32.97,32.97,0,0,0,13.317,1.5c.023,0,.047,0,.07-.007l.007,0a8.361,8.361,0,0,0,.991-.2c3.3-.9,10.351-3.312,13.717-4.7a3.5,3.5,0,0,1,2.626-.039c-5.138,3.654-18.271,9.678-20.629,10.462-3.407,1.13-6.851.49-11.645-1a20.428,20.428,0,0,1-4.084-1.962,24.917,24.917,0,0,0-4.168-2.043,1.852,1.852,0,0,0-1.218,3.5,21.469,21.469,0,0,1,3.546,1.76,23.711,23.711,0,0,0,4.826,2.284,31.024,31.024,0,0,0,9.082,1.755,15.073,15.073,0,0,0,4.827-.777c2.317-.77,18.022-7.83,22.849-11.911a2.665,2.665,0,0,0,.487-3.528M39.494,31.4l.248-.1a3.515,3.515,0,0,1,1.956-.221c-2.278.866-5.342,1.936-7.952,2.781,0-.067,0-.141,0-.206,2.193-.791,4.205-1.614,5.753-2.252" transform="translate(0 5.778)" fill="url(#linear-gradient)"/>
      </g>
    </g>
  </g>
</svg>
